SplineFontDB: 3.0
FontName: Fruktur-Regular
FullName: Fruktur Regular
FamilyName: Fruktur
Weight: Book
Copyright: Copyright (c) 2013, Sorkin Type Co (www.sorkintype.com)\nwith Reserved Font Name 'Fruktur'
Version: 1.002
ItalicAngle: 0
UnderlinePosition: 20
UnderlineWidth: 262
Ascent: 1638
Descent: 410
LayerCount: 2
Layer: 0 1 "Back"  1
Layer: 1 1 "Fore"  0
XUID: [1021 631 1661839179 15227542]
FSType: 0
OS2Version: 3
OS2_WeightWidthSlopeOnly: 0
OS2_UseTypoMetrics: 1
CreationTime: 1357818660
ModificationTime: 1357800988
PfmFamily: 17
TTFWeight: 400
TTFWidth: 5
LineGap: 0
VLineGap: 0
Panose: 2 10 8 4 5 8 1 6 6 4
OS2TypoAscent: 382
OS2TypoAOffset: 1
OS2TypoDescent: -130
OS2TypoDOffset: 1
OS2TypoLinegap: 0
OS2WinAscent: 0
OS2WinAOffset: 1
OS2WinDescent: 3
OS2WinDOffset: 1
HheadAscent: 0
HheadAOffset: 1
HheadDescent: -3
HheadDOffset: 1
OS2SubXSize: 1434
OS2SubYSize: 1331
OS2SubXOff: 0
OS2SubYOff: 287
OS2SupXSize: 1434
OS2SupYSize: 1331
OS2SupXOff: 0
OS2SupYOff: 977
OS2StrikeYSize: 325
OS2StrikeYPos: 591
OS2Vendor: 'STC '
OS2CodePages: 20000093.00000000
OS2UnicodeRanges: a00000af.5000204a.00000000.00000000
Lookup: 1 0 0 "'aalt' Access All Alternates in Latin lookup 0"  {"'aalt' Access All Alternates in Latin lookup 0 subtable"  } ['aalt' ('DFLT' <'dflt' > 'latn' <'AZE ' 'MOL ' 'ROM ' 'TRK ' 'dflt' > ) ]
Lookup: 1 0 0 "'locl' Localized Forms lookup 1"  {"'locl' Localized Forms lookup 1 subtable"  } ['locl' ('DFLT' <'AZE ' > ) ]
Lookup: 1 0 0 "'locl' Localized Forms lookup 2"  {"'locl' Localized Forms lookup 2 subtable"  } ['locl' ('DFLT' <'TRK ' > ) ]
Lookup: 1 0 0 "'locl' Localized Forms lookup 3"  {"'locl' Localized Forms lookup 3 subtable"  } ['locl' ('DFLT' <'MOL ' 'ROM ' > ) ]

StartChar: .notdef
Encoding: 65536 -1 0
Width: 1703
Flags: W
LayerCount: 2
Fore
SplineSet
222 1454 m 2,0,1
 222 1492 222 1492 239.5 1512.5 c 128,-1,2
 257 1533 257 1533 288 1533 c 2,3,-1
 1405 1533 l 2,4,5
 1443 1533 1443 1533 1462 1512.5 c 128,-1,6
 1481 1492 1481 1492 1481 1457 c 2,7,-1
 1481 76 l 2,8,9
 1481 41 1481 41 1462 20.5 c 128,-1,10
 1443 0 1443 0 1405 0 c 2,11,-1
 291 0 l 2,12,13
 258 0 258 0 240 20.5 c 128,-1,14
 222 41 222 41 222 78 c 2,15,-1
 222 1454 l 2,0,1
500 366 m 2,16,17
 539 326 539 326 579 368 c 1,18,-1
 855 645 l 1,19,-1
 1136 366 l 2,20,21
 1154 347 1154 347 1173 345.5 c 128,-1,22
 1192 344 1192 344 1209 361 c 2,23,-1
 1261 413 l 2,24,25
 1279 431 1279 431 1278 449.5 c 128,-1,26
 1277 468 1277 468 1261 483 c 2,27,-1
 977 767 l 1,28,-1
 1252 1043 l 2,29,30
 1269 1060 1269 1060 1272 1077 c 128,-1,31
 1275 1094 1275 1094 1261 1108 c 2,32,-1
 1194 1177 l 2,33,34
 1177 1195 1177 1195 1159 1192 c 128,-1,35
 1141 1189 1141 1189 1130 1177 c 2,36,-1
 849 895 l 1,37,-1
 562 1183 l 2,38,39
 551 1194 551 1194 534 1197 c 128,-1,40
 517 1200 517 1200 501 1184 c 2,41,-1
 440 1126 l 2,42,43
 423 1109 423 1109 425 1091.5 c 128,-1,44
 427 1074 427 1074 440 1062 c 2,45,-1
 727 773 l 1,46,-1
 442 488 l 2,47,48
 428 475 428 475 428 456.5 c 128,-1,49
 428 438 428 438 445 421 c 2,50,-1
 500 366 l 2,16,17
EndSplineSet
EndChar

StartChar: n
Encoding: 110 110 4
Width: 1192
Flags: W
LayerCount: 2
Fore
SplineSet
107 66 m 1,0,1
 117 126 117 126 126 169.5 c 128,-1,2
 135 213 135 213 143 247 c 128,-1,3
 151 281 151 281 159 309.5 c 128,-1,4
 167 338 167 338 177 368 c 1,5,6
 164 397 164 397 148 454.5 c 128,-1,7
 132 512 132 512 115.5 582 c 128,-1,8
 99 652 99 652 83 728 c 128,-1,9
 67 804 67 804 54 870.5 c 128,-1,10
 41 937 41 937 33.5 986.5 c 128,-1,11
 26 1036 26 1036 26 1054 c 0,12,13
 26 1056 26 1056 26.5 1057.5 c 128,-1,14
 27 1059 27 1059 27 1061 c 1,15,16
 45 1091 45 1091 78.5 1113.5 c 128,-1,17
 112 1136 112 1136 154 1150.5 c 128,-1,18
 196 1165 196 1165 241 1172.5 c 128,-1,19
 286 1180 286 1180 327 1180 c 0,20,21
 374 1180 374 1180 411.5 1172 c 128,-1,22
 449 1164 449 1164 472 1143 c 1,23,-1
 399 517 l 1,24,-1
 415 514 l 1,25,26
 440 596 440 596 461 678 c 128,-1,27
 482 760 482 760 504.5 842 c 128,-1,28
 527 924 527 924 552.5 1004.5 c 128,-1,29
 578 1085 578 1085 611 1165 c 1,30,31
 640 1174 640 1174 674 1177 c 128,-1,32
 708 1180 708 1180 744 1180 c 0,33,34
 792 1180 792 1180 840.5 1172.5 c 128,-1,35
 889 1165 889 1165 934 1148.5 c 128,-1,36
 979 1132 979 1132 1020 1105 c 128,-1,37
 1061 1078 1061 1078 1095 1038 c 1,38,39
 1095 974 1095 974 1082.5 883.5 c 128,-1,40
 1070 793 1070 793 1048 693.5 c 128,-1,41
 1026 594 1026 594 996.5 494 c 128,-1,42
 967 394 967 394 933 311 c 1,43,-1
 1103 400 l 1,44,-1
 1192 279 l 1,45,46
 1176 231 1176 231 1147 178.5 c 128,-1,47
 1118 126 1118 126 1081.5 81.5 c 128,-1,48
 1045 37 1045 37 1002.5 8.5 c 128,-1,49
 960 -20 960 -20 917 -20 c 0,50,51
 893 -20 893 -20 867.5 -13 c 128,-1,52
 842 -6 842 -6 817 6.5 c 128,-1,53
 792 19 792 19 768.5 35.5 c 128,-1,54
 745 52 745 52 727 72 c 1,55,56
 709 90 709 90 697 107 c 128,-1,57
 685 124 685 124 677.5 141 c 128,-1,58
 670 158 670 158 667.5 177.5 c 128,-1,59
 665 197 665 197 666 221 c 2,60,-1
 691 772 l 1,61,-1
 662 781 l 1,62,63
 613 674 613 674 565 571.5 c 128,-1,64
 517 469 517 469 461 360 c 1,65,66
 486 287 486 287 506.5 206.5 c 128,-1,67
 527 126 527 126 545 24 c 1,68,69
 511 0 511 0 464.5 -10 c 128,-1,70
 418 -20 418 -20 358 -20 c 0,71,72
 326 -20 326 -20 290 -14.5 c 128,-1,73
 254 -9 254 -9 219.5 1.5 c 128,-1,74
 185 12 185 12 155.5 28.5 c 128,-1,75
 126 45 126 45 107 66 c 1,0,1
EndSplineSet
EndChar

StartChar: e
Encoding: 101 101 5
Width: 949
Flags: W
LayerCount: 2
Fore
SplineSet
164 127 m 0,0,1
 133 155 133 155 122 176.5 c 128,-1,2
 111 198 111 198 110 221 c 128,-1,3
 109 244 109 244 113 271.5 c 128,-1,4
 117 299 117 299 117 338 c 0,5,6
 117 412 117 412 111.5 492 c 128,-1,7
 106 572 106 572 97 645 c 128,-1,8
 88 718 88 718 77.5 777 c 128,-1,9
 67 836 67 836 57 868 c 0,10,11
 51 888 51 888 48 900.5 c 128,-1,12
 45 913 45 913 45 922 c 0,13,14
 45 944 45 944 65 972 c 128,-1,15
 85 1000 85 1000 113 1026 c 128,-1,16
 141 1052 141 1052 171 1074.5 c 128,-1,17
 201 1097 201 1097 220 1109 c 0,18,19
 242 1123 242 1123 275 1139.5 c 128,-1,20
 308 1156 308 1156 343.5 1170.5 c 128,-1,21
 379 1185 379 1185 414.5 1194.5 c 128,-1,22
 450 1204 450 1204 477 1204 c 1,23,24
 491 1203 491 1203 510 1197 c 128,-1,25
 529 1191 529 1191 555 1174 c 0,26,27
 615 1134 615 1134 657 1110 c 128,-1,28
 699 1086 699 1086 733.5 1070 c 128,-1,29
 768 1054 768 1054 799 1042.5 c 128,-1,30
 830 1031 830 1031 867 1018 c 0,31,32
 874 1015 874 1015 879.5 1012 c 128,-1,33
 885 1009 885 1009 889 1002 c 128,-1,34
 893 995 893 995 896 982 c 128,-1,35
 899 969 899 969 903 946 c 0,36,37
 907 922 907 922 908 894.5 c 128,-1,38
 909 867 909 867 907.5 840.5 c 128,-1,39
 906 814 906 814 901.5 790 c 128,-1,40
 897 766 897 766 888 750 c 0,41,42
 884 743 884 743 862 716.5 c 128,-1,43
 840 690 840 690 805 651.5 c 128,-1,44
 770 613 770 613 726 566 c 128,-1,45
 682 519 682 519 634 469.5 c 128,-1,46
 586 420 586 420 536.5 372 c 128,-1,47
 487 324 487 324 443 284 c 1,48,-1
 472 284 l 1,49,50
 497 289 497 289 533 305 c 128,-1,51
 569 321 569 321 612 342.5 c 128,-1,52
 655 364 655 364 702.5 389.5 c 128,-1,53
 750 415 750 415 798 438 c 1,54,-1
 883 299 l 1,55,56
 863 272 863 272 829.5 238 c 128,-1,57
 796 204 796 204 754.5 168.5 c 128,-1,58
 713 133 713 133 664.5 99 c 128,-1,59
 616 65 616 65 566 38.5 c 128,-1,60
 516 12 516 12 466 -4 c 128,-1,61
 416 -20 416 -20 372 -20 c 0,62,63
 347 -20 347 -20 322 -7 c 128,-1,64
 297 6 297 6 266 38 c 0,65,66
 256 48 256 48 246.5 57.5 c 128,-1,67
 237 67 237 67 227 75 c 0,68,69
 206 94 206 94 189 107 c 128,-1,70
 172 120 172 120 164 127 c 0,0,1
425 417 m 1,71,72
 442 442 442 442 470 482 c 128,-1,73
 498 522 498 522 529.5 570 c 128,-1,74
 561 618 561 618 591 670.5 c 128,-1,75
 621 723 621 723 643 774 c 1,76,77
 617 780 617 780 567.5 794.5 c 128,-1,78
 518 809 518 809 449 831 c 1,79,80
 449 817 449 817 448 788 c 128,-1,81
 447 759 447 759 445.5 722 c 128,-1,82
 444 685 444 685 442 642.5 c 128,-1,83
 440 600 440 600 437.5 559 c 128,-1,84
 435 518 435 518 432 481.5 c 128,-1,85
 429 445 429 445 426 420 c 0,86,87
 426 419 426 419 425.5 418.5 c 128,-1,88
 425 418 425 418 425 417 c 1,71,72
EndSplineSet
EndChar

StartChar: s
Encoding: 115 115 6
Width: 900
Flags: W
LayerCount: 2
Fore
SplineSet
97 55 m 1,0,1
 72 100 72 100 61.5 139 c 128,-1,2
 51 178 51 178 49.5 211 c 128,-1,3
 48 244 48 244 54.5 270 c 128,-1,4
 61 296 61 296 69.5 316.5 c 128,-1,5
 78 337 78 337 86.5 351 c 128,-1,6
 95 365 95 365 99 374 c 1,7,8
 152 372 152 372 202 357 c 128,-1,9
 252 342 252 342 299.5 318 c 128,-1,10
 347 294 347 294 391 264.5 c 128,-1,11
 435 235 435 235 476 205 c 1,12,-1
 525 229 l 1,13,14
 530 258 530 258 531.5 295 c 128,-1,15
 533 332 533 332 531 360 c 1,16,17
 511 366 511 366 482.5 375.5 c 128,-1,18
 454 385 454 385 421 397 c 0,19,20
 373 415 373 415 318.5 438 c 128,-1,21
 264 461 264 461 214.5 487 c 128,-1,22
 165 513 165 513 125 540.5 c 128,-1,23
 85 568 85 568 65 594 c 1,24,25
 60 614 60 614 56 643 c 128,-1,26
 52 672 52 672 50 705.5 c 128,-1,27
 48 739 48 739 46.5 773.5 c 128,-1,28
 45 808 45 808 44 838 c 128,-1,29
 43 868 43 868 43 891 c 128,-1,30
 43 914 43 914 43 925 c 0,31,32
 43 947 43 947 64.5 975 c 128,-1,33
 86 1003 86 1003 115 1029.5 c 128,-1,34
 144 1056 144 1056 174 1078 c 128,-1,35
 204 1100 204 1100 221 1110 c 0,36,37
 244 1124 244 1124 277 1140.5 c 128,-1,38
 310 1157 310 1157 346 1171 c 128,-1,39
 382 1185 382 1185 417.5 1194.5 c 128,-1,40
 453 1204 453 1204 482 1204 c 0,41,42
 504 1204 504 1204 530 1194.5 c 128,-1,43
 556 1185 556 1185 583 1172 c 128,-1,44
 610 1159 610 1159 636.5 1145 c 128,-1,45
 663 1131 663 1131 685 1122 c 1,46,-1
 846 1068 l 1,47,48
 859 1023 859 1023 855.5 974 c 128,-1,49
 852 925 852 925 833.5 875.5 c 128,-1,50
 815 826 815 826 782.5 777.5 c 128,-1,51
 750 729 750 729 707 684 c 1,52,53
 676 697 676 697 638.5 722.5 c 128,-1,54
 601 748 601 748 563.5 781 c 128,-1,55
 526 814 526 814 491 850.5 c 128,-1,56
 456 887 456 887 431 922 c 1,57,-1
 405 913 l 1,58,-1
 396 727 l 1,59,60
 419 715 419 715 455.5 694 c 128,-1,61
 492 673 492 673 535 646.5 c 128,-1,62
 578 620 578 620 624 590 c 128,-1,63
 670 560 670 560 712 529.5 c 128,-1,64
 754 499 754 499 788 470 c 128,-1,65
 822 441 822 441 841 417 c 1,66,67
 845 354 845 354 836 287.5 c 128,-1,68
 827 221 827 221 809 168 c 1,69,70
 750 111 750 111 685 62 c 128,-1,71
 620 13 620 13 539 -20 c 1,72,73
 471 -17 471 -17 405.5 -7 c 128,-1,74
 340 3 340 3 281.5 15 c 128,-1,75
 223 27 223 27 175.5 38.5 c 128,-1,76
 128 50 128 50 97 55 c 1,0,1
EndSplineSet
EndChar

StartChar: H
Encoding: 72 72 7
Width: 1335
Flags: W
LayerCount: 2
Fore
SplineSet
133 62 m 1,0,1
 137 135 137 135 145.5 217 c 128,-1,2
 154 299 154 299 167 378.5 c 128,-1,3
 180 458 180 458 196 530 c 128,-1,4
 212 602 212 602 230 656 c 1,5,6
 204 735 204 735 182.5 831.5 c 128,-1,7
 161 928 161 928 143 1028 c 128,-1,8
 125 1128 125 1128 110 1224 c 128,-1,9
 95 1320 95 1320 82 1399 c 1,10,11
 96 1420 96 1420 126.5 1443 c 128,-1,12
 157 1466 157 1466 199 1485 c 128,-1,13
 241 1504 241 1504 292.5 1516.5 c 128,-1,14
 344 1529 344 1529 400 1529 c 0,15,16
 448 1529 448 1529 489 1520 c 128,-1,17
 530 1511 530 1511 566 1489 c 1,18,-1
 507 800 l 1,19,20
 542 806 542 806 586 812 c 128,-1,21
 630 818 630 818 675.5 824 c 128,-1,22
 721 830 721 830 763.5 835.5 c 128,-1,23
 806 841 806 841 838 844 c 1,24,25
 821 914 821 914 805 988 c 128,-1,26
 789 1062 789 1062 775 1134 c 128,-1,27
 761 1206 761 1206 749.5 1273.5 c 128,-1,28
 738 1341 738 1341 730 1400 c 1,29,30
 745 1421 745 1421 775 1444 c 128,-1,31
 805 1467 805 1467 847 1486 c 128,-1,32
 889 1505 889 1505 940 1517.5 c 128,-1,33
 991 1530 991 1530 1047 1530 c 0,34,35
 1095 1530 1095 1530 1138 1521 c 128,-1,36
 1181 1512 1181 1512 1216 1490 c 1,37,-1
 1138 316 l 1,38,-1
 1274 319 l 1,39,-1
 1309 177 l 1,40,41
 1297 147 1297 147 1272.5 112.5 c 128,-1,42
 1248 78 1248 78 1213.5 48.5 c 128,-1,43
 1179 19 1179 19 1135.5 -0.5 c 128,-1,44
 1092 -20 1092 -20 1043 -20 c 0,45,46
 990 -20 990 -20 946 -3 c 128,-1,47
 902 14 902 14 870 46 c 128,-1,48
 838 78 838 78 820 124 c 128,-1,49
 802 170 802 170 801 228 c 0,50,51
 799 316 799 316 812 401.5 c 128,-1,52
 825 487 825 487 839 581 c 1,53,54
 802 583 802 583 755 586 c 128,-1,55
 708 589 708 589 660 592.5 c 128,-1,56
 612 596 612 596 567.5 599.5 c 128,-1,57
 523 603 523 603 491 608 c 1,58,-1
 491 607 l 1,59,60
 504 546 504 546 514.5 473 c 128,-1,61
 525 400 525 400 533 322.5 c 128,-1,62
 541 245 541 245 547.5 167.5 c 128,-1,63
 554 90 554 90 558 19 c 1,64,65
 526 -2 526 -2 485.5 -11 c 128,-1,66
 445 -20 445 -20 391 -20 c 0,67,68
 301 -20 301 -20 237 2 c 128,-1,69
 173 24 173 24 133 62 c 1,0,1
EndSplineSet
EndChar

StartChar: A
Encoding: 65 65 8
Width: 1272
Flags: W
LayerCount: 2
Fore
SplineSet
51 303 m 1,0,-1
 183 292 l 1,1,-1
 357 1167 l 1,2,3
 287 1177 287 1177 226.5 1189 c 128,-1,4
 166 1201 166 1201 127 1216 c 1,5,6
 128 1255 128 1255 136.5 1301 c 128,-1,7
 145 1347 145 1347 161 1393 c 128,-1,8
 177 1439 177 1439 200.5 1480 c 128,-1,9
 224 1521 224 1521 255 1549 c 1,10,11
 456 1516 456 1516 646 1469.5 c 128,-1,12
 836 1423 836 1423 1025 1366 c 1,13,14
 1068 1153 1068 1153 1100.5 987 c 128,-1,15
 1133 821 1133 821 1156.5 693 c 128,-1,16
 1180 565 1180 565 1196.5 472 c 128,-1,17
 1213 379 1213 379 1223 312 c 128,-1,18
 1233 245 1233 245 1238 200.5 c 128,-1,19
 1243 156 1243 156 1245 125.5 c 128,-1,20
 1247 95 1247 95 1246.5 74 c 128,-1,21
 1246 53 1246 53 1245 34 c 1,22,23
 1200 6 1200 6 1147.5 -6.5 c 128,-1,24
 1095 -19 1095 -19 1041 -20 c 0,25,26
 1002 -20 1002 -20 965 -15 c 128,-1,27
 928 -10 928 -10 895.5 0.5 c 128,-1,28
 863 11 863 11 836.5 26.5 c 128,-1,29
 810 42 810 42 792 61 c 1,30,-1
 873 333 l 1,31,-1
 854 420 l 1,32,-1
 800 420 l 1,33,34
 774 421 774 421 743 423 c 128,-1,35
 712 425 712 425 678.5 427.5 c 128,-1,36
 645 430 645 430 611 432.5 c 128,-1,37
 577 435 577 435 545 438 c 1,38,39
 538 382 538 382 530.5 326 c 128,-1,40
 523 270 523 270 510.5 218.5 c 128,-1,41
 498 167 498 167 479 123.5 c 128,-1,42
 460 80 460 80 431 47.5 c 128,-1,43
 402 15 402 15 361.5 -3 c 128,-1,44
 321 -21 321 -21 266 -20 c 0,45,46
 224 -19 224 -19 183.5 -8 c 128,-1,47
 143 3 143 3 108.5 23.5 c 128,-1,48
 74 44 74 44 47 73.5 c 128,-1,49
 20 103 20 103 6 140 c 1,50,-1
 51 303 l 1,0,-1
802 655 m 1,51,-1
 698 1130 l 1,52,-1
 612 1138 l 1,53,54
 610 1105 610 1105 606.5 1051 c 128,-1,55
 603 997 603 997 597.5 930 c 128,-1,56
 592 863 592 863 585 787 c 128,-1,57
 578 711 578 711 569 633 c 1,58,-1
 802 655 l 1,51,-1
EndSplineSet
EndChar

StartChar: O
Encoding: 79 79 9
Width: 1291
Flags: W
LayerCount: 2
Fore
SplineSet
185 147 m 1,0,1
 176 207 176 207 166 285.5 c 128,-1,2
 156 364 156 364 147 450.5 c 128,-1,3
 138 537 138 537 129.5 627.5 c 128,-1,4
 121 718 121 718 115 802 c 128,-1,5
 109 886 109 886 105.5 958 c 128,-1,6
 102 1030 102 1030 102 1081 c 0,7,8
 102 1108 102 1108 102.5 1144.5 c 128,-1,9
 103 1181 103 1181 106 1218 c 128,-1,10
 109 1255 109 1255 116.5 1287 c 128,-1,11
 124 1319 124 1319 138 1337 c 0,12,13
 157 1361 157 1361 195.5 1386.5 c 128,-1,14
 234 1412 234 1412 283 1435.5 c 128,-1,15
 332 1459 332 1459 385.5 1479.5 c 128,-1,16
 439 1500 439 1500 487 1515.5 c 128,-1,17
 535 1531 535 1531 573 1540 c 128,-1,18
 611 1549 611 1549 628 1549 c 0,19,20
 652 1549 652 1549 695.5 1540 c 128,-1,21
 739 1531 739 1531 791.5 1515.5 c 128,-1,22
 844 1500 844 1500 901.5 1478.5 c 128,-1,23
 959 1457 959 1457 1011.5 1431.5 c 128,-1,24
 1064 1406 1064 1406 1106.5 1378 c 128,-1,25
 1149 1350 1149 1350 1173 1321 c 1,26,27
 1176 1291 1176 1291 1179 1263.5 c 128,-1,28
 1182 1236 1182 1236 1184.5 1206 c 128,-1,29
 1187 1176 1187 1176 1188 1141 c 128,-1,30
 1189 1106 1189 1106 1189 1060 c 0,31,32
 1189 1005 1189 1005 1185 929 c 128,-1,33
 1181 853 1181 853 1174.5 767.5 c 128,-1,34
 1168 682 1168 682 1159 593.5 c 128,-1,35
 1150 505 1150 505 1140.5 426.5 c 128,-1,36
 1131 348 1131 348 1120.5 286 c 128,-1,37
 1110 224 1110 224 1101 190 c 0,38,39
 1095 168 1095 168 1076.5 149.5 c 128,-1,40
 1058 131 1058 131 1033 114.5 c 128,-1,41
 1008 98 1008 98 980 84 c 128,-1,42
 952 70 952 70 929 58 c 0,43,44
 860 23 860 23 806.5 3.5 c 128,-1,45
 753 -16 753 -16 699 -21 c 1,46,47
 662 -19 662 -19 615.5 -11 c 128,-1,48
 569 -3 569 -3 519.5 9 c 128,-1,49
 470 21 470 21 420 36.5 c 128,-1,50
 370 52 370 52 325 70 c 128,-1,51
 280 88 280 88 243.5 107.5 c 128,-1,52
 207 127 207 127 185 147 c 1,0,1
500 331 m 1,53,54
 521 319 521 319 548.5 305 c 128,-1,55
 576 291 576 291 606.5 278 c 128,-1,56
 637 265 637 265 668 254.5 c 128,-1,57
 699 244 699 244 725 238 c 1,58,-1
 786 280 l 1,59,60
 792 336 792 336 794.5 415.5 c 128,-1,61
 797 495 797 495 797 586 c 0,62,63
 797 659 797 659 795.5 733.5 c 128,-1,64
 794 808 794 808 791.5 877.5 c 128,-1,65
 789 947 789 947 785 1008.5 c 128,-1,66
 781 1070 781 1070 777 1118 c 1,67,-1
 566 1209 l 1,68,-1
 497 1174 l 1,69,70
 494 1141 494 1141 492 1097 c 128,-1,71
 490 1053 490 1053 488.5 1002.5 c 128,-1,72
 487 952 487 952 486.5 897 c 128,-1,73
 486 842 486 842 486 786 c 0,74,75
 486 721 486 721 487 657.5 c 128,-1,76
 488 594 488 594 489.5 535.5 c 128,-1,77
 491 477 491 477 493.5 425 c 128,-1,78
 496 373 496 373 500 331 c 1,53,54
EndSplineSet
EndChar

StartChar: I
Encoding: 73 73 10
Width: 666
Flags: W
LayerCount: 2
Fore
SplineSet
133 62 m 1,0,1
 137 135 137 135 145.5 217 c 128,-1,2
 154 299 154 299 167 378.5 c 128,-1,3
 180 458 180 458 196 530 c 128,-1,4
 212 602 212 602 230 656 c 1,5,6
 204 735 204 735 182.5 831.5 c 128,-1,7
 161 928 161 928 143 1028 c 128,-1,8
 125 1128 125 1128 110 1224 c 128,-1,9
 95 1320 95 1320 82 1399 c 1,10,11
 96 1420 96 1420 126.5 1443 c 128,-1,12
 157 1466 157 1466 199 1485 c 128,-1,13
 241 1504 241 1504 292.5 1516.5 c 128,-1,14
 344 1529 344 1529 400 1529 c 0,15,16
 448 1529 448 1529 489 1520 c 128,-1,17
 530 1511 530 1511 566 1489 c 1,18,-1
 488 583 l 1,19,20
 501 522 501 522 512 452.5 c 128,-1,21
 523 383 523 383 532 310.5 c 128,-1,22
 541 238 541 238 547.5 164 c 128,-1,23
 554 90 554 90 558 19 c 1,24,25
 526 -2 526 -2 485.5 -11 c 128,-1,26
 445 -20 445 -20 391 -20 c 0,27,28
 301 -20 301 -20 237 2 c 128,-1,29
 173 24 173 24 133 62 c 1,0,1
EndSplineSet
EndChar

StartChar: E
Encoding: 69 69 11
Width: 1110
Flags: W
LayerCount: 2
Fore
SplineSet
173 68 m 1,0,1
 135 113 135 113 111.5 161.5 c 128,-1,2
 88 210 88 210 80 264 c 1,3,-1
 238 681 l 1,4,-1
 -5 1265 l 1,5,6
 -5 1298 -5 1298 9 1335.5 c 128,-1,7
 23 1373 23 1373 45.5 1408.5 c 128,-1,8
 68 1444 68 1444 97.5 1475 c 128,-1,9
 127 1506 127 1506 158 1528 c 1,10,-1
 491 1455 l 1,11,-1
 903 1549 l 1,12,13
 928 1535 928 1535 946 1512 c 128,-1,14
 964 1489 964 1489 975.5 1460.5 c 128,-1,15
 987 1432 987 1432 992.5 1398.5 c 128,-1,16
 998 1365 998 1365 998 1331 c 0,17,18
 998 1291 998 1291 991 1251 c 128,-1,19
 984 1211 984 1211 970.5 1175.5 c 128,-1,20
 957 1140 957 1140 937.5 1110.5 c 128,-1,21
 918 1081 918 1081 893 1062 c 1,22,23
 849 1066 849 1066 800.5 1075.5 c 128,-1,24
 752 1085 752 1085 695 1098.5 c 128,-1,25
 638 1112 638 1112 571.5 1130.5 c 128,-1,26
 505 1149 505 1149 424 1171 c 1,27,-1
 463 851 l 1,28,29
 542 860 542 860 601.5 869 c 128,-1,30
 661 878 661 878 712 887.5 c 128,-1,31
 763 897 763 897 811.5 907.5 c 128,-1,32
 860 918 860 918 916 930 c 1,33,34
 938 897 938 897 947 858 c 128,-1,35
 956 819 956 819 956 778 c 0,36,37
 956 746 956 746 951.5 715 c 128,-1,38
 947 684 947 684 939.5 658 c 128,-1,39
 932 632 932 632 923 612.5 c 128,-1,40
 914 593 914 593 905 584 c 1,41,42
 875 581 875 581 845 581 c 0,43,44
 748 581 748 581 650 600 c 128,-1,45
 552 619 552 619 471 664 c 1,46,-1
 457 309 l 1,47,-1
 744 299 l 1,48,-1
 826 489 l 1,49,-1
 1006 474 l 1,50,51
 1014 453 1014 453 1021 419 c 128,-1,52
 1028 385 1028 385 1033 346 c 128,-1,53
 1038 307 1038 307 1041 266.5 c 128,-1,54
 1044 226 1044 226 1044 193 c 1,55,56
 1005 114 1005 114 941.5 57.5 c 128,-1,57
 878 1 878 1 793 -20 c 1,58,59
 726 -18 726 -18 641 -9.5 c 128,-1,60
 556 -1 556 -1 470 11.5 c 128,-1,61
 384 24 384 24 305.5 39 c 128,-1,62
 227 54 227 54 173 68 c 1,0,1
EndSplineSet
EndChar

StartChar: S
Encoding: 83 83 12
Width: 1050
Flags: W
LayerCount: 2
Fore
SplineSet
169 37 m 1,0,1
 124 116 124 116 112.5 180.5 c 128,-1,2
 101 245 101 245 107 293.5 c 128,-1,3
 113 342 113 342 127.5 374.5 c 128,-1,4
 142 407 142 407 148 422 c 1,5,6
 209 417 209 417 268 401 c 128,-1,7
 327 385 327 385 383.5 361 c 128,-1,8
 440 337 440 337 493 306.5 c 128,-1,9
 546 276 546 276 594 243 c 1,10,-1
 654 268 l 1,11,12
 663 313 663 313 667 361.5 c 128,-1,13
 671 410 671 410 658 454 c 1,14,15
 626 463 626 463 578 482.5 c 128,-1,16
 530 502 530 502 475 528 c 128,-1,17
 420 554 420 554 363 586 c 128,-1,18
 306 618 306 618 256 651 c 128,-1,19
 206 684 206 684 168 717 c 128,-1,20
 130 750 130 750 113 779 c 1,21,22
 107 802 107 802 102 837 c 128,-1,23
 97 872 97 872 93.5 914.5 c 128,-1,24
 90 957 90 957 86.5 1002.5 c 128,-1,25
 83 1048 83 1048 80.5 1092.5 c 128,-1,26
 78 1137 78 1137 75 1176 c 128,-1,27
 72 1215 72 1215 69 1244 c 1,28,29
 105 1302 105 1302 145.5 1348 c 128,-1,30
 186 1394 186 1394 232 1430.5 c 128,-1,31
 278 1467 278 1467 329 1496 c 128,-1,32
 380 1525 380 1525 436 1549 c 1,33,34
 463 1541 463 1541 497 1525.5 c 128,-1,35
 531 1510 531 1510 563 1493.5 c 128,-1,36
 595 1477 595 1477 623 1462 c 128,-1,37
 651 1447 651 1447 666 1440 c 1,38,-1
 986 1455 l 1,39,40
 1010 1360 1010 1360 1000.5 1279 c 128,-1,41
 991 1198 991 1198 965.5 1137.5 c 128,-1,42
 940 1077 940 1077 908.5 1038.5 c 128,-1,43
 877 1000 877 1000 856 990 c 1,44,45
 822 997 822 997 774.5 1015 c 128,-1,46
 727 1033 727 1033 674.5 1061 c 128,-1,47
 622 1089 622 1089 568.5 1126 c 128,-1,48
 515 1163 515 1163 469 1208 c 1,49,-1
 456 1208 l 1,50,-1
 418 998 l 1,51,52
 445 982 445 982 490 953 c 128,-1,53
 535 924 535 924 589.5 886 c 128,-1,54
 644 848 644 848 702.5 803.5 c 128,-1,55
 761 759 761 759 816 712 c 128,-1,56
 871 665 871 665 917.5 617.5 c 128,-1,57
 964 570 964 570 993 528 c 1,58,59
 996 492 996 492 989.5 441 c 128,-1,60
 983 390 983 390 972 338 c 128,-1,61
 961 286 961 286 948.5 240 c 128,-1,62
 936 194 936 194 928 168 c 1,63,64
 871 111 871 111 808.5 62 c 128,-1,65
 746 13 746 13 667 -20 c 1,66,67
 669 -20 669 -20 648 -18 c 128,-1,68
 627 -16 627 -16 592 -12 c 128,-1,69
 557 -8 557 -8 511.5 -3 c 128,-1,70
 466 2 466 2 418 7.5 c 128,-1,71
 370 13 370 13 324.5 18 c 128,-1,72
 279 23 279 23 244 27.5 c 128,-1,73
 209 32 209 32 188 34.5 c 128,-1,74
 167 37 167 37 169 37 c 1,0,1
EndSplineSet
EndChar

StartChar: N
Encoding: 78 78 13
Width: 1371
Flags: W
LayerCount: 2
Fore
SplineSet
98 305 m 1,0,-1
 209 296 l 1,1,-1
 201 1175 l 1,2,3
 158 1178 158 1178 112 1190 c 128,-1,4
 66 1202 66 1202 28 1226 c 1,5,6
 28 1271 28 1271 34 1317 c 128,-1,7
 40 1363 40 1363 57 1405.5 c 128,-1,8
 74 1448 74 1448 105 1485 c 128,-1,9
 136 1522 136 1522 187 1549 c 1,10,11
 223 1544 223 1544 277.5 1533 c 128,-1,12
 332 1522 332 1522 394.5 1502.5 c 128,-1,13
 457 1483 457 1483 521.5 1454 c 128,-1,14
 586 1425 586 1425 642 1385 c 1,15,-1
 1030 391 l 1,16,-1
 1034 395 l 1,17,18
 1026 440 1026 440 1015.5 502 c 128,-1,19
 1005 564 1005 564 993 636 c 128,-1,20
 981 708 981 708 968 787.5 c 128,-1,21
 955 867 955 867 942.5 945.5 c 128,-1,22
 930 1024 930 1024 919 1099 c 128,-1,23
 908 1174 908 1174 900 1238.5 c 128,-1,24
 892 1303 892 1303 887 1352.5 c 128,-1,25
 882 1402 882 1402 882 1430 c 1,26,27
 891 1450 891 1450 915.5 1468 c 128,-1,28
 940 1486 940 1486 973.5 1499.5 c 128,-1,29
 1007 1513 1007 1513 1046.5 1521 c 128,-1,30
 1086 1529 1086 1529 1126 1529 c 0,31,32
 1146 1529 1146 1529 1169 1526 c 128,-1,33
 1192 1523 1192 1523 1214.5 1518 c 128,-1,34
 1237 1513 1237 1513 1258 1504.5 c 128,-1,35
 1279 1496 1279 1496 1294 1486 c 1,36,-1
 1208 348 l 1,37,38
 1228 324 1228 324 1245 300.5 c 128,-1,39
 1262 277 1262 277 1275.5 251.5 c 128,-1,40
 1289 226 1289 226 1299.5 196.5 c 128,-1,41
 1310 167 1310 167 1316 131 c 1,42,43
 1299 91 1299 91 1272 62 c 128,-1,44
 1245 33 1245 33 1210.5 14.5 c 128,-1,45
 1176 -4 1176 -4 1135 -12.5 c 128,-1,46
 1094 -21 1094 -21 1049 -21 c 0,47,48
 1015 -21 1015 -21 975.5 -16.5 c 128,-1,49
 936 -12 936 -12 898 -3.5 c 128,-1,50
 860 5 860 5 826 18 c 128,-1,51
 792 31 792 31 770 49 c 1,52,53
 767 65 767 65 767 93 c 0,54,55
 767 111 767 111 768.5 131.5 c 128,-1,56
 770 152 770 152 773 172.5 c 128,-1,57
 776 193 776 193 781 212 c 128,-1,58
 786 231 786 231 793 245 c 1,59,-1
 356 1170 l 1,60,-1
 351 1168 l 1,61,62
 358 1143 358 1143 374.5 1083.5 c 128,-1,63
 391 1024 391 1024 411.5 943 c 128,-1,64
 432 862 432 862 454.5 768 c 128,-1,65
 477 674 477 674 497.5 580 c 128,-1,66
 518 486 518 486 533.5 399.5 c 128,-1,67
 549 313 549 313 556 248 c 0,68,69
 557 237 557 237 557.5 225.5 c 128,-1,70
 558 214 558 214 558 203 c 0,71,72
 558 156 558 156 546.5 115.5 c 128,-1,73
 535 75 535 75 509.5 45 c 128,-1,74
 484 15 484 15 443.5 -2.5 c 128,-1,75
 403 -20 403 -20 346 -20 c 0,76,77
 301 -20 301 -20 258.5 -8.5 c 128,-1,78
 216 3 216 3 179.5 24 c 128,-1,79
 143 45 143 45 114 75 c 128,-1,80
 85 105 85 105 67 142 c 1,81,-1
 98 305 l 1,0,-1
EndSplineSet
EndChar

StartChar: exclam
Encoding: 33 33 14
Width: 691
Flags: W
LayerCount: 2
Fore
SplineSet
165 655 m 1,0,1
 173 723 173 723 186 787 c 128,-1,2
 199 851 199 851 217 913 c 1,3,4
 203 969 203 969 189.5 1014.5 c 128,-1,5
 176 1060 176 1060 164 1101.5 c 128,-1,6
 152 1143 152 1143 141 1182.5 c 128,-1,7
 130 1222 130 1222 120.5 1264.5 c 128,-1,8
 111 1307 111 1307 102 1356.5 c 128,-1,9
 93 1406 93 1406 85 1467 c 1,10,11
 109 1499 109 1499 146 1525.5 c 128,-1,12
 183 1552 183 1552 227.5 1571 c 128,-1,13
 272 1590 272 1590 322 1600.5 c 128,-1,14
 372 1611 372 1611 423 1613 c 0,15,16
 466 1615 466 1615 506 1602 c 128,-1,17
 546 1589 546 1589 573 1566 c 1,18,-1
 457 964 l 1,19,-1
 521 687 l 1,20,21
 511 665 511 665 486.5 647 c 128,-1,22
 462 629 462 629 429.5 616.5 c 128,-1,23
 397 604 397 604 359.5 598.5 c 128,-1,24
 322 593 322 593 286 597 c 128,-1,25
 250 601 250 601 218 615 c 128,-1,26
 186 629 186 629 165 655 c 1,0,1
81 195 m 1,27,28
 85 207 85 207 100 230.5 c 128,-1,29
 115 254 115 254 136 282 c 128,-1,30
 157 310 157 310 182 340.5 c 128,-1,31
 207 371 207 371 231.5 398 c 128,-1,32
 256 425 256 425 276.5 445.5 c 128,-1,33
 297 466 297 466 310 475 c 1,34,35
 358 461 358 461 401.5 438 c 128,-1,36
 445 415 445 415 483.5 385 c 128,-1,37
 522 355 522 355 554 321 c 128,-1,38
 586 287 586 287 612 251 c 1,39,40
 600 201 600 201 565.5 154.5 c 128,-1,41
 531 108 531 108 487 70 c 128,-1,42
 443 32 443 32 397.5 4.5 c 128,-1,43
 352 -23 352 -23 318 -34 c 1,44,45
 279 -17 279 -17 242.5 5 c 128,-1,46
 206 27 206 27 175 55.5 c 128,-1,47
 144 84 144 84 120 118.5 c 128,-1,48
 96 153 96 153 81 195 c 1,27,28
EndSplineSet
EndChar

StartChar: period
Encoding: 46 46 15
Width: 590
Flags: W
LayerCount: 2
Fore
SplineSet
15 195 m 1,0,1
 19 207 19 207 34 230.5 c 128,-1,2
 49 254 49 254 70 282 c 128,-1,3
 91 310 91 310 116 340.5 c 128,-1,4
 141 371 141 371 165.5 398 c 128,-1,5
 190 425 190 425 210.5 445.5 c 128,-1,6
 231 466 231 466 244 475 c 1,7,8
 292 461 292 461 335.5 438 c 128,-1,9
 379 415 379 415 417.5 385 c 128,-1,10
 456 355 456 355 488 321 c 128,-1,11
 520 287 520 287 546 251 c 1,12,13
 534 201 534 201 499.5 154.5 c 128,-1,14
 465 108 465 108 421 70 c 128,-1,15
 377 32 377 32 331.5 4.5 c 128,-1,16
 286 -23 286 -23 252 -34 c 1,17,18
 213 -17 213 -17 176.5 5 c 128,-1,19
 140 27 140 27 109 55.5 c 128,-1,20
 78 84 78 84 54 118.5 c 128,-1,21
 30 153 30 153 15 195 c 1,0,1
EndSplineSet
EndChar

StartChar: comma
Encoding: 44 44 16
Width: 651
Flags: W
LayerCount: 2
Fore
SplineSet
188 451 m 1,0,1
 257 450 257 450 310 435 c 128,-1,2
 363 420 363 420 402 397 c 128,-1,3
 441 374 441 374 467.5 346 c 128,-1,4
 494 318 494 318 511 291 c 128,-1,5
 528 264 528 264 537 240.5 c 128,-1,6
 546 217 546 217 549 204 c 1,7,8
 531 163 531 163 497 116.5 c 128,-1,9
 463 70 463 70 420.5 23.5 c 128,-1,10
 378 -23 378 -23 331 -67 c 128,-1,11
 284 -111 284 -111 241.5 -146.5 c 128,-1,12
 199 -182 199 -182 164 -208 c 128,-1,13
 129 -234 129 -234 110 -244 c 1,14,-1
 -11 -176 l 1,15,-1
 188 451 l 1,0,1
EndSplineSet
EndChar

StartChar: question
Encoding: 63 63 17
Width: 955
Flags: W
LayerCount: 2
Fore
SplineSet
290 605 m 1,0,1
 279 654 279 654 264.5 694 c 128,-1,2
 250 734 250 734 238 767.5 c 128,-1,3
 226 801 226 801 220.5 829.5 c 128,-1,4
 215 858 215 858 222 884.5 c 128,-1,5
 229 911 229 911 251 936 c 128,-1,6
 273 961 273 961 317 988 c 2,7,-1
 620 1170 l 1,8,9
 574 1195 574 1195 514 1214 c 128,-1,10
 454 1233 454 1233 387 1248.5 c 128,-1,11
 320 1264 320 1264 249 1277.5 c 128,-1,12
 178 1291 178 1291 110 1306 c 1,13,14
 117 1352 117 1352 136 1400.5 c 128,-1,15
 155 1449 155 1449 181 1491.5 c 128,-1,16
 207 1534 207 1534 238 1566 c 128,-1,17
 269 1598 269 1598 299 1611 c 1,18,19
 323 1611 323 1611 363.5 1607 c 128,-1,20
 404 1603 404 1603 452.5 1593 c 128,-1,21
 501 1583 501 1583 555 1566 c 128,-1,22
 609 1549 609 1549 660.5 1523 c 128,-1,23
 712 1497 712 1497 758 1461 c 128,-1,24
 804 1425 804 1425 837 1377 c 1,25,26
 850 1333 850 1333 857.5 1271 c 128,-1,27
 865 1209 865 1209 865 1141 c 128,-1,28
 865 1073 865 1073 857 1003.5 c 128,-1,29
 849 934 849 934 832 874 c 1,30,31
 788 854 788 854 738 840 c 0,32,33
 695 828 695 828 640 818.5 c 128,-1,34
 585 809 585 809 525 813 c 1,35,-1
 477 595 l 1,36,-1
 290 605 l 1,0,1
160 195 m 1,37,38
 164 207 164 207 179 230.5 c 128,-1,39
 194 254 194 254 215 282 c 128,-1,40
 236 310 236 310 261 340.5 c 128,-1,41
 286 371 286 371 310.5 398 c 128,-1,42
 335 425 335 425 355.5 445.5 c 128,-1,43
 376 466 376 466 389 475 c 1,44,45
 437 461 437 461 480.5 438 c 128,-1,46
 524 415 524 415 562.5 385 c 128,-1,47
 601 355 601 355 633 321 c 128,-1,48
 665 287 665 287 691 251 c 1,49,50
 679 201 679 201 644.5 154.5 c 128,-1,51
 610 108 610 108 566 70 c 128,-1,52
 522 32 522 32 476.5 4.5 c 128,-1,53
 431 -23 431 -23 397 -34 c 1,54,55
 358 -17 358 -17 321.5 5 c 128,-1,56
 285 27 285 27 254 55.5 c 128,-1,57
 223 84 223 84 199 118.5 c 128,-1,58
 175 153 175 153 160 195 c 1,37,38
EndSplineSet
EndChar

StartChar: y
Encoding: 121 121 18
Width: 1115
Flags: W
LayerCount: 2
Fore
SplineSet
162 573 m 1,0,-1
 7 1004 l 1,1,2
 25 1050 25 1050 60 1084 c 128,-1,3
 95 1118 95 1118 137.5 1140 c 128,-1,4
 180 1162 180 1162 227.5 1174 c 128,-1,5
 275 1186 275 1186 319.5 1189.5 c 128,-1,6
 364 1193 364 1193 401 1188.5 c 128,-1,7
 438 1184 438 1184 460 1174 c 1,8,9
 470 1072 470 1072 470.5 953 c 128,-1,10
 471 834 471 834 464 713 c 0,11,12
 461 667 461 667 457.5 625.5 c 128,-1,13
 454 584 454 584 448.5 543.5 c 128,-1,14
 443 503 443 503 436 461.5 c 128,-1,15
 429 420 429 420 419 375 c 1,16,-1
 449 361 l 1,17,18
 468 379 468 379 489.5 409 c 128,-1,19
 511 439 511 439 533 475 c 128,-1,20
 555 511 555 511 576 549.5 c 128,-1,21
 597 588 597 588 614.5 624 c 128,-1,22
 632 660 632 660 644.5 690 c 128,-1,23
 657 720 657 720 662 739 c 1,24,25
 653 846 653 846 647.5 920 c 128,-1,26
 642 994 642 994 638.5 1042 c 128,-1,27
 635 1090 635 1090 634 1116 c 128,-1,28
 633 1142 633 1142 633 1154 c 1,29,30
 649 1165 649 1165 696 1173.5 c 128,-1,31
 743 1182 743 1182 801 1182 c 0,32,33
 893 1182 893 1182 958.5 1153 c 128,-1,34
 1024 1124 1024 1124 1078 1061 c 1,35,36
 1078 1054 1078 1054 1075 1045 c 1,37,-1
 1080 1049 l 1,38,39
 1074 1022 1074 1022 1068.5 993.5 c 128,-1,40
 1063 965 1063 965 1051 928.5 c 128,-1,41
 1039 892 1039 892 1018 844.5 c 128,-1,42
 997 797 997 797 961 731 c 1,43,-1
 1099 -62 l 1,44,45
 1083 -124 1083 -124 1047 -182 c 128,-1,46
 1011 -240 1011 -240 961.5 -288.5 c 128,-1,47
 912 -337 912 -337 851 -375 c 128,-1,48
 790 -413 790 -413 724 -435 c 1,49,50
 703 -438 703 -438 681 -438 c 0,51,52
 625 -438 625 -438 565.5 -421 c 128,-1,53
 506 -404 506 -404 453.5 -379.5 c 128,-1,54
 401 -355 401 -355 361 -327.5 c 128,-1,55
 321 -300 321 -300 305 -278 c 1,56,57
 303 -250 303 -250 304 -228 c 128,-1,58
 305 -206 305 -206 308.5 -186.5 c 128,-1,59
 312 -167 312 -167 317.5 -148 c 128,-1,60
 323 -129 323 -129 330 -106 c 1,61,62
 367 -114 367 -114 420.5 -122.5 c 128,-1,63
 474 -131 474 -131 530 -138 c 128,-1,64
 586 -145 586 -145 638.5 -149.5 c 128,-1,65
 691 -154 691 -154 726 -154 c 1,66,67
 729 -81 729 -81 727.5 8.5 c 128,-1,68
 726 98 726 98 723 191 c 128,-1,69
 720 284 720 284 717 372.5 c 128,-1,70
 714 461 714 461 715 532 c 1,71,-1
 705 535 l 1,72,73
 691 500 691 500 669.5 452.5 c 128,-1,74
 648 405 648 405 621 353 c 128,-1,75
 594 301 594 301 564 248 c 128,-1,76
 534 195 534 195 504 147.5 c 128,-1,77
 474 100 474 100 445.5 62.5 c 128,-1,78
 417 25 417 25 393 5 c 0,79,80
 364 -19 364 -19 337 -20 c 0,81,82
 310 -22 310 -22 278 -6 c 128,-1,83
 246 10 246 10 217 31 c 0,84,85
 199 44 199 44 175 58.5 c 128,-1,86
 151 73 151 73 129.5 89.5 c 128,-1,87
 108 106 108 106 93 124 c 128,-1,88
 78 142 78 142 78 162 c 1,89,-1
 162 573 l 1,0,-1
EndSplineSet
EndChar

StartChar: g
Encoding: 103 103 19
Width: 1143
Flags: W
LayerCount: 2
Fore
SplineSet
116 147 m 0,0,1
 116 157 116 157 117 178 c 128,-1,2
 118 199 118 199 119 223.5 c 128,-1,3
 120 248 120 248 121 274 c 128,-1,4
 122 300 122 300 122 320 c 0,5,6
 122 379 122 379 118 454.5 c 128,-1,7
 114 530 114 530 106 608 c 128,-1,8
 98 686 98 686 85.5 761 c 128,-1,9
 73 836 73 836 56 895 c 0,10,11
 50 915 50 915 47.5 927.5 c 128,-1,12
 45 940 45 940 45 950 c 0,13,14
 45 962 45 962 51 974 c 128,-1,15
 57 986 57 986 71 1005 c 0,16,17
 117 1064 117 1064 174.5 1101.5 c 128,-1,18
 232 1139 232 1139 285.5 1161.5 c 128,-1,19
 339 1184 339 1184 380 1193 c 128,-1,20
 421 1202 421 1202 436 1204 c 1,21,22
 476 1176 476 1176 509 1141 c 128,-1,23
 542 1106 542 1106 570.5 1067 c 128,-1,24
 599 1028 599 1028 623.5 987.5 c 128,-1,25
 648 947 648 947 671 908 c 1,26,27
 670 952 670 952 669 991.5 c 128,-1,28
 668 1031 668 1031 666.5 1063 c 128,-1,29
 665 1095 665 1095 664 1118.5 c 128,-1,30
 663 1142 663 1142 663 1154 c 1,31,32
 679 1165 679 1165 726 1173.5 c 128,-1,33
 773 1182 773 1182 831 1182 c 0,34,35
 923 1182 923 1182 988.5 1153 c 128,-1,36
 1054 1124 1054 1124 1108 1061 c 1,37,-1
 1107 1060 l 1,38,-1
 1108 1060 l 1,39,40
 1102 1031 1102 1031 1095.5 999 c 128,-1,41
 1089 967 1089 967 1074.5 924.5 c 128,-1,42
 1060 882 1060 882 1035 826.5 c 128,-1,43
 1010 771 1010 771 967 696 c 1,44,-1
 1099 -62 l 1,45,46
 1083 -124 1083 -124 1047 -182 c 128,-1,47
 1011 -240 1011 -240 961.5 -288.5 c 128,-1,48
 912 -337 912 -337 851 -375 c 128,-1,49
 790 -413 790 -413 724 -435 c 1,50,51
 703 -438 703 -438 681 -438 c 0,52,53
 625 -438 625 -438 565.5 -421 c 128,-1,54
 506 -404 506 -404 453.5 -379.5 c 128,-1,55
 401 -355 401 -355 361 -327.5 c 128,-1,56
 321 -300 321 -300 305 -278 c 1,57,58
 303 -250 303 -250 304 -228 c 128,-1,59
 305 -206 305 -206 308.5 -186.5 c 128,-1,60
 312 -167 312 -167 317.5 -148 c 128,-1,61
 323 -129 323 -129 330 -106 c 1,62,63
 367 -114 367 -114 420.5 -122.5 c 128,-1,64
 474 -131 474 -131 530 -138 c 128,-1,65
 586 -145 586 -145 638.5 -149.5 c 128,-1,66
 691 -154 691 -154 726 -154 c 1,67,68
 729 -81 729 -81 727 8.5 c 128,-1,69
 725 98 725 98 721.5 190 c 128,-1,70
 718 282 718 282 714.5 369.5 c 128,-1,71
 711 457 711 457 712 528 c 1,72,-1
 699 537 l 1,73,74
 669 452 669 452 634 370 c 128,-1,75
 599 288 599 288 562 217 c 128,-1,76
 525 146 525 146 487 91 c 128,-1,77
 449 36 449 36 413 5 c 1,78,79
 385 -17 385 -17 357 -19 c 0,80,81
 330 -21 330 -21 303 -5.5 c 128,-1,82
 276 10 276 10 247 31 c 0,83,84
 229 44 229 44 206 56.5 c 128,-1,85
 183 69 183 69 163 82.5 c 128,-1,86
 143 96 143 96 129.5 111.5 c 128,-1,87
 116 127 116 127 116 147 c 0,0,1
450 339 m 1,88,89
 469 357 469 357 490 385.5 c 128,-1,90
 511 414 511 414 533 448 c 128,-1,91
 555 482 555 482 576 518 c 128,-1,92
 597 554 597 554 615 587 c 128,-1,93
 633 620 633 620 647.5 648 c 128,-1,94
 662 676 662 676 670 694 c 1,95,96
 671 709 671 709 671.5 711.5 c 128,-1,97
 672 714 672 714 672 717.5 c 128,-1,98
 672 721 672 721 672 731.5 c 128,-1,99
 672 742 672 742 672 774 c 1,100,101
 612 789 612 789 561 799 c 128,-1,102
 510 809 510 809 462 820 c 1,103,-1
 462 713 l 2,104,105
 462 621 462 621 451 532.5 c 128,-1,106
 440 444 440 444 420 353 c 1,107,-1
 450 339 l 1,88,89
EndSplineSet
EndChar

StartChar: p
Encoding: 112 112 20
Width: 1125
Flags: W
LayerCount: 2
Fore
SplineSet
131 512 m 1,0,1
 119 559 119 559 107 613 c 128,-1,2
 95 667 95 667 83.5 721.5 c 128,-1,3
 72 776 72 776 61.5 828.5 c 128,-1,4
 51 881 51 881 43.5 925.5 c 128,-1,5
 36 970 36 970 31 1002.5 c 128,-1,6
 26 1035 26 1035 26 1051 c 2,7,-1
 26 1061 l 1,8,9
 44 1091 44 1091 76.5 1114 c 128,-1,10
 109 1137 109 1137 148.5 1152.5 c 128,-1,11
 188 1168 188 1168 231.5 1176 c 128,-1,12
 275 1184 275 1184 316 1184 c 0,13,14
 363 1184 363 1184 401 1174 c 128,-1,15
 439 1164 439 1164 462 1143 c 1,16,-1
 389 524 l 1,17,-1
 392 523 l 1,18,-1
 623 1165 l 1,19,20
 640 1169 640 1169 664 1176.5 c 128,-1,21
 688 1184 688 1184 732 1184 c 0,22,23
 760 1184 760 1184 802.5 1175.5 c 128,-1,24
 845 1167 845 1167 894 1149.5 c 128,-1,25
 943 1132 943 1132 993.5 1104.5 c 128,-1,26
 1044 1077 1044 1077 1089 1038 c 1,27,28
 1086 921 1086 921 1075 802.5 c 128,-1,29
 1064 684 1064 684 1042 557 c 128,-1,30
 1020 430 1020 430 986 291 c 128,-1,31
 952 152 952 152 904 -5 c 1,32,33
 881 -12 881 -12 856.5 -16 c 128,-1,34
 832 -20 832 -20 806 -20 c 0,35,36
 752 -20 752 -20 700 -12 c 128,-1,37
 648 -4 648 -4 602.5 7.5 c 128,-1,38
 557 19 557 19 520 33 c 128,-1,39
 483 47 483 47 461 59 c 1,40,41
 456 17 456 17 447.5 -30.5 c 128,-1,42
 439 -78 439 -78 427 -132 c 1,43,-1
 619 -132 l 1,44,-1
 657 -295 l 1,45,46
 640 -321 640 -321 610 -347 c 128,-1,47
 580 -373 580 -373 544.5 -393 c 128,-1,48
 509 -413 509 -413 471.5 -425.5 c 128,-1,49
 434 -438 434 -438 401 -438 c 0,50,51
 362 -438 362 -438 320.5 -419 c 128,-1,52
 279 -400 279 -400 246 -377 c 0,53,54
 227 -364 227 -364 211 -351.5 c 128,-1,55
 195 -339 195 -339 183.5 -322.5 c 128,-1,56
 172 -306 172 -306 165 -283.5 c 128,-1,57
 158 -261 158 -261 157 -227 c 2,58,-1
 131 512 l 1,0,1
452 320 m 1,59,60
 473 302 473 302 502.5 286 c 128,-1,61
 532 270 532 270 563 258 c 128,-1,62
 594 246 594 246 622 238 c 128,-1,63
 650 230 650 230 668 229 c 1,64,65
 672 267 672 267 675.5 313.5 c 128,-1,66
 679 360 679 360 682.5 410.5 c 128,-1,67
 686 461 686 461 689 512.5 c 128,-1,68
 692 564 692 564 694 612.5 c 128,-1,69
 696 661 696 661 697 703 c 128,-1,70
 698 745 698 745 699 777 c 1,71,-1
 672 785 l 1,72,73
 658 755 658 755 638 714.5 c 128,-1,74
 618 674 618 674 596.5 629 c 128,-1,75
 575 584 575 584 552.5 537 c 128,-1,76
 530 490 530 490 510.5 448 c 128,-1,77
 491 406 491 406 475.5 372.5 c 128,-1,78
 460 339 460 339 452 320 c 1,59,60
EndSplineSet
EndChar

StartChar: l
Encoding: 108 108 21
Width: 626
Flags: W
LayerCount: 2
Fore
SplineSet
105 138 m 0,0,1
 90 155 90 155 81 180.5 c 128,-1,2
 72 206 72 206 80 249 c 2,3,-1
 149 606 l 1,4,5
 134 685 134 685 119.5 777 c 128,-1,6
 105 869 105 869 92 962.5 c 128,-1,7
 79 1056 79 1056 68.5 1143.5 c 128,-1,8
 58 1231 58 1231 50.5 1300 c 128,-1,9
 43 1369 43 1369 39.5 1414 c 128,-1,10
 36 1459 36 1459 37 1466 c 1,11,12
 61 1496 61 1496 96 1523 c 128,-1,13
 131 1550 131 1550 172.5 1569.5 c 128,-1,14
 214 1589 214 1589 259.5 1601 c 128,-1,15
 305 1613 305 1613 350 1613 c 1,16,17
 393 1614 393 1614 433 1603 c 128,-1,18
 473 1592 473 1592 505 1566 c 1,19,20
 501 1447 501 1447 493.5 1322 c 128,-1,21
 486 1197 486 1197 475 1048.5 c 128,-1,22
 464 900 464 900 447.5 720.5 c 128,-1,23
 431 541 431 541 409 314 c 1,24,-1
 552 381 l 1,25,-1
 632 254 l 1,26,27
 618 210 618 210 590 162 c 128,-1,28
 562 114 562 114 525.5 73.5 c 128,-1,29
 489 33 489 33 444.5 6.5 c 128,-1,30
 400 -20 400 -20 353 -20 c 0,31,32
 318 -20 318 -20 283.5 -5 c 128,-1,33
 249 10 249 10 216.5 33 c 128,-1,34
 184 56 184 56 155.5 84 c 128,-1,35
 127 112 127 112 105 138 c 0,0,1
EndSplineSet
EndChar

StartChar: c
Encoding: 99 99 22
Width: 902
Flags: W
LayerCount: 2
Fore
SplineSet
167 127 m 0,0,1
 135 154 135 154 124 172.5 c 128,-1,2
 113 191 113 191 112.5 210.5 c 128,-1,3
 112 230 112 230 116.5 255 c 128,-1,4
 121 280 121 280 121 319 c 0,5,6
 121 388 121 388 117 467 c 128,-1,7
 113 546 113 546 105.5 621 c 128,-1,8
 98 696 98 696 87 761 c 128,-1,9
 76 826 76 826 61 869 c 0,10,11
 54 890 54 890 49.5 905 c 128,-1,12
 45 920 45 920 45 930 c 0,13,14
 45 951 45 951 65.5 978 c 128,-1,15
 86 1005 86 1005 115 1031 c 128,-1,16
 144 1057 144 1057 174 1078.5 c 128,-1,17
 204 1100 204 1100 224 1112 c 0,18,19
 243 1124 243 1124 274 1139.5 c 128,-1,20
 305 1155 305 1155 338.5 1169.5 c 128,-1,21
 372 1184 372 1184 404.5 1194 c 128,-1,22
 437 1204 437 1204 461 1204 c 0,23,24
 483 1204 483 1204 515 1192 c 128,-1,25
 547 1180 547 1180 580 1164 c 128,-1,26
 613 1148 613 1148 642.5 1132 c 128,-1,27
 672 1116 672 1116 691 1107 c 1,28,-1
 877 1059 l 1,29,30
 886 1001 886 1001 879.5 948 c 128,-1,31
 873 895 873 895 857 849 c 128,-1,32
 841 803 841 803 818.5 765 c 128,-1,33
 796 727 796 727 773 699 c 128,-1,34
 750 671 750 671 729.5 654 c 128,-1,35
 709 637 709 637 696 633 c 1,36,37
 658 655 658 655 625 686 c 128,-1,38
 592 717 592 717 563.5 751.5 c 128,-1,39
 535 786 535 786 510 821.5 c 128,-1,40
 485 857 485 857 462 889 c 1,41,42
 468 835 468 835 470 761 c 128,-1,43
 472 687 472 687 469 606.5 c 128,-1,44
 466 526 466 526 458 446 c 128,-1,45
 450 366 450 366 436 300 c 1,46,-1
 455 284 l 1,47,48
 473 291 473 291 509 308.5 c 128,-1,49
 545 326 545 326 590 348.5 c 128,-1,50
 635 371 635 371 683 395.5 c 128,-1,51
 731 420 731 420 773 443 c 1,52,-1
 874 290 l 1,53,54
 862 268 862 268 835.5 237 c 128,-1,55
 809 206 809 206 772 171.5 c 128,-1,56
 735 137 735 137 691 103 c 128,-1,57
 647 69 647 69 601.5 41.5 c 128,-1,58
 556 14 556 14 510.5 -3 c 128,-1,59
 465 -20 465 -20 426 -20 c 0,60,61
 404 -20 404 -20 378 -10.5 c 128,-1,62
 352 -1 352 -1 325.5 13.5 c 128,-1,63
 299 28 299 28 273.5 45.5 c 128,-1,64
 248 63 248 63 226.5 79 c 128,-1,65
 205 95 205 95 189.5 108 c 128,-1,66
 174 121 174 121 167 127 c 0,0,1
EndSplineSet
EndChar

StartChar: k
Encoding: 107 107 23
Width: 1112
Flags: W
LayerCount: 2
Fore
SplineSet
88 105 m 1,0,1
 90 178 90 178 97.5 252.5 c 128,-1,2
 105 327 105 327 116 398.5 c 128,-1,3
 127 470 127 470 142 537 c 128,-1,4
 157 604 157 604 174 662 c 1,5,6
 142 767 142 767 117.5 861 c 128,-1,7
 93 955 93 955 73 1049.5 c 128,-1,8
 53 1144 53 1144 35 1245.5 c 128,-1,9
 17 1347 17 1347 -2 1466 c 1,10,11
 22 1496 22 1496 58.5 1523 c 128,-1,12
 95 1550 95 1550 138 1569.5 c 128,-1,13
 181 1589 181 1589 228.5 1601 c 128,-1,14
 276 1613 276 1613 322 1613 c 1,15,16
 367 1614 367 1614 407 1603 c 128,-1,17
 447 1592 447 1592 480 1566 c 1,18,19
 484 1478 484 1478 482 1371 c 128,-1,20
 480 1264 480 1264 474 1147.5 c 128,-1,21
 468 1031 468 1031 458.5 910.5 c 128,-1,22
 449 790 449 790 438 674.5 c 128,-1,23
 427 559 427 559 415 454 c 128,-1,24
 403 349 403 349 391 265 c 1,25,-1
 402 260 l 1,26,27
 472 377 472 377 533.5 506 c 128,-1,28
 595 635 595 635 647 760 c 1,29,30
 601 798 601 798 563 848 c 128,-1,31
 525 898 525 898 496 965 c 1,32,33
 520 1014 520 1014 561.5 1057 c 128,-1,34
 603 1100 603 1100 653.5 1132 c 128,-1,35
 704 1164 704 1164 758.5 1183 c 128,-1,36
 813 1202 813 1202 861 1204 c 1,37,38
 895 1172 895 1172 926 1125 c 128,-1,39
 957 1078 957 1078 980.5 1024 c 128,-1,40
 1004 970 1004 970 1017.5 914 c 128,-1,41
 1031 858 1031 858 1031 807 c 1,42,43
 1017 783 1017 783 993 745.5 c 128,-1,44
 969 708 969 708 936 662 c 128,-1,45
 903 616 903 616 863 564 c 128,-1,46
 823 512 823 512 778 460 c 1,47,48
 785 449 785 449 797.5 434 c 128,-1,49
 810 419 810 419 824 403.5 c 128,-1,50
 838 388 838 388 852.5 372.5 c 128,-1,51
 867 357 867 357 879 345 c 1,52,53
 938 375 938 375 997 438 c 1,54,-1
 1115 347 l 1,55,56
 1115 308 1115 308 1113 277 c 128,-1,57
 1111 246 1111 246 1106.5 219.5 c 128,-1,58
 1102 193 1102 193 1094 168.5 c 128,-1,59
 1086 144 1086 144 1074 117 c 0,60,61
 1041 45 1041 45 987 12 c 128,-1,62
 933 -21 933 -21 867 -20 c 0,63,64
 820 -20 820 -20 766 -3 c 0,65,66
 731 8 731 8 702.5 33 c 128,-1,67
 674 58 674 58 652 92.5 c 128,-1,68
 630 127 630 127 613.5 167.5 c 128,-1,69
 597 208 597 208 585 250 c 1,70,71
 513 173 513 173 444.5 102.5 c 128,-1,72
 376 32 376 32 298 -20 c 1,73,74
 282 -18 282 -18 253.5 -6.5 c 128,-1,75
 225 5 225 5 194 22 c 128,-1,76
 163 39 163 39 134 60.5 c 128,-1,77
 105 82 105 82 88 105 c 1,0,1
EndSplineSet
EndChar

StartChar: r
Encoding: 114 114 24
Width: 1027
Flags: W
LayerCount: 2
Fore
SplineSet
197 28 m 0,0,1
 186 38 186 38 165.5 63.5 c 128,-1,2
 145 89 145 89 128 121.5 c 128,-1,3
 111 154 111 154 102.5 189.5 c 128,-1,4
 94 225 94 225 107 257 c 2,5,-1
 187 455 l 1,6,-1
 8 1063 l 1,7,8
 28 1092 28 1092 56 1114 c 128,-1,9
 84 1136 84 1136 117.5 1150.5 c 128,-1,10
 151 1165 151 1165 188 1172.5 c 128,-1,11
 225 1180 225 1180 263 1180 c 256,12,13
 301 1180 301 1180 338.5 1172.5 c 128,-1,14
 376 1165 376 1165 408 1149 c 1,15,-1
 401 547 l 1,16,-1
 412 545 l 1,17,18
 419 575 419 575 426.5 622.5 c 128,-1,19
 434 670 434 670 443.5 726.5 c 128,-1,20
 453 783 453 783 464 845 c 128,-1,21
 475 907 475 907 487.5 965.5 c 128,-1,22
 500 1024 500 1024 515 1076 c 128,-1,23
 530 1128 530 1128 547 1166 c 1,24,25
 579 1174 579 1174 610.5 1177 c 128,-1,26
 642 1180 642 1180 671 1180 c 0,27,28
 722 1180 722 1180 767.5 1172.5 c 128,-1,29
 813 1165 813 1165 851 1152.5 c 128,-1,30
 889 1140 889 1140 919 1125 c 128,-1,31
 949 1110 949 1110 970 1096 c 1,32,33
 980 1022 980 1022 978 941 c 128,-1,34
 976 860 976 860 967 782 c 128,-1,35
 958 704 958 704 944 635 c 128,-1,36
 930 566 930 566 918 517 c 1,37,38
 882 497 882 497 848 487.5 c 128,-1,39
 814 478 814 478 780.5 476 c 128,-1,40
 747 474 747 474 714 478 c 128,-1,41
 681 482 681 482 648 490 c 1,42,43
 648 513 648 513 648.5 550.5 c 128,-1,44
 649 588 649 588 649 630 c 128,-1,45
 649 672 649 672 649 714 c 128,-1,46
 649 756 649 756 648 788 c 1,47,-1
 599 796 l 1,48,49
 584 751 584 751 566 689 c 128,-1,50
 548 627 548 627 529 557.5 c 128,-1,51
 510 488 510 488 491 414.5 c 128,-1,52
 472 341 472 341 454 274 c 1,53,-1
 637 298 l 1,54,-1
 694 164 l 1,55,56
 664 116 664 116 627 81 c 128,-1,57
 590 46 590 46 548.5 23.5 c 128,-1,58
 507 1 507 1 461.5 -9.5 c 128,-1,59
 416 -20 416 -20 369 -20 c 0,60,61
 321 -20 321 -20 275 -11 c 128,-1,62
 229 -2 229 -2 197 28 c 0,0,1
EndSplineSet
EndChar

StartChar: u
Encoding: 117 117 25
Width: 1164
Flags: W
LayerCount: 2
Fore
SplineSet
162 573 m 1,0,-1
 7 1004 l 1,1,2
 28 1055 28 1055 68 1091 c 128,-1,3
 108 1127 108 1127 156.5 1149 c 128,-1,4
 205 1171 205 1171 257.5 1181 c 128,-1,5
 310 1191 310 1191 356 1191 c 0,6,7
 424 1191 424 1191 460 1174 c 1,8,9
 465 1118 465 1118 467.5 1057 c 128,-1,10
 470 996 470 996 470 931 c 0,11,12
 470 784 470 784 459 647.5 c 128,-1,13
 448 511 448 511 419 375 c 1,14,-1
 449 361 l 1,15,16
 468 379 468 379 489.5 411 c 128,-1,17
 511 443 511 443 533 481.5 c 128,-1,18
 555 520 555 520 576 562 c 128,-1,19
 597 604 597 604 614.5 642.5 c 128,-1,20
 632 681 632 681 644.5 713 c 128,-1,21
 657 745 657 745 662 764 c 1,22,23
 653 871 653 871 647.5 941 c 128,-1,24
 642 1011 642 1011 638.5 1054.5 c 128,-1,25
 635 1098 635 1098 634 1120 c 128,-1,26
 633 1142 633 1142 633 1154 c 1,27,28
 649 1165 649 1165 696 1173.5 c 128,-1,29
 743 1182 743 1182 801 1182 c 0,30,31
 893 1182 893 1182 958.5 1153 c 128,-1,32
 1024 1124 1024 1124 1078 1061 c 1,33,-1
 1078 1050 l 2,34,35
 1078 1026 1078 1026 1072 977.5 c 128,-1,36
 1066 929 1066 929 1054.5 865.5 c 128,-1,37
 1043 802 1043 802 1027 727.5 c 128,-1,38
 1011 653 1011 653 992 578.5 c 128,-1,39
 973 504 973 504 951 434 c 128,-1,40
 929 364 929 364 906 308 c 1,41,-1
 1079 400 l 1,42,-1
 1164 279 l 1,43,44
 1138 219 1138 219 1106.5 165 c 128,-1,45
 1075 111 1075 111 1039 70 c 128,-1,46
 1003 29 1003 29 962.5 4.5 c 128,-1,47
 922 -20 922 -20 879 -20 c 0,48,49
 831 -20 831 -20 778.5 7.5 c 128,-1,50
 726 35 726 35 684 80 c 0,51,52
 676 89 676 89 666.5 98.5 c 128,-1,53
 657 108 657 108 649.5 120.5 c 128,-1,54
 642 133 642 133 637 150.5 c 128,-1,55
 632 168 632 168 632 193 c 0,56,57
 632 200 632 200 632.5 206.5 c 128,-1,58
 633 213 633 213 634 221 c 0,59,60
 638 259 638 259 641.5 293 c 128,-1,61
 645 327 645 327 649.5 359.5 c 128,-1,62
 654 392 654 392 658.5 424 c 128,-1,63
 663 456 663 456 668 490 c 1,64,-1
 653 497 l 1,65,66
 636 454 636 454 612.5 399 c 128,-1,67
 589 344 589 344 562 286.5 c 128,-1,68
 535 229 535 229 505 174 c 128,-1,69
 475 119 475 119 444.5 76 c 128,-1,70
 414 33 414 33 384 6.5 c 128,-1,71
 354 -20 354 -20 327 -20 c 0,72,73
 299 -20 299 -20 273 -5.5 c 128,-1,74
 247 9 247 9 217 31 c 0,75,76
 199 44 199 44 175 58.5 c 128,-1,77
 151 73 151 73 129.5 89.5 c 128,-1,78
 108 106 108 106 93 124 c 128,-1,79
 78 142 78 142 78 162 c 1,80,-1
 162 573 l 1,0,-1
EndSplineSet
EndChar

StartChar: q
Encoding: 113 113 26
Width: 1134
Flags: W
LayerCount: 2
Fore
SplineSet
116 147 m 0,0,1
 116 157 116 157 117 178 c 128,-1,2
 118 199 118 199 119 223.5 c 128,-1,3
 120 248 120 248 121 274 c 128,-1,4
 122 300 122 300 122 320 c 0,5,6
 122 379 122 379 118 454.5 c 128,-1,7
 114 530 114 530 106 608 c 128,-1,8
 98 686 98 686 85.5 761 c 128,-1,9
 73 836 73 836 56 895 c 0,10,11
 50 915 50 915 47.5 927.5 c 128,-1,12
 45 940 45 940 45 950 c 0,13,14
 45 962 45 962 51 974 c 128,-1,15
 57 986 57 986 71 1005 c 0,16,17
 102 1044 102 1044 138.5 1073.5 c 128,-1,18
 175 1103 175 1103 212 1124 c 128,-1,19
 249 1145 249 1145 285 1158.5 c 128,-1,20
 321 1172 321 1172 351.5 1180.5 c 128,-1,21
 382 1189 382 1189 404 1193 c 128,-1,22
 426 1197 426 1197 436 1198 c 1,23,24
 476 1170 476 1170 509 1136 c 128,-1,25
 542 1102 542 1102 570.5 1064 c 128,-1,26
 599 1026 599 1026 623.5 986.5 c 128,-1,27
 648 947 648 947 671 908 c 1,28,29
 670 952 670 952 669 991.5 c 128,-1,30
 668 1031 668 1031 666.5 1063 c 128,-1,31
 665 1095 665 1095 664 1118.5 c 128,-1,32
 663 1142 663 1142 663 1154 c 1,33,34
 679 1165 679 1165 726 1173.5 c 128,-1,35
 773 1182 773 1182 831 1182 c 0,36,37
 923 1182 923 1182 988.5 1153 c 128,-1,38
 1054 1124 1054 1124 1108 1061 c 1,39,40
 1110 1045 1110 1045 1105 999.5 c 128,-1,41
 1100 954 1100 954 1089.5 890.5 c 128,-1,42
 1079 827 1079 827 1063 751 c 128,-1,43
 1047 675 1047 675 1027.5 597 c 128,-1,44
 1008 519 1008 519 985 445.5 c 128,-1,45
 962 372 962 372 938 313 c 1,46,-1
 994 -97 l 1,47,-1
 1118 -27 l 1,48,-1
 1206 -127 l 1,49,50
 1178 -202 1178 -202 1144.5 -267.5 c 128,-1,51
 1111 -333 1111 -333 1068 -376 c 0,52,53
 1037 -408 1037 -408 1008 -422.5 c 128,-1,54
 979 -437 979 -437 950 -438 c 0,55,56
 890 -440 890 -440 835 -418 c 128,-1,57
 780 -396 780 -396 729 -360 c 0,58,59
 684 -328 684 -328 662 -292 c 128,-1,60
 640 -256 640 -256 645 -208 c 1,61,-1
 703 495 l 1,62,-1
 683 497 l 1,63,64
 669 462 669 462 650.5 417.5 c 128,-1,65
 632 373 632 373 610 325 c 128,-1,66
 588 277 588 277 563.5 229 c 128,-1,67
 539 181 539 181 513.5 138 c 128,-1,68
 488 95 488 95 462.5 60 c 128,-1,69
 437 25 437 25 413 5 c 0,70,71
 384 -19 384 -19 357 -20 c 0,72,73
 330 -22 330 -22 303 -6 c 128,-1,74
 276 10 276 10 247 31 c 0,75,76
 229 44 229 44 206 56.5 c 128,-1,77
 183 69 183 69 163 82.5 c 128,-1,78
 143 96 143 96 129.5 111.5 c 128,-1,79
 116 127 116 127 116 147 c 0,0,1
450 339 m 1,80,81
 469 357 469 357 490 385.5 c 128,-1,82
 511 414 511 414 533 448 c 128,-1,83
 555 482 555 482 576 518 c 128,-1,84
 597 554 597 554 615 587 c 128,-1,85
 633 620 633 620 647.5 648 c 128,-1,86
 662 676 662 676 670 694 c 1,87,88
 671 709 671 709 671.5 711.5 c 128,-1,89
 672 714 672 714 672 717.5 c 128,-1,90
 672 721 672 721 672 731.5 c 128,-1,91
 672 742 672 742 672 774 c 1,92,93
 612 789 612 789 561 799 c 128,-1,94
 510 809 510 809 462 820 c 1,95,-1
 462 713 l 2,96,97
 462 621 462 621 451 532.5 c 128,-1,98
 440 444 440 444 420 353 c 1,99,-1
 450 339 l 1,80,81
EndSplineSet
EndChar

StartChar: t
Encoding: 116 116 27
Width: 827
Flags: W
LayerCount: 2
Fore
SplineSet
127 240 m 0,0,1
 127 249 127 249 129 264.5 c 128,-1,2
 131 280 131 280 138 308.5 c 128,-1,3
 145 337 145 337 158 382 c 128,-1,4
 171 427 171 427 192 496 c 1,5,-1
 142 854 l 1,6,-1
 46 860 l 1,7,8
 38 880 38 880 34 905 c 128,-1,9
 30 930 30 930 27.5 955 c 128,-1,10
 25 980 25 980 25 1001.5 c 128,-1,11
 25 1023 25 1023 26 1037 c 1,12,-1
 138 1076 l 1,13,-1
 199 1439 l 1,14,15
 217 1448 217 1448 253 1453.5 c 128,-1,16
 289 1459 289 1459 332.5 1457.5 c 128,-1,17
 376 1456 376 1456 421.5 1446.5 c 128,-1,18
 467 1437 467 1437 503 1418 c 1,19,-1
 492 1137 l 1,20,-1
 714 1182 l 1,21,22
 744 1130 744 1130 751 1080.5 c 128,-1,23
 758 1031 758 1031 752.5 988 c 128,-1,24
 747 945 747 945 735 910.5 c 128,-1,25
 723 876 723 876 715 855 c 1,26,27
 692 853 692 853 663.5 851 c 128,-1,28
 635 849 635 849 604.5 847 c 128,-1,29
 574 845 574 845 542.5 843.5 c 128,-1,30
 511 842 511 842 482 841 c 1,31,-1
 484 312 l 1,32,-1
 700 490 l 1,33,-1
 827 349 l 1,34,35
 817 325 817 325 795.5 288 c 128,-1,36
 774 251 774 251 744 210 c 128,-1,37
 714 169 714 169 678.5 128 c 128,-1,38
 643 87 643 87 605 54 c 128,-1,39
 567 21 567 21 530 0.5 c 128,-1,40
 493 -20 493 -20 460 -20 c 0,41,42
 429 -20 429 -20 393 -9.5 c 128,-1,43
 357 1 357 1 320.5 20 c 128,-1,44
 284 39 284 39 249.5 64 c 128,-1,45
 215 89 215 89 188 118 c 128,-1,46
 161 147 161 147 144.5 178 c 128,-1,47
 128 209 128 209 127 240 c 0,0,1
EndSplineSet
EndChar

StartChar: f
Encoding: 102 102 28
Width: 744
Flags: W
LayerCount: 2
Fore
SplineSet
201 -143 m 1,0,1
 190 -31 190 -31 172.5 104 c 128,-1,2
 155 239 155 239 135 379.5 c 128,-1,3
 115 520 115 520 94.5 658.5 c 128,-1,4
 74 797 74 797 57 915.5 c 128,-1,5
 40 1034 40 1034 29.5 1125 c 128,-1,6
 19 1216 19 1216 19 1262 c 1,7,8
 25 1276 25 1276 46.5 1318.5 c 128,-1,9
 68 1361 68 1361 109.5 1413.5 c 128,-1,10
 151 1466 151 1466 216.5 1520 c 128,-1,11
 282 1574 282 1574 377 1613 c 1,12,13
 438 1599 438 1599 489 1588.5 c 128,-1,14
 540 1578 540 1578 585 1572 c 128,-1,15
 630 1566 630 1566 671 1565 c 128,-1,16
 712 1564 712 1564 752 1568 c 1,17,18
 766 1540 766 1540 763 1493 c 128,-1,19
 760 1446 760 1446 746 1395.5 c 128,-1,20
 732 1345 732 1345 709 1299 c 128,-1,21
 686 1253 686 1253 660 1229 c 1,22,23
 595 1233 595 1233 553 1247 c 128,-1,24
 511 1261 511 1261 483 1280 c 128,-1,25
 455 1299 455 1299 438 1321.5 c 128,-1,26
 421 1344 421 1344 405 1366 c 1,27,-1
 425 1021 l 1,28,-1
 685 1098 l 1,29,30
 709 1061 709 1061 712.5 1006 c 128,-1,31
 716 951 716 951 708 895.5 c 128,-1,32
 700 840 700 840 685.5 794.5 c 128,-1,33
 671 749 671 749 659 731 c 1,34,35
 628 730 628 730 596.5 736 c 128,-1,36
 565 742 565 742 536.5 751.5 c 128,-1,37
 508 761 508 761 484 772 c 128,-1,38
 460 783 460 783 443 792 c 1,39,40
 450 657 450 657 456.5 517 c 128,-1,41
 463 377 463 377 467 245 c 128,-1,42
 471 113 471 113 472 -5 c 128,-1,43
 473 -123 473 -123 469 -214 c 1,44,45
 462 -257 462 -257 432 -296 c 128,-1,46
 402 -335 402 -335 361 -366 c 128,-1,47
 320 -397 320 -397 272 -416 c 128,-1,48
 224 -435 224 -435 181 -438 c 1,49,50
 136 -430 136 -430 101.5 -412 c 128,-1,51
 67 -394 67 -394 40.5 -372 c 128,-1,52
 14 -350 14 -350 -5 -327.5 c 128,-1,53
 -24 -305 -24 -305 -36 -288 c 1,54,55
 -37 -260 -37 -260 -34.5 -237 c 128,-1,56
 -32 -214 -32 -214 -27.5 -194 c 128,-1,57
 -23 -174 -23 -174 -16.5 -154.5 c 128,-1,58
 -10 -135 -10 -135 -2 -112 c 1,59,-1
 201 -143 l 1,0,1
EndSplineSet
EndChar

StartChar: m
Encoding: 109 109 29
Width: 1704
Flags: W
LayerCount: 2
Fore
SplineSet
89 69 m 1,0,1
 100 129 100 129 108 167.5 c 128,-1,2
 116 206 116 206 123.5 236.5 c 128,-1,3
 131 267 131 267 139 296.5 c 128,-1,4
 147 326 147 326 159 368 c 1,5,6
 144 402 144 402 126.5 464 c 128,-1,7
 109 526 109 526 91.5 600 c 128,-1,8
 74 674 74 674 58.5 752 c 128,-1,9
 43 830 43 830 31 895.5 c 128,-1,10
 19 961 19 961 13 1006.5 c 128,-1,11
 7 1052 7 1052 9 1061 c 1,12,13
 27 1091 27 1091 61 1114.5 c 128,-1,14
 95 1138 95 1138 136.5 1153.5 c 128,-1,15
 178 1169 178 1169 223 1177.5 c 128,-1,16
 268 1186 268 1186 309 1186 c 0,17,18
 356 1186 356 1186 393.5 1176 c 128,-1,19
 431 1166 431 1166 455 1145 c 1,20,-1
 382 517 l 1,21,-1
 408 514 l 1,22,-1
 573 1170 l 1,23,24
 608 1184 608 1184 647 1183.5 c 128,-1,25
 686 1183 686 1183 729 1183 c 0,26,27
 757 1183 757 1183 790.5 1178.5 c 128,-1,28
 824 1174 824 1174 860 1164.5 c 128,-1,29
 896 1155 896 1155 932.5 1140.5 c 128,-1,30
 969 1126 969 1126 1001 1106 c 1,31,32
 1006 1034 1006 1034 1001.5 968 c 128,-1,33
 997 902 997 902 986 835.5 c 128,-1,34
 975 769 975 769 960.5 698.5 c 128,-1,35
 946 628 946 628 932 549 c 1,36,-1
 961 543 l 1,37,-1
 1151 1166 l 1,38,39
 1167 1171 1167 1171 1189 1176.5 c 128,-1,40
 1211 1182 1211 1182 1254 1183 c 0,41,42
 1281 1183 1281 1183 1322.5 1179 c 128,-1,43
 1364 1175 1364 1175 1412.5 1162 c 128,-1,44
 1461 1149 1461 1149 1513.5 1124 c 128,-1,45
 1566 1099 1566 1099 1616 1059 c 1,46,47
 1613 995 1613 995 1604.5 914 c 128,-1,48
 1596 833 1596 833 1577 737.5 c 128,-1,49
 1558 642 1558 642 1528.5 535 c 128,-1,50
 1499 428 1499 428 1454 311 c 1,51,-1
 1624 400 l 1,52,-1
 1713 279 l 1,53,54
 1697 231 1697 231 1668 178.5 c 128,-1,55
 1639 126 1639 126 1602.5 81.5 c 128,-1,56
 1566 37 1566 37 1523.5 8.5 c 128,-1,57
 1481 -20 1481 -20 1438 -20 c 0,58,59
 1414 -20 1414 -20 1388.5 -13 c 128,-1,60
 1363 -6 1363 -6 1338 6.5 c 128,-1,61
 1313 19 1313 19 1289.5 35.5 c 128,-1,62
 1266 52 1266 52 1248 72 c 0,63,64
 1213 109 1213 109 1198 142.5 c 128,-1,65
 1183 176 1183 176 1186 224 c 0,66,67
 1194 370 1194 370 1203.5 504.5 c 128,-1,68
 1213 639 1213 639 1224 764 c 1,69,-1
 1200 769 l 1,70,71
 1174 719 1174 719 1142 661 c 128,-1,72
 1110 603 1110 603 1079 547 c 128,-1,73
 1048 491 1048 491 1022.5 442.5 c 128,-1,74
 997 394 997 394 984 363 c 1,75,76
 1000 315 1000 315 1010.5 274.5 c 128,-1,77
 1021 234 1021 234 1027 195 c 128,-1,78
 1033 156 1033 156 1036.5 116.5 c 128,-1,79
 1040 77 1040 77 1043 31 c 1,80,81
 1008 5 1008 5 962 -7.5 c 128,-1,82
 916 -20 916 -20 867 -20 c 0,83,84
 833 -20 833 -20 799.5 -14 c 128,-1,85
 766 -8 766 -8 735.5 3 c 128,-1,86
 705 14 705 14 680 29.5 c 128,-1,87
 655 45 655 45 637 65 c 1,88,89
 643 134 643 134 651.5 178 c 128,-1,90
 660 222 660 222 668 254 c 128,-1,91
 676 286 676 286 684 311 c 128,-1,92
 692 336 692 336 698 366 c 1,93,-1
 667 774 l 1,94,-1
 643 778 l 1,95,96
 630 751 630 751 612.5 715 c 128,-1,97
 595 679 595 679 576 639.5 c 128,-1,98
 557 600 557 600 537.5 559.5 c 128,-1,99
 518 519 518 519 500 481.5 c 128,-1,100
 482 444 482 444 467 412.5 c 128,-1,101
 452 381 452 381 443 360 c 1,102,103
 468 287 468 287 492 207 c 128,-1,104
 516 127 516 127 527 27 c 1,105,106
 494 3 494 3 447.5 -8.5 c 128,-1,107
 401 -20 401 -20 350 -20 c 0,108,109
 311 -20 311 -20 272.5 -14 c 128,-1,110
 234 -8 234 -8 199.5 3.5 c 128,-1,111
 165 15 165 15 136.5 31.5 c 128,-1,112
 108 48 108 48 89 69 c 1,0,1
EndSplineSet
EndChar

StartChar: b
Encoding: 98 98 30
Width: 1140
Flags: W
LayerCount: 2
Fore
SplineSet
167 77 m 0,0,1
 153 84 153 84 144.5 90 c 128,-1,2
 136 96 136 96 131.5 105 c 128,-1,3
 127 114 127 114 127.5 127.5 c 128,-1,4
 128 141 128 141 133 163 c 0,5,6
 139 190 139 190 144.5 213 c 128,-1,7
 150 236 150 236 156 259 c 128,-1,8
 162 282 162 282 168.5 308 c 128,-1,9
 175 334 175 334 184 368 c 1,10,-1
 182 368 l 1,11,12
 182 369 182 369 182.5 369 c 128,-1,13
 183 369 183 369 183 370 c 0,14,15
 173 392 173 392 161 449.5 c 128,-1,16
 149 507 149 507 137 586 c 128,-1,17
 125 665 125 665 113.5 759 c 128,-1,18
 102 853 102 853 91.5 948.5 c 128,-1,19
 81 1044 81 1044 72 1134 c 128,-1,20
 63 1224 63 1224 57 1295.5 c 128,-1,21
 51 1367 51 1367 48.5 1413 c 128,-1,22
 46 1459 46 1459 48 1466 c 1,23,24
 73 1497 73 1497 109.5 1523.5 c 128,-1,25
 146 1550 146 1550 189 1570 c 128,-1,26
 232 1590 232 1590 279 1601.5 c 128,-1,27
 326 1613 326 1613 371 1613 c 0,28,29
 414 1613 414 1613 452.5 1602.5 c 128,-1,30
 491 1592 491 1592 523 1566 c 1,31,32
 516 1440 516 1440 503 1311 c 128,-1,33
 490 1182 490 1182 473.5 1051 c 128,-1,34
 457 920 457 920 438.5 787 c 128,-1,35
 420 654 420 654 404 521 c 1,36,-1
 414 517 l 1,37,-1
 636 1165 l 1,38,39
 652 1170 652 1170 677 1175.5 c 128,-1,40
 702 1181 702 1181 746 1182 c 0,41,42
 774 1182 774 1182 817 1174 c 128,-1,43
 860 1166 860 1166 908.5 1148.5 c 128,-1,44
 957 1131 957 1131 1008 1103.5 c 128,-1,45
 1059 1076 1059 1076 1104 1038 c 1,46,47
 1102 960 1102 960 1093.5 871 c 128,-1,48
 1085 782 1085 782 1071 688.5 c 128,-1,49
 1057 595 1057 595 1038.5 501.5 c 128,-1,50
 1020 408 1020 408 999.5 321 c 128,-1,51
 979 234 979 234 957.5 158 c 128,-1,52
 936 82 936 82 915 23 c 1,53,54
 898 11 898 11 870 3 c 128,-1,55
 842 -5 842 -5 809 -10 c 128,-1,56
 776 -15 776 -15 741 -17.5 c 128,-1,57
 706 -20 706 -20 676 -20 c 0,58,59
 623 -21 623 -21 556 -16 c 128,-1,60
 489 -11 489 -11 419 0.5 c 128,-1,61
 349 12 349 12 283 31 c 128,-1,62
 217 50 217 50 167 77 c 0,0,1
457 300 m 1,63,64
 477 282 477 282 506.5 267 c 128,-1,65
 536 252 536 252 567 241 c 128,-1,66
 598 230 598 230 626 223 c 128,-1,67
 654 216 654 216 671 215 c 1,68,69
 677 272 677 272 684 349 c 128,-1,70
 691 426 691 426 697 505.5 c 128,-1,71
 703 585 703 585 707 657.5 c 128,-1,72
 711 730 711 730 712 777 c 1,73,-1
 685 785 l 1,74,75
 671 756 671 756 650.5 713.5 c 128,-1,76
 630 671 630 671 607.5 623.5 c 128,-1,77
 585 576 585 576 561.5 526.5 c 128,-1,78
 538 477 538 477 517.5 433 c 128,-1,79
 497 389 497 389 481 354 c 128,-1,80
 465 319 465 319 457 300 c 1,63,64
EndSplineSet
EndChar

StartChar: T
Encoding: 84 84 31
Width: 1103
Flags: W
LayerCount: 2
Fore
SplineSet
412 227 m 0,0,1
 408 271 408 271 412.5 314 c 128,-1,2
 417 357 417 357 425.5 400.5 c 128,-1,3
 434 444 434 444 444 488.5 c 128,-1,4
 454 533 454 533 462 580 c 1,5,-1
 464 580 l 1,6,-1
 404 1219 l 1,7,-1
 293 1247 l 1,8,-1
 252 966 l 1,9,10
 192 946 192 946 135.5 943.5 c 128,-1,11
 79 941 79 941 19 967 c 1,12,13
 6 1006 6 1006 -8 1062.5 c 128,-1,14
 -22 1119 -22 1119 -29.5 1179.5 c 128,-1,15
 -37 1240 -37 1240 -33.5 1297 c 128,-1,16
 -30 1354 -30 1354 -8 1393 c 1,17,18
 19 1426 19 1426 53 1453 c 128,-1,19
 87 1480 87 1480 125 1500 c 128,-1,20
 163 1520 163 1520 201.5 1533 c 128,-1,21
 240 1546 240 1546 276 1549 c 1,22,-1
 715 1438 l 1,23,-1
 1063 1549 l 1,24,25
 1096 1532 1096 1532 1117.5 1497 c 128,-1,26
 1139 1462 1139 1462 1149 1418 c 128,-1,27
 1159 1374 1159 1374 1157.5 1324.5 c 128,-1,28
 1156 1275 1156 1275 1144 1229 c 128,-1,29
 1132 1183 1132 1183 1109.5 1144.5 c 128,-1,30
 1087 1106 1087 1106 1054 1084 c 1,31,32
 1032 1084 1032 1084 1001 1088.5 c 128,-1,33
 970 1093 970 1093 936.5 1101.5 c 128,-1,34
 903 1110 903 1110 869.5 1121 c 128,-1,35
 836 1132 836 1132 809 1145 c 1,36,-1
 749 584 l 1,37,-1
 758 314 l 1,38,-1
 978 415 l 1,39,-1
 1056 283 l 1,40,41
 1051 260 1051 260 1035.5 228 c 128,-1,42
 1020 196 1020 196 997 162.5 c 128,-1,43
 974 129 974 129 945.5 96 c 128,-1,44
 917 63 917 63 885 37 c 128,-1,45
 853 11 853 11 819.5 -5 c 128,-1,46
 786 -21 786 -21 753 -21 c 0,47,48
 700 -21 700 -21 642 -4 c 128,-1,49
 584 13 584 13 534.5 45 c 128,-1,50
 485 77 485 77 451 123 c 128,-1,51
 417 169 417 169 412 227 c 0,0,1
EndSplineSet
EndChar

StartChar: F
Encoding: 70 70 32
Width: 1075
Flags: W
LayerCount: 2
Fore
SplineSet
97 311 m 1,0,-1
 330 311 l 1,1,-1
 22 1253 l 2,2,3
 21 1258 21 1258 21 1263.5 c 128,-1,4
 21 1269 21 1269 21 1275 c 0,5,6
 21 1306 21 1306 28.5 1342.5 c 128,-1,7
 36 1379 36 1379 50 1415 c 128,-1,8
 64 1451 64 1451 83.5 1484 c 128,-1,9
 103 1517 103 1517 127 1541 c 1,10,-1
 576 1447 l 1,11,-1
 930 1549 l 1,12,13
 954 1537 954 1537 971.5 1514.5 c 128,-1,14
 989 1492 989 1492 1001 1463 c 128,-1,15
 1013 1434 1013 1434 1018.5 1400 c 128,-1,16
 1024 1366 1024 1366 1024 1330 c 0,17,18
 1024 1292 1024 1292 1017.5 1253.5 c 128,-1,19
 1011 1215 1011 1215 998 1181.5 c 128,-1,20
 985 1148 985 1148 965.5 1120 c 128,-1,21
 946 1092 946 1092 921 1075 c 1,22,23
 806 1092 806 1092 687 1120 c 128,-1,24
 568 1148 568 1148 452 1181 c 1,25,-1
 532 828 l 1,26,27
 600 838 600 838 652.5 847 c 128,-1,28
 705 856 705 856 751.5 865 c 128,-1,29
 798 874 798 874 843.5 883.5 c 128,-1,30
 889 893 889 893 942 904 c 1,31,32
 964 871 964 871 973.5 829 c 128,-1,33
 983 787 983 787 983 746 c 0,34,35
 983 714 983 714 978.5 683 c 128,-1,36
 974 652 974 652 966.5 626 c 128,-1,37
 959 600 959 600 950 580.5 c 128,-1,38
 941 561 941 561 932 552 c 1,39,40
 914 549 914 549 895.5 548 c 128,-1,41
 877 547 877 547 858 547 c 0,42,43
 779 547 779 547 700.5 569 c 128,-1,44
 622 591 622 591 550 632 c 1,45,-1
 545 627 l 1,46,47
 563 575 563 575 580 522.5 c 128,-1,48
 597 470 597 470 608.5 416 c 128,-1,49
 620 362 620 362 624.5 307 c 128,-1,50
 629 252 629 252 624 194 c 0,51,52
 620 146 620 146 586.5 106.5 c 128,-1,53
 553 67 553 67 505.5 39 c 128,-1,54
 458 11 458 11 404 -4.5 c 128,-1,55
 350 -20 350 -20 305 -20 c 0,56,57
 258 -20 258 -20 215 -0.5 c 128,-1,58
 172 19 172 19 136 48.5 c 128,-1,59
 100 78 100 78 73.5 111.5 c 128,-1,60
 47 145 47 145 32 174 c 1,61,-1
 97 311 l 1,0,-1
EndSplineSet
EndChar

StartChar: j
Encoding: 106 106 33
Width: 564
Flags: W
LayerCount: 2
Fore
SplineSet
262 1198 m 1,0,1
 243 1198 243 1198 216 1209.5 c 128,-1,2
 189 1221 189 1221 160.5 1238.5 c 128,-1,3
 132 1256 132 1256 105.5 1278 c 128,-1,4
 79 1300 79 1300 61 1321 c 1,5,6
 85 1374 85 1374 104.5 1420 c 128,-1,7
 124 1466 124 1466 140.5 1507 c 128,-1,8
 157 1548 157 1548 171.5 1586 c 128,-1,9
 186 1624 186 1624 199 1662 c 1,10,11
 250 1662 250 1662 304.5 1652 c 128,-1,12
 359 1642 359 1642 407.5 1617 c 128,-1,13
 456 1592 456 1592 492.5 1550 c 128,-1,14
 529 1508 529 1508 544 1445 c 1,15,16
 533 1422 533 1422 513 1395.5 c 128,-1,17
 493 1369 493 1369 468 1342.5 c 128,-1,18
 443 1316 443 1316 414.5 1291.5 c 128,-1,19
 386 1267 386 1267 358 1247 c 128,-1,20
 330 1227 330 1227 305 1214 c 128,-1,21
 280 1201 280 1201 262 1198 c 1,0,1
-36 -113 m 1,22,23
 -9 -115 -9 -115 34.5 -121.5 c 128,-1,24
 78 -128 78 -128 120 -134 c 1,25,-1
 153 565 l 1,26,-1
 26 1018 l 1,27,28
 49 1046 49 1046 84.5 1072 c 128,-1,29
 120 1098 120 1098 163 1118.5 c 128,-1,30
 206 1139 206 1139 254 1151 c 128,-1,31
 302 1163 302 1163 349 1163 c 0,32,33
 394 1163 394 1163 435 1149 c 128,-1,34
 476 1135 476 1135 511 1105 c 1,35,36
 509 1093 509 1093 505 1053.5 c 128,-1,37
 501 1014 501 1014 494.5 957 c 128,-1,38
 488 900 488 900 479.5 831 c 128,-1,39
 471 762 471 762 460.5 691 c 128,-1,40
 450 620 450 620 438.5 551.5 c 128,-1,41
 427 483 427 483 414 428 c 2,42,-1
 406 393 l 1,43,-1
 402 371 l 1,44,-1
 406 373 l 1,45,46
 411 350 411 350 420.5 308.5 c 128,-1,47
 430 267 430 267 440.5 213.5 c 128,-1,48
 451 160 451 160 461 99 c 128,-1,49
 471 38 471 38 478 -24 c 128,-1,50
 485 -86 485 -86 488 -145.5 c 128,-1,51
 491 -205 491 -205 487 -254 c 1,52,53
 484 -275 484 -275 459.5 -306.5 c 128,-1,54
 435 -338 435 -338 397.5 -367 c 128,-1,55
 360 -396 360 -396 314.5 -417 c 128,-1,56
 269 -438 269 -438 223 -438 c 1,57,58
 178 -430 178 -430 134.5 -411 c 128,-1,59
 91 -392 91 -392 54.5 -368.5 c 128,-1,60
 18 -345 18 -345 -9.5 -321.5 c 128,-1,61
 -37 -298 -37 -298 -50 -281 c 1,62,63
 -52 -253 -52 -253 -53 -231.5 c 128,-1,64
 -54 -210 -54 -210 -52.5 -191 c 128,-1,65
 -51 -172 -51 -172 -47 -154 c 128,-1,66
 -43 -136 -43 -136 -36 -113 c 1,22,23
EndSplineSet
EndChar

StartChar: cent
Encoding: 162 162 34
Width: 962
Flags: W
LayerCount: 2
Fore
SplineSet
161 127 m 0,0,1
 129 154 129 154 118 172.5 c 128,-1,2
 107 191 107 191 106.5 210.5 c 128,-1,3
 106 230 106 230 110.5 255 c 128,-1,4
 115 280 115 280 115 319 c 0,5,6
 115 388 115 388 111 467 c 128,-1,7
 107 546 107 546 99.5 621 c 128,-1,8
 92 696 92 696 81 761 c 128,-1,9
 70 826 70 826 55 869 c 0,10,11
 48 890 48 890 43.5 905 c 128,-1,12
 39 920 39 920 39 930 c 0,13,14
 39 951 39 951 59.5 978 c 128,-1,15
 80 1005 80 1005 109 1031 c 128,-1,16
 138 1057 138 1057 168 1078.5 c 128,-1,17
 198 1100 198 1100 218 1112 c 0,18,19
 235 1122 235 1122 260.5 1135.5 c 128,-1,20
 286 1149 286 1149 314.5 1162 c 128,-1,21
 343 1175 343 1175 372.5 1185.5 c 128,-1,22
 402 1196 402 1196 427 1201 c 1,23,-1
 401 1447 l 1,24,25
 434 1500 434 1500 480 1522 c 128,-1,26
 526 1544 526 1544 598 1544 c 0,27,28
 639 1544 639 1544 681 1535.5 c 128,-1,29
 723 1527 723 1527 743 1508 c 1,30,-1
 659 1146 l 1,31,-1
 705 1127 l 1,32,-1
 911 1079 l 1,33,34
 920 1021 920 1021 913.5 968 c 128,-1,35
 907 915 907 915 891 869 c 128,-1,36
 875 823 875 823 852.5 785 c 128,-1,37
 830 747 830 747 807 719 c 128,-1,38
 784 691 784 691 763.5 674 c 128,-1,39
 743 657 743 657 730 653 c 1,40,41
 692 675 692 675 650 704.5 c 128,-1,42
 608 734 608 734 568 767 c 128,-1,43
 528 800 528 800 493.5 833.5 c 128,-1,44
 459 867 459 867 436 899 c 1,45,46
 442 845 442 845 448.5 769.5 c 128,-1,47
 455 694 455 694 458 611.5 c 128,-1,48
 461 529 461 529 457.5 447.5 c 128,-1,49
 454 366 454 366 440 300 c 1,50,-1
 459 284 l 1,51,52
 477 291 477 291 518 308.5 c 128,-1,53
 559 326 559 326 609 348.5 c 128,-1,54
 659 371 659 371 712 395.5 c 128,-1,55
 765 420 765 420 807 443 c 1,56,-1
 908 290 l 1,57,58
 894 264 894 264 856 225.5 c 128,-1,59
 818 187 818 187 767 146 c 128,-1,60
 716 105 716 105 657 67 c 128,-1,61
 598 29 598 29 541 6 c 1,62,63
 549 -30 549 -30 555 -70 c 128,-1,64
 561 -110 561 -110 566 -150 c 128,-1,65
 571 -190 571 -190 574.5 -228.5 c 128,-1,66
 578 -267 578 -267 581 -300 c 1,67,68
 543 -327 543 -327 496 -336 c 128,-1,69
 449 -345 449 -345 403 -339 c 128,-1,70
 357 -333 357 -333 316 -313.5 c 128,-1,71
 275 -294 275 -294 249 -264 c 1,72,-1
 300 28 l 1,73,74
 276 42 276 42 253.5 57.5 c 128,-1,75
 231 73 231 73 212.5 87 c 128,-1,76
 194 101 194 101 180.5 111.5 c 128,-1,77
 167 122 167 122 161 127 c 0,0,1
EndSplineSet
EndChar

StartChar: x
Encoding: 120 120 35
Width: 1139
Flags: W
LayerCount: 2
Fore
SplineSet
188 -20 m 1,0,1
 167 -2 167 -2 145.5 28 c 128,-1,2
 124 58 124 58 104.5 95.5 c 128,-1,3
 85 133 85 133 67.5 175 c 128,-1,4
 50 217 50 217 37.5 259.5 c 128,-1,5
 25 302 25 302 17.5 342.5 c 128,-1,6
 10 383 10 383 10 417 c 1,7,8
 23 435 23 435 42.5 450.5 c 128,-1,9
 62 466 62 466 83.5 478 c 128,-1,10
 105 490 105 490 125.5 498 c 128,-1,11
 146 506 146 506 160 510 c 1,12,13
 171 501 171 501 185 481 c 128,-1,14
 199 461 199 461 213.5 436 c 128,-1,15
 228 411 228 411 241.5 383.5 c 128,-1,16
 255 356 255 356 265 332 c 1,17,-1
 425 553 l 1,18,-1
 269 804 l 1,19,-1
 126 738 l 1,20,-1
 35 851 l 1,21,22
 44 888 44 888 59 939.5 c 128,-1,23
 74 991 74 991 99.5 1041.5 c 128,-1,24
 125 1092 125 1092 162 1134.5 c 128,-1,25
 199 1177 199 1177 252 1195 c 1,26,27
 302 1207 302 1207 350.5 1204.5 c 128,-1,28
 399 1202 399 1202 439 1186.5 c 128,-1,29
 479 1171 479 1171 507.5 1144 c 128,-1,30
 536 1117 536 1117 547 1082 c 0,31,32
 565 1021 565 1021 575 969 c 128,-1,33
 585 917 585 917 590.5 873 c 128,-1,34
 596 829 596 829 599.5 792.5 c 128,-1,35
 603 756 603 756 608 726 c 1,36,-1
 620 729 l 1,37,38
 648 889 648 889 661 983.5 c 128,-1,39
 674 1078 674 1078 687 1098 c 0,40,41
 709 1131 709 1131 737.5 1152 c 128,-1,42
 766 1173 766 1173 800 1184.5 c 128,-1,43
 834 1196 834 1196 873 1200 c 128,-1,44
 912 1204 912 1204 955 1204 c 1,45,46
 986 1177 986 1177 1017 1123.5 c 128,-1,47
 1048 1070 1048 1070 1073 1007 c 128,-1,48
 1098 944 1098 944 1113 879 c 128,-1,49
 1128 814 1128 814 1128 763 c 1,50,51
 1116 745 1116 745 1096.5 729.5 c 128,-1,52
 1077 714 1077 714 1055.5 702 c 128,-1,53
 1034 690 1034 690 1013.5 682 c 128,-1,54
 993 674 993 674 979 670 c 1,55,56
 968 679 968 679 954 699 c 128,-1,57
 940 719 940 719 925.5 744 c 128,-1,58
 911 769 911 769 897 796.5 c 128,-1,59
 883 824 883 824 873 848 c 1,60,-1
 712 659 l 1,61,-1
 900 358 l 1,62,-1
 1033 429 l 1,63,-1
 1115 331 l 1,64,65
 1106 294 1106 294 1091 243 c 128,-1,66
 1076 192 1076 192 1050.5 141.5 c 128,-1,67
 1025 91 1025 91 987.5 49 c 128,-1,68
 950 7 950 7 897 -11 c 1,69,70
 858 -21 858 -21 817 -21 c 0,71,72
 739 -21 739 -21 688.5 11 c 128,-1,73
 638 43 638 43 621 100 c 0,74,75
 583 222 583 222 565.5 318.5 c 128,-1,76
 548 415 548 415 538 475 c 1,77,-1
 517 475 l 1,78,79
 509 405 509 405 502 338.5 c 128,-1,80
 495 272 495 272 487.5 218.5 c 128,-1,81
 480 165 480 165 472.5 129 c 128,-1,82
 465 93 465 93 458 85 c 0,83,84
 443 67 443 67 422.5 47 c 128,-1,85
 402 27 402 27 370.5 11 c 128,-1,86
 339 -5 339 -5 295 -14 c 128,-1,87
 251 -23 251 -23 188 -20 c 1,0,1
EndSplineSet
EndChar

StartChar: z
Encoding: 122 122 36
Width: 1027
Flags: W
LayerCount: 2
Fore
SplineSet
188 -17 m 1,0,1
 167 -4 167 -4 147 23 c 128,-1,2
 127 50 127 50 110 85.5 c 128,-1,3
 93 121 93 121 79 162.5 c 128,-1,4
 65 204 65 204 55.5 247 c 128,-1,5
 46 290 46 290 40.5 331 c 128,-1,6
 35 372 35 372 35 406 c 1,7,8
 48 422 48 422 67 437.5 c 128,-1,9
 86 453 86 453 107.5 465.5 c 128,-1,10
 129 478 129 478 149.5 487.5 c 128,-1,11
 170 497 170 497 186 502 c 1,12,13
 218 493 218 493 251 468.5 c 128,-1,14
 284 444 284 444 331 404 c 1,15,-1
 516 810 l 1,16,-1
 329 833 l 1,17,-1
 329 617 l 1,18,-1
 163 581 l 1,19,20
 141 604 141 604 116.5 644 c 128,-1,21
 92 684 92 684 71.5 733 c 128,-1,22
 51 782 51 782 37.5 836 c 128,-1,23
 24 890 24 890 24 941 c 0,24,25
 24 1001 24 1001 41.5 1046 c 128,-1,26
 59 1091 59 1091 89 1120.5 c 128,-1,27
 119 1150 119 1150 158.5 1165 c 128,-1,28
 198 1180 198 1180 243 1180 c 0,29,30
 286 1180 286 1180 343.5 1168.5 c 128,-1,31
 401 1157 401 1157 459.5 1138.5 c 128,-1,32
 518 1120 518 1120 571.5 1097 c 128,-1,33
 625 1074 625 1074 660 1051 c 1,34,35
 674 1072 674 1072 693.5 1098.5 c 128,-1,36
 713 1125 713 1125 738.5 1148.5 c 128,-1,37
 764 1172 764 1172 795.5 1188 c 128,-1,38
 827 1204 827 1204 865 1206 c 1,39,40
 893 1186 893 1186 916.5 1153 c 128,-1,41
 940 1120 940 1120 956 1080 c 128,-1,42
 972 1040 972 1040 981 995.5 c 128,-1,43
 990 951 990 951 990 908 c 0,44,45
 990 880 990 880 986 854 c 128,-1,46
 982 828 982 828 974 805 c 1,47,48
 946 787 946 787 918 787 c 0,49,50
 907 787 907 787 895.5 789 c 128,-1,51
 884 791 884 791 869 794 c 1,52,-1
 529 358 l 1,53,-1
 713 327 l 1,54,-1
 813 561 l 1,55,-1
 961 533 l 1,56,57
 974 499 974 499 982.5 444.5 c 128,-1,58
 991 390 991 390 991 328 c 0,59,60
 991 260 991 260 977.5 193.5 c 128,-1,61
 964 127 964 127 929 80 c 0,62,63
 891 29 891 29 844 4.5 c 128,-1,64
 797 -20 797 -20 744 -20 c 0,65,66
 697 -20 697 -20 644.5 -3.5 c 128,-1,67
 592 13 592 13 542.5 38.5 c 128,-1,68
 493 64 493 64 451 94 c 128,-1,69
 409 124 409 124 384 150 c 1,70,71
 361 110 361 110 341 79 c 128,-1,72
 321 48 321 48 299.5 27 c 128,-1,73
 278 6 278 6 251.5 -5 c 128,-1,74
 225 -16 225 -16 188 -17 c 1,0,1
EndSplineSet
EndChar

StartChar: D
Encoding: 68 68 41
Width: 1334
Flags: W
LayerCount: 2
Fore
SplineSet
288 -20 m 1,0,1
 256 -5 256 -5 222 31 c 128,-1,2
 188 67 188 67 158.5 112.5 c 128,-1,3
 129 158 129 158 108.5 207.5 c 128,-1,4
 88 257 88 257 85 299 c 1,5,-1
 174 423 l 1,6,7
 194 431 194 431 219.5 434 c 128,-1,8
 245 437 245 437 271 437 c 2,9,-1
 303 437 l 1,10,11
 281 563 281 563 266.5 673 c 128,-1,12
 252 783 252 783 242.5 879 c 128,-1,13
 233 975 233 975 226 1057 c 128,-1,14
 219 1139 219 1139 213 1210 c 1,15,-1
 30 1226 l 1,16,17
 33 1271 33 1271 40 1317 c 128,-1,18
 47 1363 47 1363 62 1406 c 128,-1,19
 77 1449 77 1449 101.5 1485.5 c 128,-1,20
 126 1522 126 1522 165 1549 c 1,21,-1
 877 1489 l 1,22,23
 920 1469 920 1469 968.5 1440.5 c 128,-1,24
 1017 1412 1017 1412 1066 1378 c 128,-1,25
 1115 1344 1115 1344 1160.5 1305 c 128,-1,26
 1206 1266 1206 1266 1242 1226 c 1,27,28
 1245 1203 1245 1203 1247 1183.5 c 128,-1,29
 1249 1164 1249 1164 1250.5 1139.5 c 128,-1,30
 1252 1115 1252 1115 1253 1081 c 128,-1,31
 1254 1047 1254 1047 1254 996 c 0,32,33
 1254 957 1254 957 1250 891.5 c 128,-1,34
 1246 826 1246 826 1239.5 748 c 128,-1,35
 1233 670 1233 670 1224.5 585.5 c 128,-1,36
 1216 501 1216 501 1206 424 c 128,-1,37
 1196 347 1196 347 1186 285 c 128,-1,38
 1176 223 1176 223 1166 190 c 0,39,40
 1160 171 1160 171 1136.5 149 c 128,-1,41
 1113 127 1113 127 1078 105 c 128,-1,42
 1043 83 1043 83 1000.5 61.5 c 128,-1,43
 958 40 958 40 914 23 c 128,-1,44
 870 6 870 6 828.5 -6 c 128,-1,45
 787 -18 787 -18 755 -21 c 1,46,47
 716 0 716 0 681 28 c 128,-1,48
 646 56 646 56 617 86 c 128,-1,49
 588 116 588 116 566.5 145.5 c 128,-1,50
 545 175 545 175 534 200 c 1,51,52
 514 167 514 167 489.5 129 c 128,-1,53
 465 91 465 91 435 59 c 128,-1,54
 405 27 405 27 368 5 c 128,-1,55
 331 -17 331 -17 288 -20 c 1,0,1
577 394 m 1,56,-1
 848 311 l 1,57,58
 851 373 851 373 853 447 c 128,-1,59
 855 521 855 521 855 586 c 0,60,61
 855 659 855 659 854 735.5 c 128,-1,62
 853 812 853 812 851 883.5 c 128,-1,63
 849 955 849 955 845.5 1018 c 128,-1,64
 842 1081 842 1081 838 1129 c 1,65,-1
 596 1180 l 1,66,-1
 560 397 l 1,67,-1
 577 394 l 1,56,-1
EndSplineSet
EndChar

StartChar: o
Encoding: 111 111 42
Width: 1083
Flags: W
LayerCount: 2
Fore
SplineSet
126 136 m 1,0,1
 108 250 108 250 92.5 361.5 c 128,-1,2
 77 473 77 473 69 582 c 128,-1,3
 61 691 61 691 62.5 796.5 c 128,-1,4
 64 902 64 902 80 1006 c 1,5,6
 95 1024 95 1024 126.5 1045 c 128,-1,7
 158 1066 158 1066 199 1087 c 128,-1,8
 240 1108 240 1108 287 1127.5 c 128,-1,9
 334 1147 334 1147 378.5 1163 c 128,-1,10
 423 1179 423 1179 461.5 1189.5 c 128,-1,11
 500 1200 500 1200 526 1204 c 1,12,13
 589 1198 589 1198 659.5 1178 c 128,-1,14
 730 1158 730 1158 796 1129 c 128,-1,15
 862 1100 862 1100 918 1063 c 128,-1,16
 974 1026 974 1026 1007 987 c 1,17,18
 1012 964 1012 964 1015 941.5 c 128,-1,19
 1018 919 1018 919 1020 892.5 c 128,-1,20
 1022 866 1022 866 1022.5 833.5 c 128,-1,21
 1023 801 1023 801 1023 759 c 0,22,23
 1023 709 1023 709 1019.5 654 c 128,-1,24
 1016 599 1016 599 1010.5 543 c 128,-1,25
 1005 487 1005 487 997.5 431.5 c 128,-1,26
 990 376 990 376 981.5 326 c 128,-1,27
 973 276 973 276 963.5 233.5 c 128,-1,28
 954 191 954 191 946 160 c 1,29,30
 937 149 937 149 918 134.5 c 128,-1,31
 899 120 899 120 876 105.5 c 128,-1,32
 853 91 853 91 828 77 c 128,-1,33
 803 63 803 63 782 52 c 0,34,35
 718 20 718 20 669.5 2.5 c 128,-1,36
 621 -15 621 -15 572 -20 c 1,37,38
 539 -17 539 -17 498 -9.5 c 128,-1,39
 457 -2 457 -2 413.5 9.5 c 128,-1,40
 370 21 370 21 326.5 35 c 128,-1,41
 283 49 283 49 244.5 65.5 c 128,-1,42
 206 82 206 82 175 100 c 128,-1,43
 144 118 144 118 126 136 c 1,0,1
428 292 m 1,44,45
 459 272 459 272 500 251.5 c 128,-1,46
 541 231 541 231 594 220 c 1,47,-1
 649 258 l 1,48,49
 654 313 654 313 655.5 368 c 128,-1,50
 657 423 657 423 657 480 c 0,51,52
 657 556 657 556 653 634.5 c 128,-1,53
 649 713 649 713 640 800 c 1,54,-1
 486 863 l 1,55,-1
 426 834 l 1,56,57
 414 714 414 714 414 593 c 0,58,59
 414 518 414 518 417 443 c 128,-1,60
 420 368 420 368 428 292 c 1,44,45
EndSplineSet
Substitution2: "Single Substitution lookup 8 subtable" ordmasculine
Substitution2: "'aalt' Access All Alternates in Latin lookup 0 subtable" ordmasculine
EndChar

StartChar: d
Encoding: 100 100 43
Width: 1200
Flags: W
LayerCount: 2
Fore
SplineSet
130 147 m 0,0,1
 128 231 128 231 127.5 322 c 128,-1,2
 127 413 127 413 120.5 507.5 c 128,-1,3
 114 602 114 602 99.5 699.5 c 128,-1,4
 85 797 85 797 57 895 c 0,5,6
 51 915 51 915 48 927.5 c 128,-1,7
 45 940 45 940 45 950 c 0,8,9
 45 962 45 962 50.5 974 c 128,-1,10
 56 986 56 986 70 1005 c 0,11,12
 115 1064 115 1064 172 1101.5 c 128,-1,13
 229 1139 229 1139 281.5 1161.5 c 128,-1,14
 334 1184 334 1184 375 1193 c 128,-1,15
 416 1202 416 1202 431 1204 c 1,16,17
 471 1176 471 1176 505 1141 c 128,-1,18
 539 1106 539 1106 568.5 1067 c 128,-1,19
 598 1028 598 1028 623.5 987.5 c 128,-1,20
 649 947 649 947 672 908 c 1,21,-1
 677 910 l 1,22,23
 673 959 673 959 665.5 1024 c 128,-1,24
 658 1089 658 1089 649.5 1157.5 c 128,-1,25
 641 1226 641 1226 632.5 1293.5 c 128,-1,26
 624 1361 624 1361 617 1417 c 128,-1,27
 610 1473 610 1473 605 1511 c 128,-1,28
 600 1549 600 1549 599 1559 c 1,29,30
 608 1569 608 1569 627 1579 c 128,-1,31
 646 1589 646 1589 673 1596.5 c 128,-1,32
 700 1604 700 1604 733 1608.5 c 128,-1,33
 766 1613 766 1613 802 1613 c 0,34,35
 836 1613 836 1613 872 1608.5 c 128,-1,36
 908 1604 908 1604 942.5 1593.5 c 128,-1,37
 977 1583 977 1583 1009 1566 c 128,-1,38
 1041 1549 1041 1549 1068 1524 c 1,39,40
 1070 1513 1070 1513 1069 1466.5 c 128,-1,41
 1068 1420 1068 1420 1065 1349.5 c 128,-1,42
 1062 1279 1062 1279 1056.5 1189.5 c 128,-1,43
 1051 1100 1051 1100 1043.5 1002.5 c 128,-1,44
 1036 905 1036 905 1026 804.5 c 128,-1,45
 1016 704 1016 704 1004 612 c 128,-1,46
 992 520 992 520 977.5 441.5 c 128,-1,47
 963 363 963 363 947 308 c 1,48,-1
 1118 400 l 1,49,-1
 1206 279 l 1,50,51
 1181 219 1181 219 1150.5 165 c 128,-1,52
 1120 111 1120 111 1084.5 70 c 128,-1,53
 1049 29 1049 29 1009 5 c 128,-1,54
 969 -19 969 -19 926 -20 c 0,55,56
 903 -20 903 -20 877 -13 c 128,-1,57
 851 -6 851 -6 825 7.5 c 128,-1,58
 799 21 799 21 774.5 39.5 c 128,-1,59
 750 58 750 58 729 80 c 0,60,61
 720 90 720 90 709.5 101 c 128,-1,62
 699 112 699 112 690.5 127.5 c 128,-1,63
 682 143 682 143 678 165.5 c 128,-1,64
 674 188 674 188 677 221 c 0,65,66
 683 297 683 297 687 361.5 c 128,-1,67
 691 426 691 426 696 495 c 1,68,-1
 691 497 l 1,69,70
 678 462 678 462 660 417.5 c 128,-1,71
 642 373 642 373 620.5 325 c 128,-1,72
 599 277 599 277 575.5 229 c 128,-1,73
 552 181 552 181 527.5 138 c 128,-1,74
 503 95 503 95 478 60 c 128,-1,75
 453 25 453 25 429 5 c 0,76,77
 401 -18 401 -18 374 -20 c 256,78,79
 347 -22 347 -22 319.5 -6 c 128,-1,80
 292 10 292 10 263 31 c 0,81,82
 244 44 244 44 221 56.5 c 128,-1,83
 198 69 198 69 178 82.5 c 128,-1,84
 158 96 158 96 144 111.5 c 128,-1,85
 130 127 130 127 130 147 c 0,0,1
460 339 m 1,86,87
 479 357 479 357 499.5 385.5 c 128,-1,88
 520 414 520 414 541 448 c 128,-1,89
 562 482 562 482 582.5 518 c 128,-1,90
 603 554 603 554 620.5 587 c 128,-1,91
 638 620 638 620 652 648 c 128,-1,92
 666 676 666 676 674 694 c 1,93,94
 675 709 675 709 675.5 711.5 c 128,-1,95
 676 714 676 714 676 717.5 c 128,-1,96
 676 721 676 721 675.5 731.5 c 128,-1,97
 675 742 675 742 675 774 c 1,98,99
 615 789 615 789 563.5 799 c 128,-1,100
 512 809 512 809 464 820 c 1,101,-1
 466 713 l 2,102,103
 468 621 468 621 458 532.5 c 128,-1,104
 448 444 448 444 430 353 c 1,105,-1
 460 339 l 1,86,87
EndSplineSet
EndChar

StartChar: w
Encoding: 119 119 44
Width: 1636
Flags: W
LayerCount: 2
Fore
SplineSet
273 47 m 1,0,1
 277 98 277 98 280.5 134.5 c 128,-1,2
 284 171 284 171 288.5 197.5 c 128,-1,3
 293 224 293 224 298.5 244 c 128,-1,4
 304 264 304 264 312 283 c 1,5,-1
 159 693 l 1,6,-1
 5 968 l 1,7,8
 5 1009 5 1009 30 1047 c 128,-1,9
 55 1085 55 1085 93 1114.5 c 128,-1,10
 131 1144 131 1144 177 1161.5 c 128,-1,11
 223 1179 223 1179 265 1179 c 0,12,13
 321 1179 321 1179 368.5 1158.5 c 128,-1,14
 416 1138 416 1138 440 1093 c 1,15,16
 443 1076 443 1076 452 1028.5 c 128,-1,17
 461 981 461 981 474 914.5 c 128,-1,18
 487 848 487 848 502 768 c 128,-1,19
 517 688 517 688 531.5 606.5 c 128,-1,20
 546 525 546 525 558.5 446.5 c 128,-1,21
 571 368 571 368 579 305 c 1,22,-1
 592 304 l 1,23,24
 610 355 610 355 627 414.5 c 128,-1,25
 644 474 644 474 658.5 533 c 128,-1,26
 673 592 673 592 684 646 c 128,-1,27
 695 700 695 700 700 739 c 1,28,29
 677 758 677 758 654 777 c 128,-1,30
 631 796 631 796 609.5 818.5 c 128,-1,31
 588 841 588 841 568 868.5 c 128,-1,32
 548 896 548 896 530 932 c 1,33,34
 548 983 548 983 584.5 1030 c 128,-1,35
 621 1077 621 1077 667.5 1113.5 c 128,-1,36
 714 1150 714 1150 766 1174 c 128,-1,37
 818 1198 818 1198 866 1204 c 1,38,39
 903 1174 903 1174 933.5 1131 c 128,-1,40
 964 1088 964 1088 986.5 1038 c 128,-1,41
 1009 988 1009 988 1023 934.5 c 128,-1,42
 1037 881 1037 881 1041 830 c 1,43,-1
 1039 829 l 1,44,45
 1054 767 1054 767 1069.5 697.5 c 128,-1,46
 1085 628 1085 628 1098.5 559 c 128,-1,47
 1112 490 1112 490 1122.5 425 c 128,-1,48
 1133 360 1133 360 1138 306 c 1,49,-1
 1153 306 l 1,50,51
 1171 357 1171 357 1189 416 c 128,-1,52
 1207 475 1207 475 1221.5 534 c 128,-1,53
 1236 593 1236 593 1247 646.5 c 128,-1,54
 1258 700 1258 700 1263 739 c 1,55,56
 1240 758 1240 758 1217 777 c 128,-1,57
 1194 796 1194 796 1172.5 818.5 c 128,-1,58
 1151 841 1151 841 1131 868.5 c 128,-1,59
 1111 896 1111 896 1093 932 c 1,60,61
 1111 983 1111 983 1147.5 1030 c 128,-1,62
 1184 1077 1184 1077 1230.5 1113.5 c 128,-1,63
 1277 1150 1277 1150 1329 1174 c 128,-1,64
 1381 1198 1381 1198 1429 1204 c 1,65,66
 1466 1174 1466 1174 1496.5 1131 c 128,-1,67
 1527 1088 1527 1088 1549.5 1038 c 128,-1,68
 1572 988 1572 988 1586 934.5 c 128,-1,69
 1600 881 1600 881 1604 830 c 1,70,71
 1589 795 1589 795 1560 728 c 128,-1,72
 1531 661 1531 661 1492 576.5 c 128,-1,73
 1453 492 1453 492 1407 399 c 128,-1,74
 1361 306 1361 306 1313 219 c 1,75,76
 1331 186 1331 186 1346.5 144.5 c 128,-1,77
 1362 103 1362 103 1375 44 c 1,78,79
 1356 27 1356 27 1328.5 15 c 128,-1,80
 1301 3 1301 3 1267.5 -5 c 128,-1,81
 1234 -13 1234 -13 1197 -17 c 128,-1,82
 1160 -21 1160 -21 1122 -21 c 0,83,84
 1082 -21 1082 -21 1043.5 -16.5 c 128,-1,85
 1005 -12 1005 -12 971.5 -3.5 c 128,-1,86
 938 5 938 5 910 17.5 c 128,-1,87
 882 30 882 30 864 47 c 1,88,89
 867 89 867 89 870.5 121 c 128,-1,90
 874 153 874 153 879 177.5 c 128,-1,91
 884 202 884 202 889.5 221 c 128,-1,92
 895 240 895 240 901 256 c 1,93,-1
 836 489 l 1,94,95
 811 403 811 403 784 315 c 128,-1,96
 757 227 757 227 725 150 c 1,97,98
 733 127 733 127 736.5 100.5 c 128,-1,99
 740 74 740 74 740 43 c 1,100,101
 730 27 730 27 709 15.5 c 128,-1,102
 688 4 688 4 659.5 -4 c 128,-1,103
 631 -12 631 -12 596.5 -16 c 128,-1,104
 562 -20 562 -20 526 -20 c 0,105,106
 488 -20 488 -20 451 -15.5 c 128,-1,107
 414 -11 414 -11 380 -3 c 128,-1,108
 346 5 346 5 318.5 17.5 c 128,-1,109
 291 30 291 30 273 47 c 1,0,1
EndSplineSet
EndChar

StartChar: C
Encoding: 67 67 45
Width: 1011
Flags: W
LayerCount: 2
Fore
SplineSet
233 95 m 0,0,1
 198 122 198 122 184 144.5 c 128,-1,2
 170 167 170 167 166 192 c 1,3,4
 164 231 164 231 161.5 279 c 128,-1,5
 159 327 159 327 156 381 c 128,-1,6
 153 435 153 435 149.5 494 c 128,-1,7
 146 553 146 553 142 613 c 0,8,9
 137 694 137 694 131 775 c 128,-1,10
 125 856 125 856 118.5 929.5 c 128,-1,11
 112 1003 112 1003 104.5 1065 c 128,-1,12
 97 1127 97 1127 89 1171 c 0,13,14
 87 1184 87 1184 85.5 1201.5 c 128,-1,15
 84 1219 84 1219 83.5 1236 c 128,-1,16
 83 1253 83 1253 83 1266.5 c 128,-1,17
 83 1280 83 1280 83 1286 c 1,18,19
 92 1321 92 1321 121.5 1360.5 c 128,-1,20
 151 1400 151 1400 191 1436.5 c 128,-1,21
 231 1473 231 1473 277.5 1502.5 c 128,-1,22
 324 1532 324 1532 369 1549 c 1,23,24
 392 1544 392 1544 426.5 1534 c 128,-1,25
 461 1524 461 1524 498 1511.5 c 128,-1,26
 535 1499 535 1499 570 1485 c 128,-1,27
 605 1471 605 1471 628 1459 c 1,28,-1
 944 1481 l 1,29,30
 957 1417 957 1417 957 1359.5 c 128,-1,31
 957 1302 957 1302 947 1252 c 128,-1,32
 937 1202 937 1202 920.5 1160.5 c 128,-1,33
 904 1119 904 1119 885 1088 c 128,-1,34
 866 1057 866 1057 847.5 1037 c 128,-1,35
 829 1017 829 1017 815 1010 c 1,36,37
 746 1039 746 1039 677.5 1082 c 128,-1,38
 609 1125 609 1125 534 1192 c 1,39,-1
 510 1170 l 1,40,41
 515 1121 515 1121 515 1053 c 128,-1,42
 515 985 515 985 512.5 907 c 128,-1,43
 510 829 510 829 505.5 746 c 128,-1,44
 501 663 501 663 495 584.5 c 128,-1,45
 489 506 489 506 482.5 437.5 c 128,-1,46
 476 369 476 369 470 320 c 1,47,48
 500 324 500 324 543 338.5 c 128,-1,49
 586 353 586 353 640.5 373.5 c 128,-1,50
 695 394 695 394 759.5 419.5 c 128,-1,51
 824 445 824 445 898 472 c 1,52,-1
 973 305 l 1,53,54
 947 261 947 261 898 208.5 c 128,-1,55
 849 156 849 156 782 108.5 c 128,-1,56
 715 61 715 61 634 25.5 c 128,-1,57
 553 -10 553 -10 465 -20 c 1,58,59
 438 -20 438 -20 407 -8.5 c 128,-1,60
 376 3 376 3 344.5 20 c 128,-1,61
 313 37 313 37 284 57.5 c 128,-1,62
 255 78 255 78 233 95 c 0,0,1
EndSplineSet
EndChar

StartChar: B
Encoding: 66 66 46
Width: 1316
Flags: W
LayerCount: 2
Fore
SplineSet
152 123 m 0,0,1
 152 139 152 139 159 163 c 0,2,3
 166 191 166 191 172.5 213.5 c 128,-1,4
 179 236 179 236 186 259.5 c 128,-1,5
 193 283 193 283 200.5 309 c 128,-1,6
 208 335 208 335 219 370 c 1,7,8
 209 390 209 390 198 439.5 c 128,-1,9
 187 489 187 489 176 557 c 128,-1,10
 165 625 165 625 154 706.5 c 128,-1,11
 143 788 143 788 133 872.5 c 128,-1,12
 123 957 123 957 114.5 1039 c 128,-1,13
 106 1121 106 1121 100 1190 c 128,-1,14
 94 1259 94 1259 90.5 1309.5 c 128,-1,15
 87 1360 87 1360 87 1381 c 0,16,17
 87 1391 87 1391 88 1393 c 0,18,19
 110 1423 110 1423 141 1448 c 128,-1,20
 172 1473 172 1473 208 1491 c 128,-1,21
 244 1509 244 1509 284 1519 c 128,-1,22
 324 1529 324 1529 365 1529 c 0,23,24
 408 1529 408 1529 450 1517.5 c 128,-1,25
 492 1506 492 1506 530 1480 c 1,26,-1
 435 983 l 1,27,-1
 464 969 l 1,28,-1
 691 1531 l 1,29,30
 707 1535 707 1535 742 1541.5 c 128,-1,31
 777 1548 777 1548 821 1548 c 0,32,33
 849 1548 849 1548 891.5 1540 c 128,-1,34
 934 1532 934 1532 983 1514.5 c 128,-1,35
 1032 1497 1032 1497 1083 1469.5 c 128,-1,36
 1134 1442 1134 1442 1179 1404 c 1,37,38
 1177 1333 1177 1333 1169.5 1250.5 c 128,-1,39
 1162 1168 1162 1168 1149.5 1081 c 128,-1,40
 1137 994 1137 994 1121 906 c 128,-1,41
 1105 818 1105 818 1087 737 c 2,42,-1
 1074 679 l 1,43,44
 1107 674 1107 674 1139 667.5 c 128,-1,45
 1171 661 1171 661 1198 652.5 c 128,-1,46
 1225 644 1225 644 1245.5 633.5 c 128,-1,47
 1266 623 1266 623 1276 611 c 1,48,49
 1289 556 1289 556 1289 497 c 0,50,51
 1289 414 1289 414 1263 334 c 128,-1,52
 1237 254 1237 254 1190.5 185.5 c 128,-1,53
 1144 117 1144 117 1079 64 c 128,-1,54
 1014 11 1014 11 936 -17 c 1,55,56
 882 -23 882 -23 827 -23 c 0,57,58
 770 -23 770 -23 698.5 -18.5 c 128,-1,59
 627 -14 627 -14 552 -5 c 128,-1,60
 477 4 477 4 405 16.5 c 128,-1,61
 333 29 333 29 277 45.5 c 128,-1,62
 221 62 221 62 186.5 81.5 c 128,-1,63
 152 101 152 101 152 123 c 0,0,1
548 746 m 1,64,65
 572 745 572 745 599.5 744 c 128,-1,66
 627 743 627 743 655.5 742 c 128,-1,67
 684 741 684 741 712 739.5 c 128,-1,68
 740 738 740 738 765 737 c 1,69,70
 769 790 769 790 773 849 c 128,-1,71
 777 908 777 908 780 963.5 c 128,-1,72
 783 1019 783 1019 785 1066.5 c 128,-1,73
 787 1114 787 1114 787 1143 c 1,74,-1
 740 1151 l 1,75,76
 723 1116 723 1116 698.5 1065.5 c 128,-1,77
 674 1015 674 1015 647.5 958.5 c 128,-1,78
 621 902 621 902 594.5 846.5 c 128,-1,79
 568 791 568 791 548 746 c 1,64,65
465 344 m 1,80,81
 509 319 509 319 559 298 c 128,-1,82
 609 277 609 277 661.5 261 c 128,-1,83
 714 245 714 245 766 235 c 128,-1,84
 818 225 818 225 866 222 c 1,85,86
 873 258 873 258 879 285.5 c 128,-1,87
 885 313 885 313 889 336.5 c 128,-1,88
 893 360 893 360 895.5 381.5 c 128,-1,89
 898 403 898 403 898 427 c 0,90,91
 898 441 898 441 897 456.5 c 128,-1,92
 896 472 896 472 894 490 c 1,93,-1
 494 573 l 1,94,95
 484 516 484 516 477 459 c 128,-1,96
 470 402 470 402 465 344 c 1,80,81
EndSplineSet
EndChar

StartChar: R
Encoding: 82 82 47
Width: 1364
Flags: W
LayerCount: 2
Fore
SplineSet
137 69 m 1,0,1
 149 129 149 129 159.5 172.5 c 128,-1,2
 170 216 170 216 179.5 249.5 c 128,-1,3
 189 283 189 283 198.5 311.5 c 128,-1,4
 208 340 208 340 219 370 c 1,5,6
 208 391 208 391 196.5 445 c 128,-1,7
 185 499 185 499 173.5 572.5 c 128,-1,8
 162 646 162 646 150.5 733.5 c 128,-1,9
 139 821 139 821 129 909.5 c 128,-1,10
 119 998 119 998 110.5 1082 c 128,-1,11
 102 1166 102 1166 96.5 1232.5 c 128,-1,12
 91 1299 91 1299 88.5 1342.5 c 128,-1,13
 86 1386 86 1386 88 1393 c 1,14,15
 122 1439 122 1439 175 1472.5 c 128,-1,16
 228 1506 228 1506 288.5 1520 c 128,-1,17
 349 1534 349 1534 412 1525.5 c 128,-1,18
 475 1517 475 1517 530 1480 c 1,19,-1
 435 983 l 1,20,-1
 463 969 l 1,21,-1
 731 1531 l 1,22,23
 747 1536 747 1536 782 1541.5 c 128,-1,24
 817 1547 817 1547 861 1548 c 0,25,26
 889 1548 889 1548 932 1540 c 128,-1,27
 975 1532 975 1532 1023.5 1514.5 c 128,-1,28
 1072 1497 1072 1497 1123 1469.5 c 128,-1,29
 1174 1442 1174 1442 1219 1404 c 1,30,31
 1220 1333 1220 1333 1215 1250 c 128,-1,32
 1210 1167 1210 1167 1198 1078 c 128,-1,33
 1186 989 1186 989 1167.5 898.5 c 128,-1,34
 1149 808 1149 808 1123 723 c 1,35,36
 1091 676 1091 676 1053 635.5 c 128,-1,37
 1015 595 1015 595 971 558 c 1,38,39
 996 509 996 509 1028 459 c 128,-1,40
 1060 409 1060 409 1104 366 c 1,41,42
 1138 378 1138 378 1172 401 c 128,-1,43
 1206 424 1206 424 1241 452 c 1,44,-1
 1355 350 l 1,45,46
 1353 311 1353 311 1343.5 271 c 128,-1,47
 1334 231 1334 231 1319 194 c 128,-1,48
 1304 157 1304 157 1286 125 c 128,-1,49
 1268 93 1268 93 1251 69 c 0,50,51
 1219 24 1219 24 1173 2 c 128,-1,52
 1127 -20 1127 -20 1070 -20 c 0,53,54
 1041 -20 1041 -20 1010.5 -14.5 c 128,-1,55
 980 -9 980 -9 948 2 c 1,56,57
 908 14 908 14 878 45 c 128,-1,58
 848 76 848 76 826 117.5 c 128,-1,59
 804 159 804 159 789 207 c 128,-1,60
 774 255 774 255 764.5 302.5 c 128,-1,61
 755 350 755 350 749 392.5 c 128,-1,62
 743 435 743 435 740 465 c 1,63,-1
 472 501 l 1,64,65
 487 465 487 465 501.5 405 c 128,-1,66
 516 345 516 345 528.5 277.5 c 128,-1,67
 541 210 541 210 550 143 c 128,-1,68
 559 76 559 76 563 27 c 1,69,70
 530 4 530 4 486.5 -7.5 c 128,-1,71
 443 -19 443 -19 396 -20 c 0,72,73
 358 -21 358 -21 319.5 -15 c 128,-1,74
 281 -9 281 -9 247 2 c 128,-1,75
 213 13 213 13 184.5 30 c 128,-1,76
 156 47 156 47 137 69 c 1,0,1
805 693 m 1,77,78
 815 757 815 757 821 823 c 128,-1,79
 827 889 827 889 829.5 949 c 128,-1,80
 832 1009 832 1009 831.5 1059 c 128,-1,81
 831 1109 831 1109 827 1143 c 1,82,-1
 780 1151 l 1,83,84
 762 1124 762 1124 737.5 1085.5 c 128,-1,85
 713 1047 713 1047 685 1002 c 128,-1,86
 657 957 657 957 627.5 909.5 c 128,-1,87
 598 862 598 862 572 817.5 c 128,-1,88
 546 773 546 773 524.5 735 c 128,-1,89
 503 697 503 697 490 672 c 1,90,-1
 805 693 l 1,77,78
EndSplineSet
EndChar

StartChar: L
Encoding: 76 76 48
Width: 1142
Flags: W
LayerCount: 2
Fore
SplineSet
258 -20 m 1,0,1
 226 -5 226 -5 192 31 c 128,-1,2
 158 67 158 67 128.5 112.5 c 128,-1,3
 99 158 99 158 78.5 207.5 c 128,-1,4
 58 257 58 257 55 299 c 1,5,-1
 144 423 l 1,6,7
 164 431 164 431 189.5 434 c 128,-1,8
 215 437 215 437 241 437 c 2,9,-1
 273 437 l 1,10,11
 243 610 243 610 226.5 753.5 c 128,-1,12
 210 897 210 897 199.5 1015.5 c 128,-1,13
 189 1134 189 1134 181 1229 c 128,-1,14
 173 1324 173 1324 160 1399 c 1,15,16
 174 1420 174 1420 204.5 1443 c 128,-1,17
 235 1466 235 1466 277 1485 c 128,-1,18
 319 1504 319 1504 370.5 1516.5 c 128,-1,19
 422 1529 422 1529 478 1529 c 0,20,21
 526 1529 526 1529 564.5 1520 c 128,-1,22
 603 1511 603 1511 639 1489 c 1,23,-1
 534 409 l 1,24,-1
 547 408 l 1,25,-1
 800 360 l 1,26,-1
 895 649 l 1,27,-1
 1079 625 l 1,28,29
 1085 608 1085 608 1091 581 c 128,-1,30
 1097 554 1097 554 1101.5 520 c 128,-1,31
 1106 486 1106 486 1108.5 447.5 c 128,-1,32
 1111 409 1111 409 1111 369 c 0,33,34
 1111 298 1111 298 1100.5 228.5 c 128,-1,35
 1090 159 1090 159 1062 104 c 128,-1,36
 1034 49 1034 49 986 14.5 c 128,-1,37
 938 -20 938 -20 862 -20 c 0,38,39
 816 -20 816 -20 768 -4.5 c 128,-1,40
 720 11 720 11 673.5 35.5 c 128,-1,41
 627 60 627 60 584 90.5 c 128,-1,42
 541 121 541 121 504 150 c 1,43,44
 484 117 484 117 459.5 87 c 128,-1,45
 435 57 435 57 405 34 c 128,-1,46
 375 11 375 11 338 -3 c 128,-1,47
 301 -17 301 -17 258 -20 c 1,0,1
EndSplineSet
EndChar

StartChar: J
Encoding: 74 74 49
Width: 999
Flags: W
LayerCount: 2
Fore
SplineSet
94 -3 m 0,0,1
 94 19 94 19 101 58 c 128,-1,2
 108 97 108 97 120.5 139 c 128,-1,3
 133 181 133 181 151 219 c 128,-1,4
 169 257 169 257 190 276 c 1,5,6
 227 253 227 253 274.5 222 c 128,-1,7
 322 191 322 191 367.5 161 c 128,-1,8
 413 131 413 131 450.5 108 c 128,-1,9
 488 85 488 85 506 79 c 1,10,-1
 441 726 l 1,11,-1
 444 1159 l 1,12,-1
 312 1176 l 1,13,-1
 312 960 l 1,14,-1
 146 924 l 1,15,16
 124 947 124 947 99.5 987 c 128,-1,17
 75 1027 75 1027 54.5 1076 c 128,-1,18
 34 1125 34 1125 20.5 1179 c 128,-1,19
 7 1233 7 1233 7 1284 c 0,20,21
 7 1344 7 1344 24.5 1390 c 128,-1,22
 42 1436 42 1436 72 1466.5 c 128,-1,23
 102 1497 102 1497 142 1513 c 128,-1,24
 182 1529 182 1529 227 1529 c 0,25,26
 269 1529 269 1529 324 1516.5 c 128,-1,27
 379 1504 379 1504 435.5 1484.5 c 128,-1,28
 492 1465 492 1465 543 1441 c 128,-1,29
 594 1417 594 1417 628 1395 c 1,30,31
 642 1416 642 1416 664 1442.5 c 128,-1,32
 686 1469 686 1469 714.5 1492 c 128,-1,33
 743 1515 743 1515 776.5 1531 c 128,-1,34
 810 1547 810 1547 848 1549 c 1,35,36
 876 1528 876 1528 899 1495.5 c 128,-1,37
 922 1463 922 1463 938.5 1423 c 128,-1,38
 955 1383 955 1383 964 1339.5 c 128,-1,39
 973 1296 973 1296 973 1253 c 0,40,41
 973 1225 973 1225 969 1199 c 128,-1,42
 965 1173 965 1173 957 1150 c 1,43,44
 943 1142 943 1142 919.5 1137.5 c 128,-1,45
 896 1133 896 1133 871 1133 c 0,46,47
 845 1133 845 1133 820.5 1137.5 c 128,-1,48
 796 1142 796 1142 782 1153 c 1,49,-1
 777 1153 l 1,50,-1
 715 818 l 1,51,-1
 876 216 l 1,52,53
 860 154 860 154 829 96 c 128,-1,54
 798 38 798 38 753.5 -10.5 c 128,-1,55
 709 -59 709 -59 653 -97 c 128,-1,56
 597 -135 597 -135 531 -157 c 1,57,58
 510 -160 510 -160 488 -160 c 0,59,60
 432 -160 432 -160 370 -149 c 128,-1,61
 308 -138 308 -138 252.5 -121 c 128,-1,62
 197 -104 197 -104 154.5 -83 c 128,-1,63
 112 -62 112 -62 96 -40 c 1,64,65
 95 -30 95 -30 94.5 -21 c 128,-1,66
 94 -12 94 -12 94 -3 c 0,0,1
EndSplineSet
EndChar

StartChar: P
Encoding: 80 80 51
Width: 1264
Flags: W
LayerCount: 2
Fore
SplineSet
192 143 m 0,0,1
 192 150 192 150 193 173 c 128,-1,2
 194 196 194 196 195 228 c 128,-1,3
 196 260 196 260 198.5 297.5 c 128,-1,4
 201 335 201 335 204 371 c 128,-1,5
 207 407 207 407 210.5 438 c 128,-1,6
 214 469 214 469 219 488 c 1,7,8
 208 509 208 509 196.5 557.5 c 128,-1,9
 185 606 185 606 173.5 671 c 128,-1,10
 162 736 162 736 150.5 813 c 128,-1,11
 139 890 139 890 129 968 c 128,-1,12
 119 1046 119 1046 110.5 1119 c 128,-1,13
 102 1192 102 1192 96.5 1250.5 c 128,-1,14
 91 1309 91 1309 88.5 1347.5 c 128,-1,15
 86 1386 86 1386 88 1393 c 1,16,17
 110 1423 110 1423 140.5 1447.5 c 128,-1,18
 171 1472 171 1472 206 1490 c 128,-1,19
 241 1508 241 1508 280.5 1518 c 128,-1,20
 320 1528 320 1528 360 1529 c 0,21,22
 405 1530 405 1530 448 1518 c 128,-1,23
 491 1506 491 1506 530 1480 c 1,24,-1
 435 983 l 1,25,-1
 463 969 l 1,26,-1
 731 1531 l 1,27,28
 747 1536 747 1536 782 1541.5 c 128,-1,29
 817 1547 817 1547 861 1548 c 0,30,31
 889 1548 889 1548 932 1540 c 128,-1,32
 975 1532 975 1532 1023.5 1514.5 c 128,-1,33
 1072 1497 1072 1497 1123 1469.5 c 128,-1,34
 1174 1442 1174 1442 1219 1404 c 1,35,36
 1223 1349 1223 1349 1223 1282 c 128,-1,37
 1223 1215 1223 1215 1218.5 1141.5 c 128,-1,38
 1214 1068 1214 1068 1205.5 991.5 c 128,-1,39
 1197 915 1197 915 1184 840.5 c 128,-1,40
 1171 766 1171 766 1154 697 c 128,-1,41
 1137 628 1137 628 1116 570 c 1,42,43
 1100 551 1100 551 1068.5 520.5 c 128,-1,44
 1037 490 1037 490 999.5 461.5 c 128,-1,45
 962 433 962 433 923.5 412 c 128,-1,46
 885 391 885 391 855 391 c 0,47,48
 829 391 829 391 784 396.5 c 128,-1,49
 739 402 739 402 685.5 412 c 128,-1,50
 632 422 632 422 577.5 434.5 c 128,-1,51
 523 447 523 447 480 461 c 1,52,-1
 516 282 l 1,53,-1
 722 269 l 1,54,-1
 750 145 l 1,55,56
 736 116 736 116 702.5 86.5 c 128,-1,57
 669 57 669 57 623 33 c 128,-1,58
 577 9 577 9 521.5 -6 c 128,-1,59
 466 -21 466 -21 406 -21 c 0,60,61
 358 -21 358 -21 318.5 -6 c 128,-1,62
 279 9 279 9 251 32.5 c 128,-1,63
 223 56 223 56 207.5 85 c 128,-1,64
 192 114 192 114 192 143 c 0,0,1
504 695 m 1,65,66
 517 690 517 690 542.5 677.5 c 128,-1,67
 568 665 568 665 599 651 c 128,-1,68
 630 637 630 637 663 624.5 c 128,-1,69
 696 612 696 612 724 607 c 128,-1,70
 752 602 752 602 771.5 608.5 c 128,-1,71
 791 615 791 615 795 638 c 0,72,73
 805 697 805 697 814 760.5 c 128,-1,74
 823 824 823 824 828 888.5 c 128,-1,75
 833 953 833 953 833 1017.5 c 128,-1,76
 833 1082 833 1082 827 1143 c 1,77,-1
 780 1151 l 1,78,79
 762 1123 762 1123 737.5 1085 c 128,-1,80
 713 1047 713 1047 686 1004.5 c 128,-1,81
 659 962 659 962 631.5 917.5 c 128,-1,82
 604 873 604 873 579.5 831.5 c 128,-1,83
 555 790 555 790 535 754.5 c 128,-1,84
 515 719 515 719 504 695 c 1,65,66
EndSplineSet
EndChar

StartChar: K
Encoding: 75 75 52
Width: 1324
Flags: W
LayerCount: 2
Fore
SplineSet
123 62 m 1,0,1
 127 135 127 135 137 217 c 128,-1,2
 147 299 147 299 161.5 378.5 c 128,-1,3
 176 458 176 458 194 530 c 128,-1,4
 212 602 212 602 230 656 c 1,5,6
 204 735 204 735 182.5 831.5 c 128,-1,7
 161 928 161 928 143 1028 c 128,-1,8
 125 1128 125 1128 110 1224 c 128,-1,9
 95 1320 95 1320 82 1399 c 1,10,11
 96 1420 96 1420 126.5 1443 c 128,-1,12
 157 1466 157 1466 199 1485 c 128,-1,13
 241 1504 241 1504 292.5 1516.5 c 128,-1,14
 344 1529 344 1529 400 1529 c 0,15,16
 448 1529 448 1529 489 1520 c 128,-1,17
 530 1511 530 1511 566 1489 c 1,18,-1
 494 655 l 1,19,-1
 600 667 l 1,20,21
 629 722 629 722 662.5 793 c 128,-1,22
 696 864 696 864 726 935.5 c 128,-1,23
 756 1007 756 1007 779.5 1072.5 c 128,-1,24
 803 1138 803 1138 813 1183 c 1,25,-1
 672 1233 l 1,26,27
 678 1286 678 1286 691.5 1336 c 128,-1,28
 705 1386 705 1386 726.5 1428 c 128,-1,29
 748 1470 748 1470 777 1501 c 128,-1,30
 806 1532 806 1532 842 1549 c 1,31,32
 874 1549 874 1549 923.5 1540 c 128,-1,33
 973 1531 973 1531 1028 1510 c 128,-1,34
 1083 1489 1083 1489 1136 1455 c 128,-1,35
 1189 1421 1189 1421 1228 1372 c 1,36,37
 1219 1296 1219 1296 1183.5 1204.5 c 128,-1,38
 1148 1113 1148 1113 1098 1018.5 c 128,-1,39
 1048 924 1048 924 989.5 832.5 c 128,-1,40
 931 741 931 741 877 665 c 1,41,42
 893 635 893 635 915.5 594 c 128,-1,43
 938 553 938 553 963.5 511 c 128,-1,44
 989 469 989 469 1016.5 430.5 c 128,-1,45
 1044 392 1044 392 1071 366 c 1,46,47
 1105 378 1105 378 1139 401 c 128,-1,48
 1173 424 1173 424 1206 452 c 1,49,-1
 1324 350 l 1,50,51
 1324 311 1324 311 1315.5 271 c 128,-1,52
 1307 231 1307 231 1293.5 194 c 128,-1,53
 1280 157 1280 157 1263 125 c 128,-1,54
 1246 93 1246 93 1230 69 c 0,55,56
 1199 24 1199 24 1153.5 2.5 c 128,-1,57
 1108 -19 1108 -19 1051 -19 c 0,58,59
 993 -19 993 -19 929 2 c 0,60,61
 899 11 899 11 874.5 30.5 c 128,-1,62
 850 50 850 50 830 76.5 c 128,-1,63
 810 103 810 103 794 134.5 c 128,-1,64
 778 166 778 166 765 201 c 0,65,66
 754 231 754 231 744.5 265.5 c 128,-1,67
 735 300 735 300 727 334.5 c 128,-1,68
 719 369 719 369 713 402 c 128,-1,69
 707 435 707 435 703 462 c 1,70,71
 653 465 653 465 602.5 469 c 128,-1,72
 552 473 552 473 508 478 c 1,73,74
 528 370 528 370 544.5 251 c 128,-1,75
 561 132 561 132 568 19 c 1,76,77
 536 -2 536 -2 490.5 -11 c 128,-1,78
 445 -20 445 -20 391 -20 c 0,79,80
 301 -20 301 -20 232 2 c 128,-1,81
 163 24 163 24 123 62 c 1,0,1
EndSplineSet
EndChar

StartChar: v
Encoding: 118 118 54
Width: 1062
Flags: W
LayerCount: 2
Fore
SplineSet
245 47 m 1,0,1
 251 96 251 96 256.5 132 c 128,-1,2
 262 168 262 168 268 195.5 c 128,-1,3
 274 223 274 223 281 243.5 c 128,-1,4
 288 264 288 264 297 283 c 1,5,-1
 165 693 l 1,6,-1
 0 889 l 1,7,8
 5 921 5 921 13 953 c 128,-1,9
 21 985 21 985 33 1014 c 128,-1,10
 45 1043 45 1043 61.5 1067.5 c 128,-1,11
 78 1092 78 1092 101 1109 c 0,12,13
 143 1141 143 1141 192.5 1156.5 c 128,-1,14
 242 1172 242 1172 288.5 1169 c 128,-1,15
 335 1166 335 1166 373.5 1144 c 128,-1,16
 412 1122 412 1122 433 1079 c 1,17,-1
 434 1079 l 1,18,19
 440 1066 440 1066 451 1021.5 c 128,-1,20
 462 977 462 977 475 912 c 128,-1,21
 488 847 488 847 502.5 768 c 128,-1,22
 517 689 517 689 529 607 c 128,-1,23
 541 525 541 525 550.5 446.5 c 128,-1,24
 560 368 560 368 564 305 c 1,25,-1
 577 304 l 1,26,27
 597 355 597 355 615.5 414.5 c 128,-1,28
 634 474 634 474 650 533 c 128,-1,29
 666 592 666 592 678.5 646 c 128,-1,30
 691 700 691 700 698 739 c 1,31,32
 676 758 676 758 654 777 c 128,-1,33
 632 796 632 796 611.5 818.5 c 128,-1,34
 591 841 591 841 572 868.5 c 128,-1,35
 553 896 553 896 537 932 c 1,36,37
 558 983 558 983 597.5 1030 c 128,-1,38
 637 1077 637 1077 685.5 1113.5 c 128,-1,39
 734 1150 734 1150 787 1174 c 128,-1,40
 840 1198 840 1198 888 1204 c 1,41,42
 924 1174 924 1174 952 1131 c 128,-1,43
 980 1088 980 1088 1000 1038 c 128,-1,44
 1020 988 1020 988 1031.5 934.5 c 128,-1,45
 1043 881 1043 881 1045 830 c 1,46,47
 1028 795 1028 795 996.5 728 c 128,-1,48
 965 661 965 661 923.5 577 c 128,-1,49
 882 493 882 493 832.5 399.5 c 128,-1,50
 783 306 783 306 731 219 c 1,51,52
 747 187 747 187 760 145.5 c 128,-1,53
 773 104 773 104 784 44 c 1,54,55
 764 27 764 27 735 15 c 128,-1,56
 706 3 706 3 671 -5 c 128,-1,57
 636 -13 636 -13 596.5 -17 c 128,-1,58
 557 -21 557 -21 517 -21 c 0,59,60
 475 -21 475 -21 433.5 -16.5 c 128,-1,61
 392 -12 392 -12 356 -3.5 c 128,-1,62
 320 5 320 5 291 17.5 c 128,-1,63
 262 30 262 30 245 47 c 1,0,1
EndSplineSet
EndChar

StartChar: G
Encoding: 71 71 55
Width: 1171
Flags: W
LayerCount: 2
Fore
SplineSet
233 95 m 0,0,1
 198 122 198 122 184 144.5 c 128,-1,2
 170 167 170 167 166 192 c 1,3,4
 164 231 164 231 161.5 279 c 128,-1,5
 159 327 159 327 156 381 c 128,-1,6
 153 435 153 435 149.5 494 c 128,-1,7
 146 553 146 553 142 613 c 0,8,9
 137 694 137 694 130.5 774 c 128,-1,10
 124 854 124 854 117.5 927 c 128,-1,11
 111 1000 111 1000 104.5 1062.5 c 128,-1,12
 98 1125 98 1125 93 1171 c 0,13,14
 91 1184 91 1184 89.5 1201.5 c 128,-1,15
 88 1219 88 1219 86.5 1236 c 128,-1,16
 85 1253 85 1253 84 1266.5 c 128,-1,17
 83 1280 83 1280 83 1286 c 1,18,19
 92 1321 92 1321 121.5 1360.5 c 128,-1,20
 151 1400 151 1400 191 1436.5 c 128,-1,21
 231 1473 231 1473 277.5 1502.5 c 128,-1,22
 324 1532 324 1532 369 1549 c 1,23,24
 392 1546 392 1546 436.5 1534.5 c 128,-1,25
 481 1523 481 1523 529.5 1508 c 128,-1,26
 578 1493 578 1493 623 1477.5 c 128,-1,27
 668 1462 668 1462 691 1450 c 1,28,-1
 1034 1481 l 1,29,30
 1047 1417 1047 1417 1047 1359.5 c 128,-1,31
 1047 1302 1047 1302 1037 1252 c 128,-1,32
 1027 1202 1027 1202 1010.5 1160.5 c 128,-1,33
 994 1119 994 1119 975 1088 c 128,-1,34
 956 1057 956 1057 937.5 1037 c 128,-1,35
 919 1017 919 1017 905 1010 c 1,36,37
 871 1017 871 1017 823 1034 c 128,-1,38
 775 1051 775 1051 723 1075 c 128,-1,39
 671 1099 671 1099 621 1129 c 128,-1,40
 571 1159 571 1159 534 1192 c 1,41,-1
 510 1170 l 1,42,43
 515 1121 515 1121 515 1053 c 128,-1,44
 515 985 515 985 512.5 907 c 128,-1,45
 510 829 510 829 505.5 746 c 128,-1,46
 501 663 501 663 495 584.5 c 128,-1,47
 489 506 489 506 482.5 437.5 c 128,-1,48
 476 369 476 369 470 320 c 1,49,-1
 469 282 l 1,50,-1
 472 282 l 1,51,52
 484 281 484 281 505.5 292.5 c 128,-1,53
 527 304 527 304 553.5 323 c 128,-1,54
 580 342 580 342 609 365.5 c 128,-1,55
 638 389 638 389 666.5 413 c 128,-1,56
 695 437 695 437 720.5 459 c 128,-1,57
 746 481 746 481 764 497 c 1,58,59
 744 556 744 556 732 608 c 128,-1,60
 720 660 720 660 713.5 701.5 c 128,-1,61
 707 743 707 743 705 772 c 128,-1,62
 703 801 703 801 703 815 c 1,63,64
 712 819 712 819 728.5 824 c 128,-1,65
 745 829 745 829 767 833 c 128,-1,66
 789 837 789 837 815.5 839.5 c 128,-1,67
 842 842 842 842 871 842 c 0,68,69
 964 842 964 842 1030 812.5 c 128,-1,70
 1096 783 1096 783 1148 720 c 1,71,-1
 1050 499 l 1,72,-1
 1114 23 l 1,73,74
 1103 15 1103 15 1086 7.5 c 128,-1,75
 1069 0 1069 0 1049 -6 c 128,-1,76
 1029 -12 1029 -12 1007.5 -16 c 128,-1,77
 986 -20 986 -20 965 -20 c 0,78,79
 902 -19 902 -19 842.5 -4.5 c 128,-1,80
 783 10 783 10 745 48 c 1,81,82
 747 81 747 81 751 113 c 128,-1,83
 755 145 755 145 760 180 c 128,-1,84
 765 215 765 215 770.5 253 c 128,-1,85
 776 291 776 291 781 336 c 1,86,-1
 757 347 l 1,87,88
 744 316 744 316 724.5 277 c 128,-1,89
 705 238 705 238 681 197 c 128,-1,90
 657 156 657 156 629.5 117 c 128,-1,91
 602 78 602 78 571.5 47.5 c 128,-1,92
 541 17 541 17 509.5 -1.5 c 128,-1,93
 478 -20 478 -20 446 -20 c 0,94,95
 423 -20 423 -20 401 -11.5 c 128,-1,96
 379 -3 379 -3 359 11 c 1,97,98
 324 29 324 29 291 52 c 128,-1,99
 258 75 258 75 233 95 c 0,0,1
EndSplineSet
EndChar

StartChar: M
Encoding: 77 77 56
Width: 1859
Flags: W
LayerCount: 2
Fore
SplineSet
82 305 m 1,0,-1
 192 296 l 1,1,-1
 193 305 l 1,2,-1
 262 1175 l 1,3,-1
 93 1226 l 1,4,5
 96 1271 96 1271 106 1317 c 128,-1,6
 116 1363 116 1363 137 1406 c 128,-1,7
 158 1449 158 1449 192.5 1485.5 c 128,-1,8
 227 1522 227 1522 280 1549 c 1,9,10
 303 1546 303 1546 341.5 1537 c 128,-1,11
 380 1528 380 1528 427 1514.5 c 128,-1,12
 474 1501 474 1501 526 1483 c 128,-1,13
 578 1465 578 1465 628.5 1443.5 c 128,-1,14
 679 1422 679 1422 725 1397 c 128,-1,15
 771 1372 771 1372 806 1346 c 1,16,-1
 978 556 l 1,17,-1
 986 557 l 1,18,-1
 1012 777 l 1,19,20
 1021 832 1021 832 1032 892.5 c 128,-1,21
 1043 953 1043 953 1053.5 1010 c 128,-1,22
 1064 1067 1064 1067 1073.5 1116.5 c 128,-1,23
 1083 1166 1083 1166 1090 1200 c 1,24,25
 1061 1212 1061 1212 1036 1224 c 128,-1,26
 1011 1236 1011 1236 992 1247 c 1,27,28
 996 1292 996 1292 1011 1337.5 c 128,-1,29
 1026 1383 1026 1383 1053 1423.5 c 128,-1,30
 1080 1464 1080 1464 1118 1496.5 c 128,-1,31
 1156 1529 1156 1529 1207 1549 c 1,32,33
 1234 1545 1234 1545 1274.5 1531.5 c 128,-1,34
 1315 1518 1315 1518 1363 1498 c 128,-1,35
 1411 1478 1411 1478 1461.5 1453 c 128,-1,36
 1512 1428 1512 1428 1558.5 1401.5 c 128,-1,37
 1605 1375 1605 1375 1642.5 1348.5 c 128,-1,38
 1680 1322 1680 1322 1702 1299 c 1,39,40
 1700 1249 1700 1249 1697 1180 c 128,-1,41
 1694 1111 1694 1111 1689.5 1029 c 128,-1,42
 1685 947 1685 947 1678 855.5 c 128,-1,43
 1671 764 1671 764 1661.5 670.5 c 128,-1,44
 1652 577 1652 577 1639.5 484 c 128,-1,45
 1627 391 1627 391 1611 307 c 1,46,-1
 1797 334 l 1,47,-1
 1829 168 l 1,48,49
 1821 156 1821 156 1804.5 125 c 128,-1,50
 1788 94 1788 94 1758.5 62 c 128,-1,51
 1729 30 1729 30 1684 5 c 128,-1,52
 1639 -20 1639 -20 1575 -20 c 0,53,54
 1531 -20 1531 -20 1490.5 -8 c 128,-1,55
 1450 4 1450 4 1417.5 28.5 c 128,-1,56
 1385 53 1385 53 1363.5 89.5 c 128,-1,57
 1342 126 1342 126 1336 174 c 0,58,59
 1333 198 1333 198 1330 233 c 128,-1,60
 1327 268 1327 268 1324.5 310 c 128,-1,61
 1322 352 1322 352 1319.5 399 c 128,-1,62
 1317 446 1317 446 1315 494 c 0,63,64
 1310 582 1310 582 1307.5 677.5 c 128,-1,65
 1305 773 1305 773 1304.5 863.5 c 128,-1,66
 1304 954 1304 954 1304.5 1034 c 128,-1,67
 1305 1114 1305 1114 1307 1171 c 1,68,-1
 1288 1174 l 1,69,-1
 1094 323 l 1,70,71
 1110 288 1110 288 1121 253.5 c 128,-1,72
 1132 219 1132 219 1140.5 183 c 128,-1,73
 1149 147 1149 147 1155 110 c 128,-1,74
 1161 73 1161 73 1168 35 c 1,75,76
 1129 6 1129 6 1077.5 -6.5 c 128,-1,77
 1026 -19 1026 -19 970 -19 c 0,78,79
 932 -19 932 -19 895 -13.5 c 128,-1,80
 858 -8 858 -8 823.5 2.5 c 128,-1,81
 789 13 789 13 759 28 c 128,-1,82
 729 43 729 43 707 62 c 1,83,84
 707 77 707 77 708.5 107 c 128,-1,85
 710 137 710 137 714.5 170.5 c 128,-1,86
 719 204 719 204 727 235.5 c 128,-1,87
 735 267 735 267 748 286 c 1,88,-1
 459 1175 l 1,89,-1
 440 1168 l 1,90,91
 445 1143 445 1143 454.5 1083.5 c 128,-1,92
 464 1024 464 1024 475.5 943 c 128,-1,93
 487 862 487 862 498.5 768 c 128,-1,94
 510 674 510 674 520 580 c 128,-1,95
 530 486 530 486 537 399.5 c 128,-1,96
 544 313 544 313 545 248 c 0,97,98
 546 194 546 194 534.5 145 c 128,-1,99
 523 96 523 96 496 59.5 c 128,-1,100
 469 23 469 23 424.5 1.5 c 128,-1,101
 380 -20 380 -20 314 -20 c 2,102,-1
 312 -20 l 1,103,-1
 295 -20 l 1,104,105
 253 -19 253 -19 213 -7.5 c 128,-1,106
 173 4 173 4 138.5 25 c 128,-1,107
 104 46 104 46 77.5 75.5 c 128,-1,108
 51 105 51 105 37 142 c 1,109,-1
 82 305 l 1,0,-1
EndSplineSet
EndChar

StartChar: V
Encoding: 86 86 57
Width: 1211
Flags: W
LayerCount: 2
Fore
SplineSet
340 46 m 1,0,1
 345 121 345 121 359.5 178 c 128,-1,2
 374 235 374 235 391 282 c 1,3,-1
 124 1065 l 1,4,-1
 -51 1287 l 1,5,6
 -45 1346 -45 1346 -19.5 1391 c 128,-1,7
 6 1436 6 1436 43.5 1467 c 128,-1,8
 81 1498 81 1498 128 1513.5 c 128,-1,9
 175 1529 175 1529 225 1529 c 0,10,11
 272 1529 272 1529 317.5 1515.5 c 128,-1,12
 363 1502 363 1502 403 1472 c 1,13,14
 408 1461 408 1461 420.5 1420.5 c 128,-1,15
 433 1380 433 1380 449.5 1318 c 128,-1,16
 466 1256 466 1256 485.5 1176.5 c 128,-1,17
 505 1097 505 1097 525 1009.5 c 128,-1,18
 545 922 545 922 564.5 830 c 128,-1,19
 584 738 584 738 600.5 650.5 c 128,-1,20
 617 563 617 563 628.5 484 c 128,-1,21
 640 405 640 405 645 343 c 1,22,-1
 814 1082 l 1,23,24
 788 1104 788 1104 762.5 1125.5 c 128,-1,25
 737 1147 737 1147 713 1172.5 c 128,-1,26
 689 1198 689 1198 666 1229.5 c 128,-1,27
 643 1261 643 1261 623 1302 c 1,28,29
 645 1360 645 1360 687 1403.5 c 128,-1,30
 729 1447 729 1447 781.5 1477.5 c 128,-1,31
 834 1508 834 1508 891.5 1526 c 128,-1,32
 949 1544 949 1544 1003 1551 c 1,33,34
 1045 1517 1045 1517 1079 1468 c 128,-1,35
 1113 1419 1113 1419 1137.5 1362 c 128,-1,36
 1162 1305 1162 1305 1177 1244.5 c 128,-1,37
 1192 1184 1192 1184 1196 1127 c 1,38,-1
 827 259 l 1,39,40
 844 218 844 218 859.5 166 c 128,-1,41
 875 114 875 114 888 41 c 1,42,43
 847 9 847 9 778 -6.5 c 128,-1,44
 709 -22 709 -22 631 -22 c 0,45,46
 587 -22 587 -22 543.5 -17.5 c 128,-1,47
 500 -13 500 -13 461.5 -4 c 128,-1,48
 423 5 423 5 391.5 17.5 c 128,-1,49
 360 30 360 30 340 46 c 1,0,1
EndSplineSet
EndChar

StartChar: Q
Encoding: 81 81 58
Width: 1291
Flags: W
LayerCount: 2
Fore
SplineSet
221 -77 m 1,0,1
 257 -57 257 -57 291.5 -41.5 c 128,-1,2
 326 -26 326 -26 366 -20 c 1,3,-1
 421 -69 l 1,4,-1
 567 30 l 1,5,6
 513 37 513 37 455.5 48 c 128,-1,7
 398 59 398 59 346 73.5 c 128,-1,8
 294 88 294 88 251.5 106.5 c 128,-1,9
 209 125 209 125 185 147 c 1,10,11
 176 207 176 207 166 285.5 c 128,-1,12
 156 364 156 364 147 450.5 c 128,-1,13
 138 537 138 537 129.5 627.5 c 128,-1,14
 121 718 121 718 115 802 c 128,-1,15
 109 886 109 886 105.5 958 c 128,-1,16
 102 1030 102 1030 102 1081 c 0,17,18
 102 1108 102 1108 102.5 1144.5 c 128,-1,19
 103 1181 103 1181 106 1218 c 128,-1,20
 109 1255 109 1255 116.5 1287 c 128,-1,21
 124 1319 124 1319 138 1337 c 0,22,23
 157 1361 157 1361 195.5 1386.5 c 128,-1,24
 234 1412 234 1412 283 1435.5 c 128,-1,25
 332 1459 332 1459 385.5 1479.5 c 128,-1,26
 439 1500 439 1500 487 1515.5 c 128,-1,27
 535 1531 535 1531 573 1540 c 128,-1,28
 611 1549 611 1549 628 1549 c 0,29,30
 652 1549 652 1549 695.5 1540 c 128,-1,31
 739 1531 739 1531 791.5 1515.5 c 128,-1,32
 844 1500 844 1500 901.5 1478.5 c 128,-1,33
 959 1457 959 1457 1011.5 1431.5 c 128,-1,34
 1064 1406 1064 1406 1106.5 1378 c 128,-1,35
 1149 1350 1149 1350 1173 1321 c 1,36,37
 1176 1291 1176 1291 1179 1263.5 c 128,-1,38
 1182 1236 1182 1236 1184.5 1206 c 128,-1,39
 1187 1176 1187 1176 1188 1141 c 128,-1,40
 1189 1106 1189 1106 1189 1060 c 0,41,42
 1189 1005 1189 1005 1185 929 c 128,-1,43
 1181 853 1181 853 1174.5 767.5 c 128,-1,44
 1168 682 1168 682 1159 593.5 c 128,-1,45
 1150 505 1150 505 1140.5 426.5 c 128,-1,46
 1131 348 1131 348 1120.5 286 c 128,-1,47
 1110 224 1110 224 1101 190 c 0,48,49
 1093 163 1093 163 1067 140.5 c 128,-1,50
 1041 118 1041 118 1008 99 c 1,51,52
 980 80 980 80 941 59 c 128,-1,53
 902 38 902 38 859.5 17.5 c 128,-1,54
 817 -3 817 -3 775 -21.5 c 128,-1,55
 733 -40 733 -40 699.5 -55.5 c 128,-1,56
 666 -71 666 -71 645 -81 c 128,-1,57
 624 -91 624 -91 623 -94 c 1,58,-1
 627 -123 l 1,59,60
 670 -120 670 -120 720 -116.5 c 128,-1,61
 770 -113 770 -113 822 -109 c 128,-1,62
 874 -105 874 -105 926 -100.5 c 128,-1,63
 978 -96 978 -96 1024.5 -92 c 128,-1,64
 1071 -88 1071 -88 1110.5 -84 c 128,-1,65
 1150 -80 1150 -80 1177 -76 c 1,66,67
 1192 -114 1192 -114 1188.5 -165 c 128,-1,68
 1185 -216 1185 -216 1168.5 -266.5 c 128,-1,69
 1152 -317 1152 -317 1125.5 -360 c 128,-1,70
 1099 -403 1099 -403 1068 -424 c 1,71,72
 1060 -440 1060 -440 1040 -446 c 1,73,74
 1002 -442 1002 -442 940 -431 c 128,-1,75
 878 -420 878 -420 805.5 -403.5 c 128,-1,76
 733 -387 733 -387 656.5 -365.5 c 128,-1,77
 580 -344 580 -344 513 -318 c 1,78,79
 484 -355 484 -355 445.5 -380.5 c 128,-1,80
 407 -406 407 -406 353 -410 c 1,81,82
 320 -390 320 -390 294.5 -354.5 c 128,-1,83
 269 -319 269 -319 252 -274 c 128,-1,84
 235 -229 235 -229 227 -178.5 c 128,-1,85
 219 -128 219 -128 221 -77 c 1,0,1
500 331 m 1,86,87
 521 319 521 319 548.5 305 c 128,-1,88
 576 291 576 291 606.5 278 c 128,-1,89
 637 265 637 265 668 254.5 c 128,-1,90
 699 244 699 244 725 238 c 1,91,-1
 786 280 l 1,92,93
 792 336 792 336 794.5 415.5 c 128,-1,94
 797 495 797 495 797 586 c 0,95,96
 797 659 797 659 795.5 733.5 c 128,-1,97
 794 808 794 808 791.5 877.5 c 128,-1,98
 789 947 789 947 785 1008.5 c 128,-1,99
 781 1070 781 1070 777 1118 c 1,100,-1
 566 1209 l 1,101,-1
 497 1174 l 1,102,103
 494 1141 494 1141 492 1097 c 128,-1,104
 490 1053 490 1053 488.5 1002.5 c 128,-1,105
 487 952 487 952 486.5 897 c 128,-1,106
 486 842 486 842 486 786 c 0,107,108
 486 721 486 721 487 657.5 c 128,-1,109
 488 594 488 594 489.5 535.5 c 128,-1,110
 491 477 491 477 493.5 425 c 128,-1,111
 496 373 496 373 500 331 c 1,86,87
EndSplineSet
EndChar

StartChar: X
Encoding: 88 88 59
Width: 1345
Flags: W
LayerCount: 2
Fore
SplineSet
293 -19 m 0,0,1
 264 -19 264 -19 234.5 2 c 128,-1,2
 205 23 205 23 178 58 c 128,-1,3
 151 93 151 93 127 138.5 c 128,-1,4
 103 184 103 184 84 233 c 128,-1,5
 65 282 65 282 51.5 330.5 c 128,-1,6
 38 379 38 379 32 421 c 1,7,8
 73 480 73 480 123 515.5 c 128,-1,9
 173 551 173 551 240 575 c 1,10,-1
 381 433 l 1,11,-1
 505 746 l 1,12,-1
 318 1120 l 1,13,-1
 163 1023 l 1,14,-1
 26 1157 l 1,15,16
 32 1199 32 1199 47.5 1250.5 c 128,-1,17
 63 1302 63 1302 86 1352 c 128,-1,18
 109 1402 109 1402 140 1443 c 128,-1,19
 171 1484 171 1484 209 1505 c 1,20,21
 290 1527 290 1527 356 1527 c 0,22,23
 443 1527 443 1527 501.5 1487 c 128,-1,24
 560 1447 560 1447 599 1362 c 0,25,26
 628 1299 628 1299 647 1238.5 c 128,-1,27
 666 1178 666 1178 677 1123 c 128,-1,28
 688 1068 688 1068 693.5 1020.5 c 128,-1,29
 699 973 699 973 702 936 c 1,30,31
 714 1028 714 1028 728 1109.5 c 128,-1,32
 742 1191 742 1191 756 1254 c 128,-1,33
 770 1317 770 1317 782.5 1357.5 c 128,-1,34
 795 1398 795 1398 804 1408 c 0,35,36
 822 1428 822 1428 852 1449 c 128,-1,37
 882 1470 882 1470 919.5 1487 c 128,-1,38
 957 1504 957 1504 1000.5 1515.5 c 128,-1,39
 1044 1527 1044 1527 1088 1529 c 1,40,41
 1129 1492 1129 1492 1167.5 1442.5 c 128,-1,42
 1206 1393 1206 1393 1235.5 1336.5 c 128,-1,43
 1265 1280 1265 1280 1283 1218.5 c 128,-1,44
 1301 1157 1301 1157 1302 1097 c 1,45,46
 1257 1034 1257 1034 1194.5 996 c 128,-1,47
 1132 958 1132 958 1050 940 c 1,48,-1
 937 1126 l 1,49,-1
 778 786 l 1,50,-1
 1013 379 l 1,51,-1
 1155 505 l 1,52,-1
 1290 405 l 1,53,54
 1260 227 1260 227 1184 89 c 0,55,56
 1154 34 1154 34 1096.5 7 c 128,-1,57
 1039 -20 1039 -20 959 -20 c 0,58,59
 929 -20 929 -20 898.5 -13.5 c 128,-1,60
 868 -7 868 -7 841 5.5 c 128,-1,61
 814 18 814 18 792 37.5 c 128,-1,62
 770 57 770 57 755 84 c 0,63,64
 723 141 723 141 700 205.5 c 128,-1,65
 677 270 677 270 660.5 334 c 128,-1,66
 644 398 644 398 634.5 456.5 c 128,-1,67
 625 515 625 515 621 560 c 1,68,-1
 615 562 l 1,69,70
 608 536 608 536 599.5 502.5 c 128,-1,71
 591 469 591 469 580.5 431 c 128,-1,72
 570 393 570 393 558 352 c 128,-1,73
 546 311 546 311 531 271 c 0,74,75
 511 215 511 215 486.5 162.5 c 128,-1,76
 462 110 462 110 432.5 69.5 c 128,-1,77
 403 29 403 29 368 5 c 128,-1,78
 333 -19 333 -19 293 -19 c 0,0,1
EndSplineSet
EndChar

StartChar: Y
Encoding: 89 89 60
Width: 1168
Flags: W
LayerCount: 2
Fore
SplineSet
374 228 m 0,0,1
 373 271 373 271 377.5 308 c 128,-1,2
 382 345 382 345 388 378.5 c 128,-1,3
 394 412 394 412 400.5 443 c 128,-1,4
 407 474 407 474 411 505 c 1,5,-1
 262 621 l 1,6,-1
 120 1131 l 1,7,-1
 0 1269 l 1,8,9
 2 1325 2 1325 18 1366 c 128,-1,10
 34 1407 34 1407 58.5 1436 c 128,-1,11
 83 1465 83 1465 112 1483 c 128,-1,12
 141 1501 141 1501 170 1511 c 128,-1,13
 199 1521 199 1521 224 1525 c 128,-1,14
 249 1529 249 1529 265 1529 c 0,15,16
 319 1530 319 1530 365.5 1519 c 128,-1,17
 412 1508 412 1508 452 1480 c 1,18,-1
 585 640 l 1,19,-1
 630 640 l 1,20,-1
 783 1078 l 1,21,22
 758 1100 758 1100 735 1123.5 c 128,-1,23
 712 1147 712 1147 690.5 1174 c 128,-1,24
 669 1201 669 1201 649.5 1234 c 128,-1,25
 630 1267 630 1267 611 1308 c 1,26,27
 635 1366 635 1366 679 1408.5 c 128,-1,28
 723 1451 723 1451 776 1480 c 128,-1,29
 829 1509 829 1509 887.5 1525.5 c 128,-1,30
 946 1542 946 1542 1000 1549 c 1,31,32
 1082 1481 1082 1481 1121 1380.5 c 128,-1,33
 1160 1280 1160 1280 1165 1165 c 1,34,35
 1145 1113 1145 1113 1110 1037.5 c 128,-1,36
 1075 962 1075 962 1031 879.5 c 128,-1,37
 987 797 987 797 935 716.5 c 128,-1,38
 883 636 883 636 828 574 c 1,39,-1
 692 498 l 1,40,-1
 723 307 l 1,41,42
 744 310 744 310 775.5 318.5 c 128,-1,43
 807 327 807 327 842 337.5 c 128,-1,44
 877 348 877 348 911 360 c 128,-1,45
 945 372 945 372 969 382 c 1,46,-1
 1044 236 l 1,47,48
 1025 192 1025 192 983 146.5 c 128,-1,49
 941 101 941 101 888.5 64 c 128,-1,50
 836 27 836 27 779 3.5 c 128,-1,51
 722 -20 722 -20 673 -20 c 0,52,53
 620 -20 620 -20 567 -3 c 128,-1,54
 514 14 514 14 471.5 46 c 128,-1,55
 429 78 429 78 402 124 c 128,-1,56
 375 170 375 170 374 228 c 0,0,1
EndSplineSet
EndChar

StartChar: Z
Encoding: 90 90 61
Width: 1208
Flags: W
LayerCount: 2
Fore
SplineSet
206 -20 m 1,0,1
 170 2 170 2 136.5 49.5 c 128,-1,2
 103 97 103 97 78 154.5 c 128,-1,3
 53 212 53 212 39.5 272 c 128,-1,4
 26 332 26 332 30 381 c 1,5,6
 62 425 62 425 100 459.5 c 128,-1,7
 138 494 138 494 168 511 c 1,8,9
 196 505 196 505 226.5 495.5 c 128,-1,10
 257 486 257 486 288 469 c 1,11,-1
 653 1154 l 1,12,-1
 416 1190 l 1,13,-1
 371 887 l 1,14,-1
 186 847 l 1,15,16
 158 877 158 877 131.5 936.5 c 128,-1,17
 105 996 105 996 86 1067.5 c 128,-1,18
 67 1139 67 1139 60 1214 c 128,-1,19
 53 1289 53 1289 65 1351 c 0,20,21
 71 1379 71 1379 91.5 1405 c 128,-1,22
 112 1431 112 1431 141 1453.5 c 128,-1,23
 170 1476 170 1476 203.5 1493.5 c 128,-1,24
 237 1511 237 1511 267 1523.5 c 128,-1,25
 297 1536 297 1536 321 1542.5 c 128,-1,26
 345 1549 345 1549 356 1549 c 1,27,28
 411 1541 411 1541 471 1528 c 128,-1,29
 531 1515 531 1515 592 1498.5 c 128,-1,30
 653 1482 653 1482 712.5 1462.5 c 128,-1,31
 772 1443 772 1443 826 1423 c 1,32,33
 845 1443 845 1443 867 1462.5 c 128,-1,34
 889 1482 889 1482 914 1498.5 c 128,-1,35
 939 1515 939 1515 967.5 1528 c 128,-1,36
 996 1541 996 1541 1030 1549 c 1,37,38
 1087 1535 1087 1535 1121 1488 c 128,-1,39
 1155 1441 1155 1441 1167 1378 c 128,-1,40
 1179 1315 1179 1315 1170.5 1245 c 128,-1,41
 1162 1175 1162 1175 1134 1116 c 1,42,-1
 1011 1120 l 1,43,44
 994 1093 994 1093 962.5 1043 c 128,-1,45
 931 993 931 993 890 930.5 c 128,-1,46
 849 868 849 868 802.5 797.5 c 128,-1,47
 756 727 756 727 709.5 658 c 128,-1,48
 663 589 663 589 619 527 c 128,-1,49
 575 465 575 465 541 419 c 1,50,-1
 541 418 l 1,51,-1
 850 360 l 1,52,-1
 945 649 l 1,53,-1
 1129 625 l 1,54,55
 1135 608 1135 608 1141 581 c 128,-1,56
 1147 554 1147 554 1151.5 520 c 128,-1,57
 1156 486 1156 486 1158.5 447.5 c 128,-1,58
 1161 409 1161 409 1161 369 c 0,59,60
 1161 298 1161 298 1150.5 228.5 c 128,-1,61
 1140 159 1140 159 1112 104 c 128,-1,62
 1084 49 1084 49 1036 14.5 c 128,-1,63
 988 -20 988 -20 912 -20 c 0,64,65
 858 -20 858 -20 797 1.5 c 128,-1,66
 736 23 736 23 675 57.5 c 128,-1,67
 614 92 614 92 555.5 134 c 128,-1,68
 497 176 497 176 448 218 c 1,69,70
 434 173 434 173 411 130 c 128,-1,71
 388 87 388 87 357 54 c 128,-1,72
 326 21 326 21 288 0.5 c 128,-1,73
 250 -20 250 -20 206 -20 c 1,0,1
EndSplineSet
EndChar

StartChar: zero
Encoding: 48 48 62
Width: 1158
Flags: W
LayerCount: 2
Fore
SplineSet
567 -20 m 0,0,1
 425 -20 425 -20 329 27 c 128,-1,2
 233 74 233 74 175 156 c 128,-1,3
 117 238 117 238 93 347 c 128,-1,4
 69 456 69 456 71 581 c 256,5,6
 73 706 73 706 101 816 c 128,-1,7
 129 926 129 926 190 1008 c 128,-1,8
 251 1090 251 1090 348.5 1137.5 c 128,-1,9
 446 1185 446 1185 588 1185 c 0,10,11
 739 1185 739 1185 836.5 1137.5 c 128,-1,12
 934 1090 934 1090 990.5 1008 c 128,-1,13
 1047 926 1047 926 1068 816 c 128,-1,14
 1089 706 1089 706 1087 581 c 0,15,16
 1085 458 1085 458 1055.5 348.5 c 128,-1,17
 1026 239 1026 239 963.5 157.5 c 128,-1,18
 901 76 901 76 803 28 c 128,-1,19
 705 -20 705 -20 567 -20 c 0,0,1
455 290 m 1,20,21
 520 246 520 246 632 222 c 1,22,-1
 694 265 l 1,23,24
 706 332 706 332 712 392.5 c 128,-1,25
 718 453 718 453 718 513 c 0,26,27
 718 549 718 549 716 589.5 c 128,-1,28
 714 630 714 630 710 670.5 c 128,-1,29
 706 711 706 711 700 750.5 c 128,-1,30
 694 790 694 790 685 826 c 1,31,-1
 522 883 l 1,32,-1
 453 850 l 1,33,34
 425 720 425 720 425 588 c 0,35,36
 425 518 425 518 432.5 442 c 128,-1,37
 440 366 440 366 455 290 c 1,20,21
EndSplineSet
EndChar

StartChar: one
Encoding: 49 49 63
Width: 748
Flags: W
LayerCount: 2
Fore
SplineSet
293 565 m 1,0,-1
 263 768 l 1,1,-1
 72 735 l 1,2,-1
 3 884 l 1,3,4
 39 929 39 929 89.5 975.5 c 128,-1,5
 140 1022 140 1022 200.5 1062 c 128,-1,6
 261 1102 261 1102 328 1133.5 c 128,-1,7
 395 1165 395 1165 464 1180 c 1,8,9
 554 1127 554 1127 630 1058 c 1,10,11
 627 996 627 996 620 911.5 c 128,-1,12
 613 827 613 827 601.5 734 c 128,-1,13
 590 641 590 641 575 546.5 c 128,-1,14
 560 452 560 452 542 371 c 1,15,16
 549 350 549 350 560 315 c 128,-1,17
 571 280 571 280 583 235 c 128,-1,18
 595 190 595 190 606.5 136 c 128,-1,19
 618 82 618 82 626 22 c 1,20,21
 596 -1 596 -1 552 -10 c 128,-1,22
 508 -19 508 -19 460 -20 c 0,23,24
 433 -20 433 -20 397.5 -18 c 128,-1,25
 362 -16 362 -16 326.5 -10.5 c 128,-1,26
 291 -5 291 -5 261 3 c 128,-1,27
 231 11 231 11 216 22 c 1,28,-1
 293 565 l 1,0,-1
EndSplineSet
Substitution2: "'sups' Superscript in Latin lookup 6 subtable" onesuperior
EndChar

StartChar: two
Encoding: 50 50 64
Width: 1135
Flags: W
LayerCount: 2
Fore
SplineSet
233 -17 m 1,0,1
 200 3 200 3 171 52.5 c 128,-1,2
 142 102 142 102 121.5 163 c 128,-1,3
 101 224 101 224 90 288 c 128,-1,4
 79 352 79 352 81 403 c 1,5,6
 150 464 150 464 232 491 c 1,7,8
 261 482 261 482 292 465 c 128,-1,9
 323 448 323 448 365 413 c 1,10,11
 389 436 389 436 417 466 c 128,-1,12
 445 496 445 496 474.5 528.5 c 128,-1,13
 504 561 504 561 533 594.5 c 128,-1,14
 562 628 562 628 587.5 659 c 128,-1,15
 613 690 613 690 633.5 716.5 c 128,-1,16
 654 743 654 743 667 762 c 1,17,-1
 664 815 l 1,18,-1
 455 890 l 1,19,-1
 424 878 l 1,20,-1
 387 601 l 1,21,22
 355 590 355 590 328 585 c 128,-1,23
 301 580 301 580 275 580 c 0,24,25
 253 580 253 580 231 584 c 128,-1,26
 209 588 209 588 185 595 c 1,27,28
 174 616 174 616 161.5 649 c 128,-1,29
 149 682 149 682 137.5 721 c 128,-1,30
 126 760 126 760 117 802.5 c 128,-1,31
 108 845 108 845 105 886 c 128,-1,32
 102 927 102 927 106.5 964 c 128,-1,33
 111 1001 111 1001 127 1028 c 1,34,35
 155 1056 155 1056 207.5 1087.5 c 128,-1,36
 260 1119 260 1119 321 1146 c 128,-1,37
 382 1173 382 1173 442.5 1190.5 c 128,-1,38
 503 1208 503 1208 548 1208 c 1,39,40
 577 1206 577 1206 615.5 1199.5 c 128,-1,41
 654 1193 654 1193 697 1181.5 c 128,-1,42
 740 1170 740 1170 785.5 1153.5 c 128,-1,43
 831 1137 831 1137 873.5 1115.5 c 128,-1,44
 916 1094 916 1094 954.5 1068 c 128,-1,45
 993 1042 993 1042 1022 1012 c 1,46,47
 1035 961 1035 961 1042 894.5 c 128,-1,48
 1049 828 1049 828 1035 743 c 1,49,50
 1011 712 1011 712 974.5 676.5 c 128,-1,51
 938 641 938 641 894.5 604.5 c 128,-1,52
 851 568 851 568 803 532 c 128,-1,53
 755 496 755 496 710 464.5 c 128,-1,54
 665 433 665 433 625.5 407.5 c 128,-1,55
 586 382 586 382 559 367 c 1,56,-1
 559 357 l 1,57,-1
 798 327 l 1,58,-1
 888 469 l 1,59,-1
 1036 441 l 1,60,61
 1049 406 1049 406 1059.5 362 c 128,-1,62
 1070 318 1070 318 1071 270.5 c 128,-1,63
 1072 223 1072 223 1059.5 174 c 128,-1,64
 1047 125 1047 125 1014 80 c 0,65,66
 976 29 976 29 929 4.5 c 128,-1,67
 882 -20 882 -20 829 -20 c 0,68,69
 786 -20 786 -20 738 -6 c 128,-1,70
 690 8 690 8 644 30.5 c 128,-1,71
 598 53 598 53 557 79.5 c 128,-1,72
 516 106 516 106 488 132 c 1,73,-1
 487 130 l 1,74,-1
 483 136 l 1,75,76
 475 142 475 142 469 150 c 1,77,78
 461 136 461 136 454 124.5 c 128,-1,79
 447 113 447 113 442 105 c 0,80,81
 364 -12 364 -12 233 -17 c 1,0,1
EndSplineSet
Substitution2: "'sups' Superscript in Latin lookup 6 subtable" twosuperior
EndChar

StartChar: three
Encoding: 51 51 65
Width: 1075
Flags: W
LayerCount: 2
Fore
SplineSet
54 -24 m 0,0,1
 54 20 54 20 71.5 50 c 128,-1,2
 89 80 89 80 121 107 c 1,3,4
 167 84 167 84 215 62.5 c 128,-1,5
 263 41 263 41 313.5 24 c 128,-1,6
 364 7 364 7 416.5 -3.5 c 128,-1,7
 469 -14 469 -14 523 -15 c 0,8,9
 550 -15 550 -15 577.5 -11.5 c 128,-1,10
 605 -8 605 -8 633 -3 c 1,11,12
 642 15 642 15 650 39.5 c 128,-1,13
 658 64 658 64 664 91 c 128,-1,14
 670 118 670 118 675 144.5 c 128,-1,15
 680 171 680 171 683 191 c 1,16,17
 667 217 667 217 645 238.5 c 128,-1,18
 623 260 623 260 597.5 278 c 128,-1,19
 572 296 572 296 544 310.5 c 128,-1,20
 516 325 516 325 489 338 c 1,21,22
 473 312 473 312 449 287 c 128,-1,23
 425 262 425 262 397 242 c 128,-1,24
 369 222 369 222 340 208 c 128,-1,25
 311 194 311 194 286 189 c 1,26,27
 263 194 263 194 240.5 212 c 128,-1,28
 218 230 218 230 199.5 256.5 c 128,-1,29
 181 283 181 283 168 316 c 128,-1,30
 155 349 155 349 151.5 385.5 c 128,-1,31
 148 422 148 422 155 459 c 128,-1,32
 162 496 162 496 183 530 c 1,33,-1
 275 566 l 1,34,-1
 400 528 l 1,35,36
 430 564 430 564 460 601.5 c 128,-1,37
 490 639 490 639 516 674 c 128,-1,38
 542 709 542 709 563.5 738 c 128,-1,39
 585 767 585 767 598 787 c 1,40,-1
 595 810 l 1,41,-1
 379 890 l 1,42,-1
 348 874 l 1,43,-1
 320 691 l 1,44,45
 260 671 260 671 203.5 668.5 c 128,-1,46
 147 666 147 666 87 692 c 1,47,48
 74 731 74 731 59.5 773 c 128,-1,49
 45 815 45 815 37 858 c 128,-1,50
 29 901 29 901 32.5 944 c 128,-1,51
 36 987 36 987 60 1028 c 1,52,53
 80 1052 80 1052 111.5 1073 c 128,-1,54
 143 1094 143 1094 180 1112 c 128,-1,55
 217 1130 217 1130 257 1145 c 128,-1,56
 297 1160 297 1160 336 1172 c 1,57,58
 384 1189 384 1189 423.5 1198.5 c 128,-1,59
 463 1208 463 1208 481 1208 c 0,60,61
 503 1208 503 1208 539 1200 c 128,-1,62
 575 1192 575 1192 617.5 1178 c 128,-1,63
 660 1164 660 1164 706 1144.5 c 128,-1,64
 752 1125 752 1125 794 1103.5 c 128,-1,65
 836 1082 836 1082 872 1058.5 c 128,-1,66
 908 1035 908 1035 930 1012 c 1,67,68
 947 955 947 955 952 890 c 128,-1,69
 957 825 957 825 940 740 c 1,70,71
 903 697 903 697 862.5 661.5 c 128,-1,72
 822 626 822 626 781.5 597.5 c 128,-1,73
 741 569 741 569 701 546.5 c 128,-1,74
 661 524 661 524 624 506 c 1,75,76
 700 495 700 495 774.5 468.5 c 128,-1,77
 849 442 849 442 908 407.5 c 128,-1,78
 967 373 967 373 1003.5 334 c 128,-1,79
 1040 295 1040 295 1039 258 c 1,80,81
 1039 168 1039 168 1023 94 c 128,-1,82
 1007 20 1007 20 977 -39 c 128,-1,83
 947 -98 947 -98 904.5 -142.5 c 128,-1,84
 862 -187 862 -187 810 -217 c 0,85,86
 779 -235 779 -235 739.5 -248.5 c 128,-1,87
 700 -262 700 -262 658 -271.5 c 128,-1,88
 616 -281 616 -281 573.5 -286 c 128,-1,89
 531 -291 531 -291 494 -291 c 0,90,91
 417 -291 417 -291 351.5 -275 c 128,-1,92
 286 -259 286 -259 231.5 -230.5 c 128,-1,93
 177 -202 177 -202 134 -163 c 128,-1,94
 91 -124 91 -124 60 -79 c 1,95,96
 54 -49 54 -49 54 -24 c 0,0,1
EndSplineSet
Substitution2: "'sups' Superscript in Latin lookup 6 subtable" threesuperior
EndChar

StartChar: four
Encoding: 52 52 66
Width: 1198
Flags: W
LayerCount: 2
Fore
SplineSet
171 39 m 1,0,1
 148 44 148 44 125.5 63.5 c 128,-1,2
 103 83 103 83 84.5 111.5 c 128,-1,3
 66 140 66 140 53 176 c 128,-1,4
 40 212 40 212 36.5 250.5 c 128,-1,5
 33 289 33 289 40 327.5 c 128,-1,6
 47 366 47 366 68 400 c 1,7,-1
 179 386 l 1,8,-1
 245 1066 l 1,9,10
 268 1096 268 1096 299.5 1118 c 128,-1,11
 331 1140 331 1140 367 1154 c 128,-1,12
 403 1168 403 1168 442.5 1174.5 c 128,-1,13
 482 1181 482 1181 521 1181 c 0,14,15
 537 1181 537 1181 562 1179 c 128,-1,16
 587 1177 587 1177 613.5 1171.5 c 128,-1,17
 640 1166 640 1166 664 1155 c 128,-1,18
 688 1144 688 1144 702 1126 c 1,19,-1
 435 366 l 1,20,-1
 741 344 l 1,21,-1
 652 777 l 1,22,23
 647 777 647 777 655.5 790 c 128,-1,24
 664 803 664 803 684 822.5 c 128,-1,25
 704 842 704 842 735.5 865.5 c 128,-1,26
 767 889 767 889 808 908.5 c 128,-1,27
 849 928 849 928 898 941.5 c 128,-1,28
 947 955 947 955 1003 955 c 0,29,30
 1043 955 1043 955 1078 940 c 1,31,32
 1080 922 1080 922 1079 878.5 c 128,-1,33
 1078 835 1078 835 1073.5 775.5 c 128,-1,34
 1069 716 1069 716 1061.5 643.5 c 128,-1,35
 1054 571 1054 571 1043.5 494.5 c 128,-1,36
 1033 418 1033 418 1020 340.5 c 128,-1,37
 1007 263 1007 263 991 194 c 1,38,39
 998 173 998 173 1009 123 c 128,-1,40
 1020 73 1020 73 1032 10 c 128,-1,41
 1044 -53 1044 -53 1055.5 -122 c 128,-1,42
 1067 -191 1067 -191 1075 -251 c 1,43,44
 1045 -274 1045 -274 1001 -283 c 128,-1,45
 957 -292 957 -292 909 -293 c 0,46,47
 882 -293 882 -293 848 -291 c 128,-1,48
 814 -289 814 -289 780.5 -283.5 c 128,-1,49
 747 -278 747 -278 718.5 -270 c 128,-1,50
 690 -262 690 -262 675 -251 c 1,51,-1
 721 78 l 1,52,-1
 341 143 l 1,53,54
 323 124 323 124 301.5 106.5 c 128,-1,55
 280 89 280 89 257.5 75.5 c 128,-1,56
 235 62 235 62 213 52.5 c 128,-1,57
 191 43 191 43 171 39 c 1,0,1
EndSplineSet
EndChar

StartChar: five
Encoding: 53 53 67
Width: 1049
Flags: W
LayerCount: 2
Fore
SplineSet
49 -17 m 0,0,1
 49 24 49 24 65 52.5 c 128,-1,2
 81 81 81 81 110 107 c 1,3,4
 158 83 158 83 207 60 c 128,-1,5
 256 37 256 37 306 18.5 c 128,-1,6
 356 0 356 0 407 -11.5 c 128,-1,7
 458 -23 458 -23 512 -23 c 0,8,9
 531 -23 531 -23 553 -21.5 c 128,-1,10
 575 -20 575 -20 595 -17 c 1,11,12
 603 -13 603 -13 610.5 3.5 c 128,-1,13
 618 20 618 20 624 44 c 128,-1,14
 630 68 630 68 633.5 98 c 128,-1,15
 637 128 637 128 637 160 c 0,16,17
 637 190 637 190 634 220 c 128,-1,18
 631 250 631 250 626 275.5 c 128,-1,19
 621 301 621 301 614 319.5 c 128,-1,20
 607 338 607 338 599 346 c 1,21,-1
 429 340 l 1,22,23
 415 312 415 312 390.5 280 c 128,-1,24
 366 248 366 248 337.5 219 c 128,-1,25
 309 190 309 190 278 169 c 128,-1,26
 247 148 247 148 220 143 c 1,27,28
 194 151 194 151 166 176 c 128,-1,29
 138 201 138 201 115 236 c 128,-1,30
 92 271 92 271 77 311.5 c 128,-1,31
 62 352 62 352 61 390 c 1,32,33
 59 419 59 419 66.5 447.5 c 128,-1,34
 74 476 74 476 92 501 c 1,35,-1
 232 493 l 1,36,-1
 83 962 l 1,37,38
 84 994 84 994 95.5 1030.5 c 128,-1,39
 107 1067 107 1067 126.5 1101 c 128,-1,40
 146 1135 146 1135 172 1162.5 c 128,-1,41
 198 1190 198 1190 228 1205 c 1,42,43
 249 1201 249 1201 292 1191 c 128,-1,44
 335 1181 335 1181 383 1169.5 c 128,-1,45
 431 1158 431 1158 475 1148.5 c 128,-1,46
 519 1139 519 1139 542 1135 c 1,47,-1
 917 1205 l 1,48,49
 943 1159 943 1159 953.5 1114 c 128,-1,50
 964 1069 964 1069 964 1026 c 0,51,52
 964 975 964 975 951.5 928 c 128,-1,53
 939 881 939 881 921.5 844 c 128,-1,54
 904 807 904 807 885 782.5 c 128,-1,55
 866 758 866 758 853 751 c 1,56,57
 826 752 826 752 772 762 c 128,-1,58
 718 772 718 772 656 787 c 128,-1,59
 594 802 594 802 533 822 c 128,-1,60
 472 842 472 842 429 865 c 1,61,-1
 400 500 l 1,62,-1
 406 495 l 1,63,64
 430 519 430 519 458 543.5 c 128,-1,65
 486 568 486 568 515.5 590 c 128,-1,66
 545 612 545 612 576 629 c 128,-1,67
 607 646 607 646 638 654 c 1,68,69
 725 655 725 655 792 622 c 128,-1,70
 859 589 859 589 904 531.5 c 128,-1,71
 949 474 949 474 972 397.5 c 128,-1,72
 995 321 995 321 995 237 c 0,73,74
 995 124 995 124 965 27.5 c 128,-1,75
 935 -69 935 -69 873.5 -140 c 128,-1,76
 812 -211 812 -211 718 -251 c 128,-1,77
 624 -291 624 -291 497 -291 c 0,78,79
 420 -291 420 -291 354 -275 c 128,-1,80
 288 -259 288 -259 233 -230.5 c 128,-1,81
 178 -202 178 -202 134 -163 c 128,-1,82
 90 -124 90 -124 57 -79 c 1,83,84
 52 -62 52 -62 50.5 -46 c 128,-1,85
 49 -30 49 -30 49 -17 c 0,0,1
EndSplineSet
EndChar

StartChar: six
Encoding: 54 54 68
Width: 1158
Flags: W
LayerCount: 2
Fore
SplineSet
557 -20 m 0,0,1
 417 -20 417 -20 320.5 33 c 128,-1,2
 224 86 224 86 166 180 c 128,-1,3
 108 274 108 274 86 402.5 c 128,-1,4
 64 531 64 531 73 682 c 1,5,6
 96 779 96 779 139.5 868.5 c 128,-1,7
 183 958 183 958 240 1039.5 c 128,-1,8
 297 1121 297 1121 364 1194.5 c 128,-1,9
 431 1268 431 1268 501 1332 c 128,-1,10
 571 1396 571 1396 639.5 1450.5 c 128,-1,11
 708 1505 708 1505 769 1549 c 1,12,13
 799 1534 799 1534 821.5 1517.5 c 128,-1,14
 844 1501 844 1501 862.5 1479.5 c 128,-1,15
 881 1458 881 1458 897 1430 c 128,-1,16
 913 1402 913 1402 930 1365 c 1,17,18
 868 1297 868 1297 793 1213.5 c 128,-1,19
 718 1130 718 1130 641.5 1039 c 128,-1,20
 565 948 565 948 494 854.5 c 128,-1,21
 423 761 423 761 370 674 c 1,22,-1
 392 662 l 1,23,24
 426 699 426 699 471.5 745 c 128,-1,25
 517 791 517 791 569 831 c 128,-1,26
 621 871 621 871 678 898 c 128,-1,27
 735 925 735 925 791 926 c 0,28,29
 884 927 884 927 943 901 c 128,-1,30
 1002 875 1002 875 1035 825 c 128,-1,31
 1068 775 1068 775 1079 703 c 128,-1,32
 1090 631 1090 631 1087 541 c 0,33,34
 1083 418 1083 418 1051.5 315 c 128,-1,35
 1020 212 1020 212 956 137.5 c 128,-1,36
 892 63 892 63 793.5 21.5 c 128,-1,37
 695 -20 695 -20 557 -20 c 0,0,1
451 307 m 1,38,39
 466 293 466 293 488.5 280 c 128,-1,40
 511 267 511 267 535.5 256.5 c 128,-1,41
 560 246 560 246 584 238.5 c 128,-1,42
 608 231 608 231 627 229 c 1,43,-1
 690 272 l 1,44,45
 700 322 700 322 704.5 368 c 128,-1,46
 709 414 709 414 707.5 460 c 128,-1,47
 706 506 706 506 699 553.5 c 128,-1,48
 692 601 692 601 680 654 c 1,49,50
 605 635 605 635 542 593.5 c 128,-1,51
 479 552 479 552 420 501 c 1,52,53
 420 463 420 463 421.5 439.5 c 128,-1,54
 423 416 423 416 426.5 396.5 c 128,-1,55
 430 377 430 377 436 357.5 c 128,-1,56
 442 338 442 338 451 307 c 1,38,39
EndSplineSet
EndChar

StartChar: dotlessi
Encoding: 305 305 69
Width: 615
Flags: W
LayerCount: 2
Fore
SplineSet
63 212 m 0,0,1
 63 221 63 221 63.5 227.5 c 128,-1,2
 64 234 64 234 66.5 244 c 128,-1,3
 69 254 69 254 75 270 c 128,-1,4
 81 286 81 286 91.5 314.5 c 128,-1,5
 102 343 102 343 118 387 c 128,-1,6
 134 431 134 431 157 497 c 1,7,-1
 26 1018 l 1,8,9
 48 1045 48 1045 83.5 1071.5 c 128,-1,10
 119 1098 119 1098 161.5 1118 c 128,-1,11
 204 1138 204 1138 251.5 1150.5 c 128,-1,12
 299 1163 299 1163 346 1163 c 0,13,14
 392 1163 392 1163 434 1149.5 c 128,-1,15
 476 1136 476 1136 511 1105 c 1,16,17
 509 1093 509 1093 504.5 1050.5 c 128,-1,18
 500 1008 500 1008 493 947.5 c 128,-1,19
 486 887 486 887 477.5 813 c 128,-1,20
 469 739 469 739 458.5 664 c 128,-1,21
 448 589 448 589 435.5 518 c 128,-1,22
 423 447 423 447 410 392 c 2,23,-1
 391 314 l 1,24,-1
 541 381 l 1,25,-1
 620 256 l 1,26,27
 604 219 604 219 577.5 171.5 c 128,-1,28
 551 124 551 124 516 81.5 c 128,-1,29
 481 39 481 39 437.5 9.5 c 128,-1,30
 394 -20 394 -20 345 -20 c 0,31,32
 322 -20 322 -20 291.5 -10.5 c 128,-1,33
 261 -1 261 -1 230 16 c 128,-1,34
 199 33 199 33 169 55.5 c 128,-1,35
 139 78 139 78 115.5 104 c 128,-1,36
 92 130 92 130 77.5 157.5 c 128,-1,37
 63 185 63 185 63 212 c 0,0,1
EndSplineSet
EndChar

StartChar: dotlessj
Encoding: 567 567 70
Width: 564
Flags: W
LayerCount: 2
Fore
SplineSet
-25 -109 m 1,0,1
 3 -115 3 -115 40.5 -121.5 c 128,-1,2
 78 -128 78 -128 120 -134 c 1,3,-1
 153 565 l 1,4,-1
 26 1018 l 1,5,6
 49 1046 49 1046 84.5 1072 c 128,-1,7
 120 1098 120 1098 163 1118.5 c 128,-1,8
 206 1139 206 1139 254 1151 c 128,-1,9
 302 1163 302 1163 349 1163 c 0,10,11
 394 1163 394 1163 435 1149 c 128,-1,12
 476 1135 476 1135 511 1105 c 1,13,14
 509 1093 509 1093 505 1053.5 c 128,-1,15
 501 1014 501 1014 494.5 957 c 128,-1,16
 488 900 488 900 479.5 831 c 128,-1,17
 471 762 471 762 460.5 691 c 128,-1,18
 450 620 450 620 438.5 551.5 c 128,-1,19
 427 483 427 483 414 428 c 2,20,-1
 406 393 l 1,21,-1
 402 371 l 1,22,-1
 406 373 l 1,23,24
 411 350 411 350 420.5 308.5 c 128,-1,25
 430 267 430 267 440.5 213.5 c 128,-1,26
 451 160 451 160 461 99 c 128,-1,27
 471 38 471 38 478 -24 c 128,-1,28
 485 -86 485 -86 488 -145.5 c 128,-1,29
 491 -205 491 -205 487 -254 c 1,30,31
 484 -275 484 -275 459.5 -306.5 c 128,-1,32
 435 -338 435 -338 397.5 -367 c 128,-1,33
 360 -396 360 -396 314.5 -417 c 128,-1,34
 269 -438 269 -438 223 -438 c 1,35,36
 178 -430 178 -430 134.5 -411 c 128,-1,37
 91 -392 91 -392 54.5 -368.5 c 128,-1,38
 18 -345 18 -345 -9.5 -321.5 c 128,-1,39
 -37 -298 -37 -298 -50 -281 c 1,40,41
 -52 -253 -52 -253 -51 -231 c 128,-1,42
 -50 -209 -50 -209 -46.5 -189.5 c 128,-1,43
 -43 -170 -43 -170 -37.5 -151 c 128,-1,44
 -32 -132 -32 -132 -25 -109 c 1,0,1
EndSplineSet
EndChar

StartChar: acute
Encoding: 180 180 71
Width: 692
Flags: W
LayerCount: 2
Fore
SplineSet
174 1247 m 1,0,1
 162 1257 162 1257 148.5 1273.5 c 128,-1,2
 135 1290 135 1290 121.5 1310 c 128,-1,3
 108 1330 108 1330 96 1353.5 c 128,-1,4
 84 1377 84 1377 75 1402 c 1,5,6
 122 1442 122 1442 160.5 1480 c 128,-1,7
 199 1518 199 1518 234.5 1558 c 128,-1,8
 270 1598 270 1598 305.5 1640.5 c 128,-1,9
 341 1683 341 1683 383 1732 c 1,10,11
 427 1717 427 1717 466 1686 c 128,-1,12
 505 1655 505 1655 534.5 1616 c 128,-1,13
 564 1577 564 1577 581 1532.5 c 128,-1,14
 598 1488 598 1488 598 1446 c 1,15,16
 565 1417 565 1417 513.5 1386 c 128,-1,17
 462 1355 462 1355 403.5 1327.5 c 128,-1,18
 345 1300 345 1300 285 1278.5 c 128,-1,19
 225 1257 225 1257 174 1247 c 1,0,1
EndSplineSet
EndChar

StartChar: grave
Encoding: 96 96 73
Width: 692
Flags: W
LayerCount: 2
Fore
SplineSet
499 1247 m 1,0,1
 448 1257 448 1257 388 1278.5 c 128,-1,2
 328 1300 328 1300 269.5 1327.5 c 128,-1,3
 211 1355 211 1355 159.5 1386 c 128,-1,4
 108 1417 108 1417 75 1446 c 1,5,6
 75 1488 75 1488 92 1532.5 c 128,-1,7
 109 1577 109 1577 138.5 1616 c 128,-1,8
 168 1655 168 1655 207 1686 c 128,-1,9
 246 1717 246 1717 290 1732 c 1,10,11
 332 1683 332 1683 367.5 1640.5 c 128,-1,12
 403 1598 403 1598 438.5 1558 c 128,-1,13
 474 1518 474 1518 512.5 1480 c 128,-1,14
 551 1442 551 1442 598 1402 c 1,15,16
 589 1377 589 1377 577 1353.5 c 128,-1,17
 565 1330 565 1330 551.5 1310 c 128,-1,18
 538 1290 538 1290 524.5 1273.5 c 128,-1,19
 511 1257 511 1257 499 1247 c 1,0,1
EndSplineSet
EndChar

StartChar: dotaccent
Encoding: 729 729 74
Width: 466
Flags: W
LayerCount: 2
Fore
SplineSet
237 1247 m 1,0,1
 201 1249 201 1249 165 1263.5 c 128,-1,2
 129 1278 129 1278 99 1299 c 128,-1,3
 69 1320 69 1320 48 1344.5 c 128,-1,4
 27 1369 27 1369 20 1392 c 1,5,6
 41 1445 41 1445 56.5 1482.5 c 128,-1,7
 72 1520 72 1520 84 1551.5 c 128,-1,8
 96 1583 96 1583 106.5 1613 c 128,-1,9
 117 1643 117 1643 129 1681 c 1,10,11
 175 1681 175 1681 228.5 1671 c 128,-1,12
 282 1661 282 1661 330 1636 c 128,-1,13
 378 1611 378 1611 415 1569 c 128,-1,14
 452 1527 452 1527 466 1464 c 1,15,16
 451 1429 451 1429 425 1396 c 128,-1,17
 399 1363 399 1363 367.5 1334.5 c 128,-1,18
 336 1306 336 1306 302 1283 c 128,-1,19
 268 1260 268 1260 237 1247 c 1,0,1
EndSplineSet
EndChar

StartChar: dieresis
Encoding: 168 168 77
Width: 1010
Flags: W
LayerCount: 2
Fore
SplineSet
775 1247 m 1,0,1
 739 1249 739 1249 703 1263.5 c 128,-1,2
 667 1278 667 1278 637 1299 c 128,-1,3
 607 1320 607 1320 586 1344.5 c 128,-1,4
 565 1369 565 1369 558 1392 c 1,5,6
 579 1445 579 1445 594.5 1482.5 c 128,-1,7
 610 1520 610 1520 622 1551.5 c 128,-1,8
 634 1583 634 1583 644.5 1613 c 128,-1,9
 655 1643 655 1643 667 1681 c 1,10,11
 713 1681 713 1681 762 1671 c 128,-1,12
 811 1661 811 1661 854.5 1636 c 128,-1,13
 898 1611 898 1611 931 1569 c 128,-1,14
 964 1527 964 1527 978 1464 c 1,15,16
 963 1429 963 1429 941.5 1396 c 128,-1,17
 920 1363 920 1363 893 1334.5 c 128,-1,18
 866 1306 866 1306 836 1283 c 128,-1,19
 806 1260 806 1260 775 1247 c 1,0,1
307 1247 m 1,20,21
 271 1249 271 1249 235 1263.5 c 128,-1,22
 199 1278 199 1278 169 1299 c 128,-1,23
 139 1320 139 1320 118 1344.5 c 128,-1,24
 97 1369 97 1369 90 1392 c 1,25,26
 111 1445 111 1445 126.5 1482.5 c 128,-1,27
 142 1520 142 1520 154 1551.5 c 128,-1,28
 166 1583 166 1583 176.5 1613 c 128,-1,29
 187 1643 187 1643 199 1681 c 1,30,31
 245 1681 245 1681 294.5 1671 c 128,-1,32
 344 1661 344 1661 387.5 1636 c 128,-1,33
 431 1611 431 1611 463.5 1569 c 128,-1,34
 496 1527 496 1527 510 1464 c 1,35,36
 495 1429 495 1429 473.5 1396 c 128,-1,37
 452 1363 452 1363 425 1334.5 c 128,-1,38
 398 1306 398 1306 368 1283 c 128,-1,39
 338 1260 338 1260 307 1247 c 1,20,21
EndSplineSet
EndChar

StartChar: ring
Encoding: 730 730 78
Width: 632
Flags: W
LayerCount: 2
Fore
SplineSet
298 1228 m 0,0,1
 233 1228 233 1228 181.5 1245 c 128,-1,2
 130 1262 130 1262 94 1294 c 128,-1,3
 58 1326 58 1326 38.5 1371 c 128,-1,4
 19 1416 19 1416 19 1473 c 0,5,6
 19 1527 19 1527 41.5 1569.5 c 128,-1,7
 64 1612 64 1612 98 1642 c 128,-1,8
 132 1672 132 1672 171.5 1690 c 128,-1,9
 211 1708 211 1708 245 1714 c 0,10,11
 268 1718 268 1718 290 1719.5 c 128,-1,12
 312 1721 312 1721 333 1721 c 0,13,14
 397 1721 397 1721 448.5 1704 c 128,-1,15
 500 1687 500 1687 536 1655.5 c 128,-1,16
 572 1624 572 1624 591.5 1579 c 128,-1,17
 611 1534 611 1534 611 1478 c 0,18,19
 611 1424 611 1424 588.5 1381.5 c 128,-1,20
 566 1339 566 1339 532 1308.5 c 128,-1,21
 498 1278 498 1278 458.5 1260 c 128,-1,22
 419 1242 419 1242 385 1236 c 0,23,24
 362 1232 362 1232 340 1230 c 128,-1,25
 318 1228 318 1228 298 1228 c 0,0,1
326 1410 m 0,26,27
 358 1410 358 1410 387 1419 c 1,28,29
 389 1430 389 1430 391 1441.5 c 128,-1,30
 393 1453 393 1453 393 1464 c 0,31,32
 393 1489 393 1489 384 1506 c 1,33,34
 370 1517 370 1517 345.5 1521 c 128,-1,35
 321 1525 321 1525 296 1525 c 0,36,37
 264 1525 264 1525 242 1520 c 1,38,39
 239 1509 239 1509 237 1498 c 128,-1,40
 235 1487 235 1487 235 1476 c 0,41,42
 235 1462 235 1462 237.5 1450 c 128,-1,43
 240 1438 240 1438 247 1428 c 1,44,45
 264 1419 264 1419 284.5 1414.5 c 128,-1,46
 305 1410 305 1410 326 1410 c 0,26,27
EndSplineSet
EndChar

StartChar: tilde
Encoding: 732 732 80
Width: 864
Flags: W
LayerCount: 2
Fore
SplineSet
11 1357 m 1,0,1
 20 1398 20 1398 48 1452 c 128,-1,2
 76 1506 76 1506 117 1555 c 128,-1,3
 158 1604 158 1604 208.5 1637.5 c 128,-1,4
 259 1671 259 1671 312 1671 c 0,5,6
 345 1671 345 1671 385.5 1653.5 c 128,-1,7
 426 1636 426 1636 467 1613 c 128,-1,8
 508 1590 508 1590 546 1566.5 c 128,-1,9
 584 1543 584 1543 612 1531 c 1,10,-1
 754 1656 l 1,11,-1
 853 1564 l 1,12,13
 847 1537 847 1537 833 1503.5 c 128,-1,14
 819 1470 819 1470 798.5 1435.5 c 128,-1,15
 778 1401 778 1401 751.5 1369 c 128,-1,16
 725 1337 725 1337 694.5 1311.5 c 128,-1,17
 664 1286 664 1286 630 1271 c 128,-1,18
 596 1256 596 1256 561 1256 c 0,19,20
 532 1256 532 1256 491 1270.5 c 128,-1,21
 450 1285 450 1285 407.5 1306 c 128,-1,22
 365 1327 365 1327 326 1351.5 c 128,-1,23
 287 1376 287 1376 261 1396 c 1,24,-1
 110 1265 l 1,25,-1
 11 1357 l 1,0,1
EndSplineSet
EndChar

StartChar: kgreenlandic
Encoding: 312 312 86
Width: 1089
Flags: W
LayerCount: 2
Fore
SplineSet
52 105 m 1,0,1
 58 145 58 145 70 185 c 128,-1,2
 82 225 82 225 96 263 c 128,-1,3
 110 301 110 301 125.5 335 c 128,-1,4
 141 369 141 369 153 396 c 1,5,6
 144 419 144 419 133.5 459.5 c 128,-1,7
 123 500 123 500 112 551 c 128,-1,8
 101 602 101 602 89.5 659.5 c 128,-1,9
 78 717 78 717 68 774.5 c 128,-1,10
 58 832 58 832 49.5 886 c 128,-1,11
 41 940 41 940 35.5 983 c 128,-1,12
 30 1026 30 1026 27.5 1054 c 128,-1,13
 25 1082 25 1082 27 1089 c 1,14,15
 46 1119 46 1119 80.5 1142 c 128,-1,16
 115 1165 115 1165 157 1180.5 c 128,-1,17
 199 1196 199 1196 244.5 1204 c 128,-1,18
 290 1212 290 1212 331 1212 c 0,19,20
 378 1212 378 1212 416 1201.5 c 128,-1,21
 454 1191 454 1191 477 1170 c 1,22,23
 467 1051 467 1051 453.5 927.5 c 128,-1,24
 440 804 440 804 424.5 685.5 c 128,-1,25
 409 567 409 567 392.5 459.5 c 128,-1,26
 376 352 376 352 361 265 c 1,27,-1
 372 260 l 1,28,29
 446 377 446 377 511 506 c 128,-1,30
 576 635 576 635 634 760 c 1,31,32
 613 781 613 781 593 801.5 c 128,-1,33
 573 822 573 822 554 846 c 128,-1,34
 535 870 535 870 519 898.5 c 128,-1,35
 503 927 503 927 490 965 c 1,36,37
 515 1014 515 1014 558.5 1057 c 128,-1,38
 602 1100 602 1100 654 1132 c 128,-1,39
 706 1164 706 1164 761 1183 c 128,-1,40
 816 1202 816 1202 864 1204 c 1,41,42
 897 1172 897 1172 926 1125 c 128,-1,43
 955 1078 955 1078 977 1024 c 128,-1,44
 999 970 999 970 1010.5 914 c 128,-1,45
 1022 858 1022 858 1020 807 c 1,46,47
 1005 783 1005 783 979.5 745.5 c 128,-1,48
 954 708 954 708 920 662 c 128,-1,49
 886 616 886 616 844 564 c 128,-1,50
 802 512 802 512 755 460 c 1,51,52
 762 449 762 449 773.5 434 c 128,-1,53
 785 419 785 419 798.5 403.5 c 128,-1,54
 812 388 812 388 826 372.5 c 128,-1,55
 840 357 840 357 852 345 c 1,56,57
 914 376 914 376 973 438 c 1,58,-1
 1088 347 l 1,59,60
 1086 308 1086 308 1083.5 277 c 128,-1,61
 1081 246 1081 246 1075.5 219.5 c 128,-1,62
 1070 193 1070 193 1061 168.5 c 128,-1,63
 1052 144 1052 144 1039 117 c 0,64,65
 1003 45 1003 45 948 12 c 128,-1,66
 893 -21 893 -21 827 -20 c 0,67,68
 780 -20 780 -20 727 -3 c 0,69,70
 692 8 692 8 664.5 33 c 128,-1,71
 637 58 637 58 616 92.5 c 128,-1,72
 595 127 595 127 580 167.5 c 128,-1,73
 565 208 565 208 554 250 c 1,74,75
 480 173 480 173 408.5 102.5 c 128,-1,76
 337 32 337 32 258 -20 c 1,77,78
 242 -18 242 -18 214 -6.5 c 128,-1,79
 186 5 186 5 155.5 22 c 128,-1,80
 125 39 125 39 96.5 60.5 c 128,-1,81
 68 82 68 82 52 105 c 1,0,1
EndSplineSet
EndChar

StartChar: aogonek
Encoding: 261 261 96
Width: 1194
Flags: W
LayerCount: 2
Fore
SplineSet
116 146 m 0,0,1
 116 156 116 156 117 177 c 128,-1,2
 118 198 118 198 119 222.5 c 128,-1,3
 120 247 120 247 121 273 c 128,-1,4
 122 299 122 299 122 319 c 0,5,6
 122 378 122 378 118 453.5 c 128,-1,7
 114 529 114 529 106 607 c 128,-1,8
 98 685 98 685 85.5 760 c 128,-1,9
 73 835 73 835 56 894 c 0,10,11
 50 914 50 914 47.5 926.5 c 128,-1,12
 45 939 45 939 45 949 c 0,13,14
 45 961 45 961 51 973 c 128,-1,15
 57 985 57 985 71 1004 c 0,16,17
 117 1063 117 1063 174.5 1100.5 c 128,-1,18
 232 1138 232 1138 285.5 1160.5 c 128,-1,19
 339 1183 339 1183 380 1192 c 128,-1,20
 421 1201 421 1201 436 1203 c 1,21,22
 476 1175 476 1175 509 1140 c 128,-1,23
 542 1105 542 1105 570.5 1066 c 128,-1,24
 599 1027 599 1027 623.5 986.5 c 128,-1,25
 648 946 648 946 671 907 c 1,26,27
 670 951 670 951 669 990.5 c 128,-1,28
 668 1030 668 1030 666.5 1062 c 128,-1,29
 665 1094 665 1094 664 1117.5 c 128,-1,30
 663 1141 663 1141 663 1153 c 1,31,32
 679 1164 679 1164 726 1172.5 c 128,-1,33
 773 1181 773 1181 831 1181 c 0,34,35
 923 1181 923 1181 988.5 1152 c 128,-1,36
 1054 1123 1054 1123 1108 1060 c 1,37,38
 1110 1044 1110 1044 1105 998.5 c 128,-1,39
 1100 953 1100 953 1089 888.5 c 128,-1,40
 1078 824 1078 824 1062 747 c 128,-1,41
 1046 670 1046 670 1026.5 592 c 128,-1,42
 1007 514 1007 514 984 439.5 c 128,-1,43
 961 365 961 365 936 307 c 1,44,-1
 1109 399 l 1,45,-1
 1194 278 l 1,46,47
 1173 229 1173 229 1148.5 184.5 c 128,-1,48
 1124 140 1124 140 1096 103 c 1,49,50
 1078 75 1078 75 1056.5 38.5 c 128,-1,51
 1035 2 1035 2 1013 -35.5 c 128,-1,52
 991 -73 991 -73 971 -108.5 c 128,-1,53
 951 -144 951 -144 937 -170 c 1,54,-1
 951 -183 l 1,55,-1
 1147 -116 l 1,56,-1
 1194 -243 l 1,57,58
 1143 -342 1143 -342 1081.5 -390 c 128,-1,59
 1020 -438 1020 -438 932 -438 c 0,60,61
 896 -438 896 -438 852.5 -418 c 128,-1,62
 809 -398 809 -398 772 -367 c 128,-1,63
 735 -336 735 -336 710 -298.5 c 128,-1,64
 685 -261 685 -261 685 -225 c 0,65,66
 685 -194 685 -194 698.5 -164.5 c 128,-1,67
 712 -135 712 -135 733.5 -107 c 128,-1,68
 755 -79 755 -79 783 -54 c 128,-1,69
 811 -29 811 -29 840 -7 c 1,70,71
 806 5 806 5 773.5 27.5 c 128,-1,72
 741 50 741 50 714 79 c 0,73,74
 705 89 705 89 694.5 100 c 128,-1,75
 684 111 684 111 676 126.5 c 128,-1,76
 668 142 668 142 664.5 164.5 c 128,-1,77
 661 187 661 187 664 220 c 0,78,79
 668 258 668 258 671.5 292 c 128,-1,80
 675 326 675 326 679.5 358.5 c 128,-1,81
 684 391 684 391 688.5 423 c 128,-1,82
 693 455 693 455 698 489 c 1,83,-1
 683 496 l 1,84,85
 669 461 669 461 650.5 416.5 c 128,-1,86
 632 372 632 372 610 324 c 128,-1,87
 588 276 588 276 563.5 228 c 128,-1,88
 539 180 539 180 513.5 137 c 128,-1,89
 488 94 488 94 462.5 59 c 128,-1,90
 437 24 437 24 413 4 c 0,91,92
 385 -18 385 -18 357 -20 c 0,93,94
 330 -22 330 -22 303 -6.5 c 128,-1,95
 276 9 276 9 247 30 c 0,96,97
 229 43 229 43 206 55.5 c 128,-1,98
 183 68 183 68 163 81.5 c 128,-1,99
 143 95 143 95 129.5 110.5 c 128,-1,100
 116 126 116 126 116 146 c 0,0,1
450 338 m 1,101,102
 469 356 469 356 490 384.5 c 128,-1,103
 511 413 511 413 533 447 c 128,-1,104
 555 481 555 481 576 517 c 128,-1,105
 597 553 597 553 615 586 c 128,-1,106
 633 619 633 619 647.5 647 c 128,-1,107
 662 675 662 675 670 693 c 1,108,109
 671 708 671 708 671.5 710.5 c 128,-1,110
 672 713 672 713 672 716.5 c 128,-1,111
 672 720 672 720 672 730.5 c 128,-1,112
 672 741 672 741 672 773 c 1,113,114
 612 788 612 788 561 798 c 128,-1,115
 510 808 510 808 462 819 c 1,116,-1
 462 712 l 2,117,118
 462 620 462 620 451 531.5 c 128,-1,119
 440 443 440 443 420 352 c 1,120,-1
 450 338 l 1,101,102
EndSplineSet
EndChar

StartChar: ogonek
Encoding: 731 731 97
Width: 550
Flags: W
LayerCount: 2
Fore
SplineSet
28 -225 m 0,0,1
 28 -183 28 -183 51.5 -144 c 128,-1,2
 75 -105 75 -105 110 -70.5 c 128,-1,3
 145 -36 145 -36 185 -6.5 c 128,-1,4
 225 23 225 23 259 46 c 1,5,-1
 448 116 l 1,6,7
 431 89 431 89 408 51 c 128,-1,8
 385 13 385 13 361.5 -27 c 128,-1,9
 338 -67 338 -67 316.5 -105 c 128,-1,10
 295 -143 295 -143 280 -170 c 1,11,-1
 294 -183 l 1,12,-1
 490 -116 l 1,13,-1
 537 -243 l 1,14,15
 486 -342 486 -342 424.5 -390 c 128,-1,16
 363 -438 363 -438 275 -438 c 0,17,18
 239 -438 239 -438 195.5 -418 c 128,-1,19
 152 -398 152 -398 115 -367 c 128,-1,20
 78 -336 78 -336 53 -298.5 c 128,-1,21
 28 -261 28 -261 28 -225 c 0,0,1
EndSplineSet
EndChar

StartChar: eogonek
Encoding: 281 281 98
Width: 949
Flags: W
LayerCount: 2
Fore
SplineSet
164 127 m 0,0,1
 133 155 133 155 122 176.5 c 128,-1,2
 111 198 111 198 110 221 c 128,-1,3
 109 244 109 244 113 271.5 c 128,-1,4
 117 299 117 299 117 338 c 0,5,6
 117 412 117 412 111.5 492 c 128,-1,7
 106 572 106 572 97 645 c 128,-1,8
 88 718 88 718 77.5 777 c 128,-1,9
 67 836 67 836 57 868 c 0,10,11
 51 888 51 888 48 900.5 c 128,-1,12
 45 913 45 913 45 922 c 0,13,14
 45 944 45 944 65 972 c 128,-1,15
 85 1000 85 1000 113 1026 c 128,-1,16
 141 1052 141 1052 171 1074.5 c 128,-1,17
 201 1097 201 1097 220 1109 c 0,18,19
 242 1123 242 1123 275 1139.5 c 128,-1,20
 308 1156 308 1156 343.5 1170.5 c 128,-1,21
 379 1185 379 1185 414.5 1194.5 c 128,-1,22
 450 1204 450 1204 477 1204 c 1,23,24
 491 1203 491 1203 510 1197 c 128,-1,25
 529 1191 529 1191 555 1174 c 0,26,27
 615 1134 615 1134 657 1110 c 128,-1,28
 699 1086 699 1086 733.5 1070 c 128,-1,29
 768 1054 768 1054 799 1042.5 c 128,-1,30
 830 1031 830 1031 867 1018 c 0,31,32
 874 1015 874 1015 879.5 1012 c 128,-1,33
 885 1009 885 1009 889 1002 c 128,-1,34
 893 995 893 995 896 982 c 128,-1,35
 899 969 899 969 903 946 c 0,36,37
 907 922 907 922 908 894.5 c 128,-1,38
 909 867 909 867 907.5 840.5 c 128,-1,39
 906 814 906 814 901.5 790 c 128,-1,40
 897 766 897 766 888 750 c 0,41,42
 884 743 884 743 862 716.5 c 128,-1,43
 840 690 840 690 805 651.5 c 128,-1,44
 770 613 770 613 726 566 c 128,-1,45
 682 519 682 519 634 469.5 c 128,-1,46
 586 420 586 420 536.5 372 c 128,-1,47
 487 324 487 324 443 284 c 1,48,-1
 472 284 l 1,49,50
 497 289 497 289 533 305 c 128,-1,51
 569 321 569 321 612 342.5 c 128,-1,52
 655 364 655 364 702.5 389.5 c 128,-1,53
 750 415 750 415 798 438 c 1,54,-1
 883 299 l 1,55,56
 814 181 814 181 742.5 64.5 c 128,-1,57
 671 -52 671 -52 610 -170 c 1,58,-1
 624 -183 l 1,59,-1
 820 -116 l 1,60,-1
 867 -243 l 1,61,62
 816 -342 816 -342 754.5 -390 c 128,-1,63
 693 -438 693 -438 605 -438 c 0,64,65
 569 -438 569 -438 525.5 -417.5 c 128,-1,66
 482 -397 482 -397 445 -366.5 c 128,-1,67
 408 -336 408 -336 383 -300.5 c 128,-1,68
 358 -265 358 -265 358 -235 c 0,69,70
 358 -201 358 -201 384 -162.5 c 128,-1,71
 410 -124 410 -124 449 -86 c 128,-1,72
 488 -48 488 -48 533 -12 c 128,-1,73
 578 24 578 24 616 55 c 1,74,-1
 605 61 l 1,75,76
 545 25 545 25 485.5 2.5 c 128,-1,77
 426 -20 426 -20 372 -20 c 0,78,79
 347 -20 347 -20 322 -7 c 128,-1,80
 297 6 297 6 266 38 c 0,81,82
 256 48 256 48 246.5 57.5 c 128,-1,83
 237 67 237 67 227 75 c 0,84,85
 206 94 206 94 189 107 c 128,-1,86
 172 120 172 120 164 127 c 0,0,1
425 417 m 1,87,88
 442 442 442 442 470 482 c 128,-1,89
 498 522 498 522 529.5 570 c 128,-1,90
 561 618 561 618 591 670.5 c 128,-1,91
 621 723 621 723 643 774 c 1,92,93
 617 780 617 780 567.5 794.5 c 128,-1,94
 518 809 518 809 449 831 c 1,95,96
 449 817 449 817 448 788 c 128,-1,97
 447 759 447 759 445.5 722 c 128,-1,98
 444 685 444 685 442 642.5 c 128,-1,99
 440 600 440 600 437.5 559 c 128,-1,100
 435 518 435 518 432 481.5 c 128,-1,101
 429 445 429 445 426 420 c 0,102,103
 426 419 426 419 425.5 418.5 c 128,-1,104
 425 418 425 418 425 417 c 1,87,88
EndSplineSet
EndChar

StartChar: iogonek
Encoding: 303 303 99
Width: 615
Flags: W
LayerCount: 2
Fore
SplineSet
291 1207 m 1,0,1
 272 1207 272 1207 245 1218.5 c 128,-1,2
 218 1230 218 1230 189.5 1247.5 c 128,-1,3
 161 1265 161 1265 134.5 1287 c 128,-1,4
 108 1309 108 1309 90 1330 c 1,5,6
 137 1436 137 1436 169.5 1520.5 c 128,-1,7
 202 1605 202 1605 228 1681 c 1,8,9
 279 1681 279 1681 333.5 1671 c 128,-1,10
 388 1661 388 1661 436.5 1636 c 128,-1,11
 485 1611 485 1611 521.5 1569 c 128,-1,12
 558 1527 558 1527 573 1464 c 1,13,14
 562 1441 562 1441 542 1414 c 128,-1,15
 522 1387 522 1387 497 1359.5 c 128,-1,16
 472 1332 472 1332 443.5 1305.5 c 128,-1,17
 415 1279 415 1279 387 1258.5 c 128,-1,18
 359 1238 359 1238 334 1224 c 128,-1,19
 309 1210 309 1210 291 1207 c 1,0,1
63 212 m 0,20,21
 63 221 63 221 63.5 227.5 c 128,-1,22
 64 234 64 234 66.5 244 c 128,-1,23
 69 254 69 254 75 270 c 128,-1,24
 81 286 81 286 91.5 314.5 c 128,-1,25
 102 343 102 343 118 387 c 128,-1,26
 134 431 134 431 157 497 c 1,27,-1
 26 1018 l 1,28,29
 48 1045 48 1045 83.5 1071.5 c 128,-1,30
 119 1098 119 1098 161.5 1118 c 128,-1,31
 204 1138 204 1138 251.5 1150.5 c 128,-1,32
 299 1163 299 1163 346 1163 c 0,33,34
 392 1163 392 1163 434 1149.5 c 128,-1,35
 476 1136 476 1136 511 1105 c 1,36,37
 509 1093 509 1093 504.5 1050.5 c 128,-1,38
 500 1008 500 1008 493 947.5 c 128,-1,39
 486 887 486 887 477.5 813 c 128,-1,40
 469 739 469 739 458.5 664 c 128,-1,41
 448 589 448 589 435.5 518 c 128,-1,42
 423 447 423 447 410 392 c 2,43,-1
 391 314 l 1,44,-1
 541 381 l 1,45,-1
 620 256 l 1,46,47
 607 226 607 226 587 188.5 c 128,-1,48
 567 151 567 151 541 114 c 1,49,-1
 358 -162 l 1,50,-1
 354 -170 l 1,51,-1
 368 -183 l 1,52,-1
 564 -116 l 1,53,-1
 611 -243 l 1,54,55
 560 -342 560 -342 498.5 -390 c 128,-1,56
 437 -438 437 -438 349 -438 c 0,57,58
 313 -438 313 -438 269.5 -418 c 128,-1,59
 226 -398 226 -398 189 -367 c 128,-1,60
 152 -336 152 -336 127 -298.5 c 128,-1,61
 102 -261 102 -261 102 -225 c 0,62,63
 102 -193 102 -193 116.5 -162 c 128,-1,64
 131 -131 131 -131 154 -102.5 c 128,-1,65
 177 -74 177 -74 206.5 -48.5 c 128,-1,66
 236 -23 236 -23 266 -1 c 1,67,68
 231 14 231 14 194.5 37 c 128,-1,69
 158 60 158 60 129 88.5 c 128,-1,70
 100 117 100 117 81.5 149 c 128,-1,71
 63 181 63 181 63 212 c 0,20,21
EndSplineSet
EndChar

StartChar: uogonek
Encoding: 371 371 100
Width: 1164
Flags: W
LayerCount: 2
Fore
SplineSet
162 573 m 1,0,-1
 7 1004 l 1,1,2
 28 1055 28 1055 68 1091 c 128,-1,3
 108 1127 108 1127 156.5 1149 c 128,-1,4
 205 1171 205 1171 257.5 1181 c 128,-1,5
 310 1191 310 1191 356 1191 c 0,6,7
 424 1191 424 1191 460 1174 c 1,8,9
 465 1118 465 1118 467.5 1057 c 128,-1,10
 470 996 470 996 470 931 c 0,11,12
 470 784 470 784 459 647.5 c 128,-1,13
 448 511 448 511 419 375 c 1,14,-1
 449 361 l 1,15,16
 468 379 468 379 489.5 411 c 128,-1,17
 511 443 511 443 533 481.5 c 128,-1,18
 555 520 555 520 576 562 c 128,-1,19
 597 604 597 604 614.5 642.5 c 128,-1,20
 632 681 632 681 644.5 713 c 128,-1,21
 657 745 657 745 662 764 c 1,22,23
 653 871 653 871 647.5 941 c 128,-1,24
 642 1011 642 1011 638.5 1054.5 c 128,-1,25
 635 1098 635 1098 634 1120 c 128,-1,26
 633 1142 633 1142 633 1154 c 1,27,28
 649 1165 649 1165 696 1173.5 c 128,-1,29
 743 1182 743 1182 801 1182 c 0,30,31
 893 1182 893 1182 958.5 1153 c 128,-1,32
 1024 1124 1024 1124 1078 1061 c 1,33,-1
 1078 1050 l 2,34,35
 1078 1026 1078 1026 1072 977.5 c 128,-1,36
 1066 929 1066 929 1054.5 865.5 c 128,-1,37
 1043 802 1043 802 1027 727.5 c 128,-1,38
 1011 653 1011 653 992 578.5 c 128,-1,39
 973 504 973 504 951 434 c 128,-1,40
 929 364 929 364 906 308 c 1,41,-1
 1079 400 l 1,42,-1
 1164 279 l 1,43,44
 1144 233 1144 233 1121 190.5 c 128,-1,45
 1098 148 1098 148 1072 111 c 0,46,47
 1054 84 1054 84 1031.5 46.5 c 128,-1,48
 1009 9 1009 9 986 -30 c 128,-1,49
 963 -69 963 -69 942 -106 c 128,-1,50
 921 -143 921 -143 907 -170 c 1,51,-1
 921 -183 l 1,52,-1
 1117 -116 l 1,53,-1
 1164 -243 l 1,54,55
 1113 -342 1113 -342 1051.5 -390 c 128,-1,56
 990 -438 990 -438 902 -438 c 0,57,58
 866 -438 866 -438 822.5 -418 c 128,-1,59
 779 -398 779 -398 742 -367 c 128,-1,60
 705 -336 705 -336 680 -298.5 c 128,-1,61
 655 -261 655 -261 655 -225 c 0,62,63
 655 -194 655 -194 668.5 -164 c 128,-1,64
 682 -134 682 -134 704 -106.5 c 128,-1,65
 726 -79 726 -79 754 -54 c 128,-1,66
 782 -29 782 -29 811 -7 c 1,67,68
 777 5 777 5 744 27.5 c 128,-1,69
 711 50 711 50 684 80 c 0,70,71
 676 89 676 89 666.5 98.5 c 128,-1,72
 657 108 657 108 649.5 120.5 c 128,-1,73
 642 133 642 133 637 150.5 c 128,-1,74
 632 168 632 168 632 193 c 0,75,76
 632 200 632 200 632.5 206.5 c 128,-1,77
 633 213 633 213 634 221 c 0,78,79
 638 259 638 259 641.5 293 c 128,-1,80
 645 327 645 327 649.5 359.5 c 128,-1,81
 654 392 654 392 658.5 424 c 128,-1,82
 663 456 663 456 668 490 c 1,83,-1
 653 497 l 1,84,85
 636 454 636 454 612.5 399 c 128,-1,86
 589 344 589 344 562 286.5 c 128,-1,87
 535 229 535 229 505 174 c 128,-1,88
 475 119 475 119 444.5 76 c 128,-1,89
 414 33 414 33 384 6.5 c 128,-1,90
 354 -20 354 -20 327 -20 c 0,91,92
 299 -20 299 -20 273 -5.5 c 128,-1,93
 247 9 247 9 217 31 c 0,94,95
 199 44 199 44 175 58.5 c 128,-1,96
 151 73 151 73 129.5 89.5 c 128,-1,97
 108 106 108 106 93 124 c 128,-1,98
 78 142 78 142 78 162 c 1,99,-1
 162 573 l 1,0,-1
EndSplineSet
EndChar

StartChar: breve
Encoding: 728 728 101
Width: 805
Flags: W
LayerCount: 2
Fore
SplineSet
404 1280 m 0,0,1
 343 1279 343 1279 281.5 1296.5 c 128,-1,2
 220 1314 220 1314 168.5 1347 c 128,-1,3
 117 1380 117 1380 80 1427 c 128,-1,4
 43 1474 43 1474 31 1533 c 1,5,6
 54 1570 54 1570 82.5 1599.5 c 128,-1,7
 111 1629 111 1629 142 1651 c 128,-1,8
 173 1673 173 1673 204.5 1686.5 c 128,-1,9
 236 1700 236 1700 266 1705 c 1,10,11
 291 1653 291 1653 321 1621 c 128,-1,12
 351 1589 351 1589 382 1571.5 c 128,-1,13
 413 1554 413 1554 441.5 1548 c 128,-1,14
 470 1542 470 1542 491 1542 c 0,15,16
 494 1542 494 1542 504 1545.5 c 128,-1,17
 514 1549 514 1549 535 1563 c 128,-1,18
 556 1577 556 1577 589.5 1606 c 128,-1,19
 623 1635 623 1635 673 1686 c 1,20,-1
 783 1592 l 1,21,22
 767 1531 767 1531 729 1475 c 128,-1,23
 691 1419 691 1419 639.5 1376.5 c 128,-1,24
 588 1334 588 1334 527 1307.5 c 128,-1,25
 466 1281 466 1281 404 1280 c 0,0,1
EndSplineSet
EndChar

StartChar: hungarumlaut
Encoding: 733 733 109
Width: 924
Flags: W
LayerCount: 2
Fore
SplineSet
165 1231 m 1,0,1
 148 1234 148 1234 126.5 1244.5 c 128,-1,2
 105 1255 105 1255 84.5 1269.5 c 128,-1,3
 64 1284 64 1284 46.5 1300.5 c 128,-1,4
 29 1317 29 1317 20 1334 c 1,5,6
 39 1384 39 1384 56.5 1437 c 128,-1,7
 74 1490 74 1490 89 1541 c 128,-1,8
 104 1592 104 1592 116.5 1638.5 c 128,-1,9
 129 1685 129 1685 137 1723 c 1,10,11
 151 1723 151 1723 159 1723.5 c 128,-1,12
 167 1724 167 1724 173.5 1724 c 128,-1,13
 180 1724 180 1724 187.5 1724 c 128,-1,14
 195 1724 195 1724 209 1723 c 0,15,16
 240 1721 240 1721 271.5 1715 c 128,-1,17
 303 1709 303 1709 334.5 1694.5 c 128,-1,18
 366 1680 366 1680 397 1654 c 128,-1,19
 428 1628 428 1628 457 1588 c 1,20,21
 447 1558 447 1558 427 1522.5 c 128,-1,22
 407 1487 407 1487 381.5 1450.5 c 128,-1,23
 356 1414 356 1414 327 1378.5 c 128,-1,24
 298 1343 298 1343 268.5 1313 c 128,-1,25
 239 1283 239 1283 212.5 1261.5 c 128,-1,26
 186 1240 186 1240 165 1231 c 1,0,1
623 1231 m 1,27,28
 597 1236 597 1236 573 1248 c 128,-1,29
 549 1260 549 1260 528 1275.5 c 128,-1,30
 507 1291 507 1291 491 1307.5 c 128,-1,31
 475 1324 475 1324 465 1338 c 1,32,33
 508 1445 508 1445 537.5 1543 c 128,-1,34
 567 1641 567 1641 585 1722 c 1,35,36
 601 1722 601 1722 606 1722.5 c 128,-1,37
 611 1723 611 1723 613 1723 c 128,-1,38
 615 1723 615 1723 619.5 1723 c 128,-1,39
 624 1723 624 1723 639 1722 c 0,40,41
 667 1720 667 1720 702.5 1713.5 c 128,-1,42
 738 1707 738 1707 775.5 1692 c 128,-1,43
 813 1677 813 1677 849 1652 c 128,-1,44
 885 1627 885 1627 914 1588 c 1,45,46
 903 1557 903 1557 882.5 1520.5 c 128,-1,47
 862 1484 862 1484 837 1447.5 c 128,-1,48
 812 1411 812 1411 783 1376 c 128,-1,49
 754 1341 754 1341 725.5 1311.5 c 128,-1,50
 697 1282 697 1282 670.5 1261 c 128,-1,51
 644 1240 644 1240 623 1231 c 1,27,28
EndSplineSet
EndChar

StartChar: macron
Encoding: 175 175 112
Width: 749
Flags: W
LayerCount: 2
Fore
SplineSet
23 1337 m 1,0,1
 15 1408 15 1408 27.5 1476.5 c 128,-1,2
 40 1545 40 1545 69 1594 c 1,3,-1
 720 1608 l 1,4,5
 734 1548 734 1548 724 1475.5 c 128,-1,6
 714 1403 714 1403 680 1337 c 1,7,8
 654 1335 654 1335 592 1333 c 128,-1,9
 530 1331 530 1331 443 1330.5 c 128,-1,10
 356 1330 356 1330 248.5 1331 c 128,-1,11
 141 1332 141 1332 23 1337 c 1,0,1
EndSplineSet
EndChar

StartChar: imacron
Encoding: 299 299 114
Width: 655
Flags: W
LayerCount: 2
Fore
SplineSet
-8 1337 m 1,0,1
 -16 1408 -16 1408 -3.5 1476.5 c 128,-1,2
 9 1545 9 1545 38 1594 c 1,3,-1
 602 1608 l 1,4,5
 616 1548 616 1548 606 1475.5 c 128,-1,6
 596 1403 596 1403 562 1337 c 1,7,8
 509 1332 509 1332 368 1330 c 128,-1,9
 227 1328 227 1328 -8 1337 c 1,0,1
83 212 m 0,10,11
 83 221 83 221 83.5 227.5 c 128,-1,12
 84 234 84 234 86.5 244 c 128,-1,13
 89 254 89 254 95 270 c 128,-1,14
 101 286 101 286 111.5 314.5 c 128,-1,15
 122 343 122 343 138 387 c 128,-1,16
 154 431 154 431 177 497 c 1,17,-1
 46 1018 l 1,18,19
 68 1045 68 1045 103.5 1071.5 c 128,-1,20
 139 1098 139 1098 181.5 1118 c 128,-1,21
 224 1138 224 1138 271.5 1150.5 c 128,-1,22
 319 1163 319 1163 366 1163 c 0,23,24
 412 1163 412 1163 454 1149.5 c 128,-1,25
 496 1136 496 1136 531 1105 c 1,26,27
 529 1093 529 1093 524.5 1050.5 c 128,-1,28
 520 1008 520 1008 513 947.5 c 128,-1,29
 506 887 506 887 497.5 813 c 128,-1,30
 489 739 489 739 478.5 664 c 128,-1,31
 468 589 468 589 455.5 518 c 128,-1,32
 443 447 443 447 430 392 c 2,33,-1
 411 314 l 1,34,-1
 561 381 l 1,35,-1
 640 256 l 1,36,37
 624 219 624 219 597.5 171.5 c 128,-1,38
 571 124 571 124 536 81.5 c 128,-1,39
 501 39 501 39 457.5 9.5 c 128,-1,40
 414 -20 414 -20 365 -20 c 0,41,42
 342 -20 342 -20 311.5 -10.5 c 128,-1,43
 281 -1 281 -1 250 16 c 128,-1,44
 219 33 219 33 189 55.5 c 128,-1,45
 159 78 159 78 135.5 104 c 128,-1,46
 112 130 112 130 97.5 157.5 c 128,-1,47
 83 185 83 185 83 212 c 0,10,11
EndSplineSet
EndChar

StartChar: thorn
Encoding: 254 254 120
Width: 1129
Flags: W
LayerCount: 2
Fore
SplineSet
112 512 m 1,0,-1
 116 527 l 1,1,2
 103 603 103 603 90.5 699.5 c 128,-1,3
 78 796 78 796 66.5 898 c 128,-1,4
 55 1000 55 1000 45 1098.5 c 128,-1,5
 35 1197 35 1197 28.5 1276 c 128,-1,6
 22 1355 22 1355 19 1406.5 c 128,-1,7
 16 1458 16 1458 18 1466 c 1,8,9
 43 1497 43 1497 79.5 1523.5 c 128,-1,10
 116 1550 116 1550 159 1570 c 128,-1,11
 202 1590 202 1590 249 1601.5 c 128,-1,12
 296 1613 296 1613 341 1613 c 0,13,14
 384 1613 384 1613 422.5 1602.5 c 128,-1,15
 461 1592 461 1592 493 1566 c 1,16,17
 486 1440 486 1440 473 1311.5 c 128,-1,18
 460 1183 460 1183 443.5 1052.5 c 128,-1,19
 427 922 427 922 409 790 c 128,-1,20
 391 658 391 658 375 525 c 1,21,-1
 627 1165 l 1,22,23
 644 1169 644 1169 668.5 1176.5 c 128,-1,24
 693 1184 693 1184 737 1184 c 0,25,26
 765 1184 765 1184 807.5 1175.5 c 128,-1,27
 850 1167 850 1167 898 1149.5 c 128,-1,28
 946 1132 946 1132 995.5 1104.5 c 128,-1,29
 1045 1077 1045 1077 1089 1038 c 1,30,31
 1082 921 1082 921 1066.5 802.5 c 128,-1,32
 1051 684 1051 684 1024.5 557 c 128,-1,33
 998 430 998 430 959.5 291 c 128,-1,34
 921 152 921 152 867 -5 c 1,35,36
 844 -12 844 -12 819.5 -16 c 128,-1,37
 795 -20 795 -20 769 -20 c 0,38,39
 715 -20 715 -20 663 -12 c 128,-1,40
 611 -4 611 -4 566 7.5 c 128,-1,41
 521 19 521 19 485 33 c 128,-1,42
 449 47 449 47 427 59 c 1,43,44
 420 17 420 17 410 -30.5 c 128,-1,45
 400 -78 400 -78 386 -132 c 1,46,-1
 578 -132 l 1,47,-1
 610 -295 l 1,48,49
 592 -321 592 -321 561.5 -347 c 128,-1,50
 531 -373 531 -373 494.5 -393 c 128,-1,51
 458 -413 458 -413 420 -425.5 c 128,-1,52
 382 -438 382 -438 349 -438 c 0,53,54
 310 -438 310 -438 269 -419 c 128,-1,55
 228 -400 228 -400 196 -377 c 0,56,57
 178 -364 178 -364 162.5 -351.5 c 128,-1,58
 147 -339 147 -339 136 -322.5 c 128,-1,59
 125 -306 125 -306 119 -283.5 c 128,-1,60
 113 -261 113 -261 113 -227 c 2,61,-1
 112 512 l 1,0,-1
424 300 m 1,62,63
 444 282 444 282 473 267 c 128,-1,64
 502 252 502 252 532 241 c 128,-1,65
 562 230 562 230 590 223 c 128,-1,66
 618 216 618 216 635 215 c 1,67,68
 643 272 643 272 652.5 349 c 128,-1,69
 662 426 662 426 671 505.5 c 128,-1,70
 680 585 680 585 686.5 657.5 c 128,-1,71
 693 730 693 730 696 777 c 1,72,-1
 669 785 l 1,73,74
 654 756 654 756 632 713.5 c 128,-1,75
 610 671 610 671 585.5 623.5 c 128,-1,76
 561 576 561 576 536 526.5 c 128,-1,77
 511 477 511 477 489 433 c 128,-1,78
 467 389 467 389 450 354 c 128,-1,79
 433 319 433 319 424 300 c 1,62,63
EndSplineSet
EndChar

StartChar: ae
Encoding: 230 230 121
Width: 1533
Flags: W
LayerCount: 2
Fore
SplineSet
116 146 m 0,0,1
 116 156 116 156 117 177 c 128,-1,2
 118 198 118 198 119 222.5 c 128,-1,3
 120 247 120 247 121 273 c 128,-1,4
 122 299 122 299 122 319 c 0,5,6
 122 378 122 378 118 453.5 c 128,-1,7
 114 529 114 529 106 607 c 128,-1,8
 98 685 98 685 85.5 760 c 128,-1,9
 73 835 73 835 56 894 c 0,10,11
 50 914 50 914 47.5 926.5 c 128,-1,12
 45 939 45 939 45 949 c 0,13,14
 45 961 45 961 50.5 973 c 128,-1,15
 56 985 56 985 71 1004 c 0,16,17
 117 1063 117 1063 174.5 1100.5 c 128,-1,18
 232 1138 232 1138 285 1160.5 c 128,-1,19
 338 1183 338 1183 379.5 1192 c 128,-1,20
 421 1201 421 1201 436 1203 c 1,21,22
 468 1180 468 1180 501.5 1143.5 c 128,-1,23
 535 1107 535 1107 566 1065 c 128,-1,24
 597 1023 597 1023 624 981 c 128,-1,25
 651 939 651 939 671 907 c 1,26,27
 677 929 677 929 683.5 958 c 128,-1,28
 690 987 690 987 703 1017 c 128,-1,29
 716 1047 716 1047 739.5 1076 c 128,-1,30
 763 1105 763 1105 804 1129 c 0,31,32
 827 1142 827 1142 859.5 1158.5 c 128,-1,33
 892 1175 892 1175 928 1189.5 c 128,-1,34
 964 1204 964 1204 999 1214 c 128,-1,35
 1034 1224 1034 1224 1061 1224 c 0,36,37
 1081 1224 1081 1224 1106.5 1212 c 128,-1,38
 1132 1200 1132 1200 1160 1182.5 c 128,-1,39
 1188 1165 1188 1165 1217.5 1145 c 128,-1,40
 1247 1125 1247 1125 1276 1110 c 0,41,42
 1325 1084 1325 1084 1364.5 1069.5 c 128,-1,43
 1404 1055 1404 1055 1451 1038 c 0,44,45
 1458 1035 1458 1035 1465.5 1029.5 c 128,-1,46
 1473 1024 1473 1024 1479 1008.5 c 128,-1,47
 1485 993 1485 993 1489 965 c 128,-1,48
 1493 937 1493 937 1493 889 c 0,49,50
 1493 854 1493 854 1488 822.5 c 128,-1,51
 1483 791 1483 791 1472 770 c 0,52,53
 1468 763 1468 763 1446 735 c 128,-1,54
 1424 707 1424 707 1389 666.5 c 128,-1,55
 1354 626 1354 626 1310 576 c 128,-1,56
 1266 526 1266 526 1218 474.5 c 128,-1,57
 1170 423 1170 423 1120.5 373.5 c 128,-1,58
 1071 324 1071 324 1027 284 c 1,59,-1
 1056 284 l 1,60,61
 1081 289 1081 289 1117 305 c 128,-1,62
 1153 321 1153 321 1196 342.5 c 128,-1,63
 1239 364 1239 364 1286.5 389.5 c 128,-1,64
 1334 415 1334 415 1382 438 c 1,65,-1
 1467 299 l 1,66,67
 1447 272 1447 272 1413.5 238 c 128,-1,68
 1380 204 1380 204 1338.5 168.5 c 128,-1,69
 1297 133 1297 133 1248.5 99 c 128,-1,70
 1200 65 1200 65 1150 38.5 c 128,-1,71
 1100 12 1100 12 1050 -4 c 128,-1,72
 1000 -20 1000 -20 956 -20 c 0,73,74
 939 -20 939 -20 922.5 -12.5 c 128,-1,75
 906 -5 906 -5 887.5 8.5 c 128,-1,76
 869 22 869 22 848 41 c 128,-1,77
 827 60 827 60 801 82 c 0,78,79
 765 113 765 113 743.5 134.5 c 128,-1,80
 722 156 722 156 710.5 172 c 128,-1,81
 699 188 699 188 696 200.5 c 128,-1,82
 693 213 693 213 694 227 c 0,83,84
 696 258 696 258 698.5 292.5 c 128,-1,85
 701 327 701 327 702.5 361.5 c 128,-1,86
 704 396 704 396 703 429.5 c 128,-1,87
 702 463 702 463 698 492 c 1,88,-1
 683 496 l 1,89,90
 666 453 666 453 643 398 c 128,-1,91
 620 343 620 343 593 285.5 c 128,-1,92
 566 228 566 228 536 173.5 c 128,-1,93
 506 119 506 119 475 76 c 128,-1,94
 444 33 444 33 414 6.5 c 128,-1,95
 384 -20 384 -20 357 -20 c 0,96,97
 329 -20 329 -20 303 -6 c 128,-1,98
 277 8 277 8 247 30 c 0,99,100
 229 43 229 43 206 55.5 c 128,-1,101
 183 68 183 68 163 81.5 c 128,-1,102
 143 95 143 95 129.5 110.5 c 128,-1,103
 116 126 116 126 116 146 c 0,0,1
1009 417 m 1,104,105
 1026 442 1026 442 1054 485 c 128,-1,106
 1082 528 1082 528 1113.5 580 c 128,-1,107
 1145 632 1145 632 1175 687.5 c 128,-1,108
 1205 743 1205 743 1227 794 c 1,109,110
 1201 800 1201 800 1151.5 814.5 c 128,-1,111
 1102 829 1102 829 1033 851 c 1,112,113
 1033 837 1033 837 1032 806.5 c 128,-1,114
 1031 776 1031 776 1029.5 736.5 c 128,-1,115
 1028 697 1028 697 1026 652 c 128,-1,116
 1024 607 1024 607 1021.5 564 c 128,-1,117
 1019 521 1019 521 1016 483 c 128,-1,118
 1013 445 1013 445 1010 420 c 0,119,120
 1010 419 1010 419 1009.5 418.5 c 128,-1,121
 1009 418 1009 418 1009 417 c 1,104,105
450 338 m 1,122,123
 469 356 469 356 490 384.5 c 128,-1,124
 511 413 511 413 533 447 c 128,-1,125
 555 481 555 481 576 517 c 128,-1,126
 597 553 597 553 615 586 c 128,-1,127
 633 619 633 619 647.5 647 c 128,-1,128
 662 675 662 675 670 693 c 1,129,130
 671 702 671 702 671.5 706 c 128,-1,131
 672 710 672 710 672 712 c 128,-1,132
 672 714 672 714 672 715.5 c 128,-1,133
 672 717 672 717 672 720 c 2,134,-1
 672 773 l 1,135,136
 612 788 612 788 563 801 c 128,-1,137
 514 814 514 814 462 819 c 1,138,-1
 462 712 l 2,139,140
 462 620 462 620 451 531.5 c 128,-1,141
 440 443 440 443 420 352 c 1,142,-1
 450 338 l 1,122,123
EndSplineSet
EndChar

StartChar: oe
Encoding: 339 339 122
Width: 1488
Flags: W
LayerCount: 2
Fore
SplineSet
121 167 m 0,0,1
 95 331 95 331 78 485.5 c 128,-1,2
 61 640 61 640 61 778 c 0,3,4
 61 803 61 803 61.5 836.5 c 128,-1,5
 62 870 62 870 65 903.5 c 128,-1,6
 68 937 68 937 74.5 965.5 c 128,-1,7
 81 994 81 994 94 1011 c 0,8,9
 111 1033 111 1033 145 1056 c 128,-1,10
 179 1079 179 1079 222 1100.5 c 128,-1,11
 265 1122 265 1122 312 1141 c 128,-1,12
 359 1160 359 1160 401 1174 c 128,-1,13
 443 1188 443 1188 476.5 1196 c 128,-1,14
 510 1204 510 1204 526 1204 c 0,15,16
 547 1204 547 1204 573.5 1198 c 128,-1,17
 600 1192 600 1192 630 1181.5 c 128,-1,18
 660 1171 660 1171 691 1156 c 128,-1,19
 722 1141 722 1141 752 1122 c 1,20,-1
 759 1127 l 1,21,22
 781 1141 781 1141 814 1157.5 c 128,-1,23
 847 1174 847 1174 882.5 1188.5 c 128,-1,24
 918 1203 918 1203 953.5 1212.5 c 128,-1,25
 989 1222 989 1222 1016 1222 c 1,26,27
 1030 1221 1030 1221 1049 1215 c 128,-1,28
 1068 1209 1068 1209 1094 1192 c 0,29,30
 1154 1152 1154 1152 1196 1128 c 128,-1,31
 1238 1104 1238 1104 1272.5 1088 c 128,-1,32
 1307 1072 1307 1072 1338 1060.5 c 128,-1,33
 1369 1049 1369 1049 1406 1036 c 0,34,35
 1413 1033 1413 1033 1418.5 1030 c 128,-1,36
 1424 1027 1424 1027 1428 1020 c 128,-1,37
 1432 1013 1432 1013 1435 1000 c 128,-1,38
 1438 987 1438 987 1442 964 c 0,39,40
 1446 940 1446 940 1447 912.5 c 128,-1,41
 1448 885 1448 885 1446.5 858.5 c 128,-1,42
 1445 832 1445 832 1440.5 808 c 128,-1,43
 1436 784 1436 784 1427 768 c 0,44,45
 1423 761 1423 761 1401 733 c 128,-1,46
 1379 705 1379 705 1344 664.5 c 128,-1,47
 1309 624 1309 624 1265 574 c 128,-1,48
 1221 524 1221 524 1173 472.5 c 128,-1,49
 1125 421 1125 421 1075.5 371.5 c 128,-1,50
 1026 322 1026 322 982 282 c 1,51,-1
 1011 282 l 1,52,53
 1036 287 1036 287 1072 303 c 128,-1,54
 1108 319 1108 319 1151 340.5 c 128,-1,55
 1194 362 1194 362 1241.5 387.5 c 128,-1,56
 1289 413 1289 413 1337 436 c 1,57,-1
 1422 297 l 1,58,59
 1402 270 1402 270 1368.5 236 c 128,-1,60
 1335 202 1335 202 1293.5 166.5 c 128,-1,61
 1252 131 1252 131 1203.5 97 c 128,-1,62
 1155 63 1155 63 1105 36.5 c 128,-1,63
 1055 10 1055 10 1005 -6 c 128,-1,64
 955 -22 955 -22 911 -22 c 0,65,66
 886 -22 886 -22 861 -9 c 128,-1,67
 836 4 836 4 805 36 c 0,68,69
 795 46 795 46 785.5 55.5 c 128,-1,70
 776 65 776 65 766 73 c 1,71,-1
 765 73 l 1,72,73
 718 39 718 39 667 12 c 128,-1,74
 616 -15 616 -15 572 -20 c 1,75,76
 539 -17 539 -17 493.5 -9.5 c 128,-1,77
 448 -2 448 -2 399.5 10.5 c 128,-1,78
 351 23 351 23 303 39 c 128,-1,79
 255 55 255 55 215.5 74.5 c 128,-1,80
 176 94 176 94 150.5 117.5 c 128,-1,81
 125 141 125 141 121 167 c 0,0,1
428 292 m 1,82,83
 459 272 459 272 500 251.5 c 128,-1,84
 541 231 541 231 594 220 c 1,85,-1
 649 258 l 1,86,87
 654 313 654 313 655.5 368 c 128,-1,88
 657 423 657 423 657 480 c 0,89,90
 657 556 657 556 653 634.5 c 128,-1,91
 649 713 649 713 640 800 c 1,92,-1
 486 863 l 1,93,-1
 426 834 l 1,94,95
 414 714 414 714 414 593 c 0,96,97
 414 518 414 518 417 443 c 128,-1,98
 420 368 420 368 428 292 c 1,82,83
964 415 m 1,99,100
 981 440 981 440 1009 483 c 128,-1,101
 1037 526 1037 526 1068.5 578 c 128,-1,102
 1100 630 1100 630 1130 685.5 c 128,-1,103
 1160 741 1160 741 1182 792 c 1,104,105
 1156 798 1156 798 1106.5 812.5 c 128,-1,106
 1057 827 1057 827 988 849 c 1,107,108
 988 835 988 835 987 804.5 c 128,-1,109
 986 774 986 774 984.5 734.5 c 128,-1,110
 983 695 983 695 981 650 c 128,-1,111
 979 605 979 605 976.5 562 c 128,-1,112
 974 519 974 519 971 481 c 128,-1,113
 968 443 968 443 965 418 c 0,114,115
 965 417 965 417 964.5 416.5 c 128,-1,116
 964 416 964 416 964 415 c 1,99,100
EndSplineSet
EndChar

StartChar: eng
Encoding: 331 331 123
Width: 1108
Flags: W
LayerCount: 2
Fore
SplineSet
73 66 m 1,0,1
 85 126 85 126 95 169.5 c 128,-1,2
 105 213 105 213 114.5 247 c 128,-1,3
 124 281 124 281 133 309.5 c 128,-1,4
 142 338 142 338 153 368 c 1,5,6
 144 391 144 391 133.5 431.5 c 128,-1,7
 123 472 123 472 112 523 c 128,-1,8
 101 574 101 574 89.5 631.5 c 128,-1,9
 78 689 78 689 68 746.5 c 128,-1,10
 58 804 58 804 49.5 858 c 128,-1,11
 41 912 41 912 35.5 955 c 128,-1,12
 30 998 30 998 27.5 1026 c 128,-1,13
 25 1054 25 1054 27 1061 c 1,14,15
 46 1091 46 1091 80.5 1113.5 c 128,-1,16
 115 1136 115 1136 157 1150.5 c 128,-1,17
 199 1165 199 1165 244.5 1172.5 c 128,-1,18
 290 1180 290 1180 331 1180 c 0,19,20
 378 1180 378 1180 415 1172 c 128,-1,21
 452 1164 452 1164 475 1143 c 1,22,-1
 380 517 l 1,23,-1
 396 514 l 1,24,25
 424 596 424 596 448 678 c 128,-1,26
 472 760 472 760 497 842 c 128,-1,27
 522 924 522 924 550.5 1004.5 c 128,-1,28
 579 1085 579 1085 615 1165 c 1,29,30
 644 1174 644 1174 677.5 1177 c 128,-1,31
 711 1180 711 1180 747 1180 c 0,32,33
 795 1180 795 1180 843 1172.5 c 128,-1,34
 891 1165 891 1165 936 1148.5 c 128,-1,35
 981 1132 981 1132 1021.5 1105 c 128,-1,36
 1062 1078 1062 1078 1095 1038 c 1,37,38
 1093 979 1093 979 1079.5 897.5 c 128,-1,39
 1066 816 1066 816 1043.5 725 c 128,-1,40
 1021 634 1021 634 992 540.5 c 128,-1,41
 963 447 963 447 930 365 c 1,42,43
 937 340 937 340 947.5 297.5 c 128,-1,44
 958 255 958 255 970 202 c 128,-1,45
 982 149 982 149 994 89 c 128,-1,46
 1006 29 1006 29 1015 -31 c 128,-1,47
 1024 -91 1024 -91 1028.5 -148.5 c 128,-1,48
 1033 -206 1033 -206 1031 -254 c 1,49,50
 1029 -275 1029 -275 1005.5 -306.5 c 128,-1,51
 982 -338 982 -338 945.5 -367 c 128,-1,52
 909 -396 909 -396 864 -417 c 128,-1,53
 819 -438 819 -438 773 -438 c 1,54,55
 728 -430 728 -430 684 -411 c 128,-1,56
 640 -392 640 -392 602.5 -368.5 c 128,-1,57
 565 -345 565 -345 536.5 -321.5 c 128,-1,58
 508 -298 508 -298 495 -281 c 1,59,60
 492 -253 492 -253 492 -231 c 128,-1,61
 492 -209 492 -209 495 -189.5 c 128,-1,62
 498 -170 498 -170 503 -151 c 128,-1,63
 508 -132 508 -132 514 -109 c 1,64,65
 542 -115 542 -115 579.5 -121.5 c 128,-1,66
 617 -128 617 -128 659 -134 c 1,67,-1
 654 394 l 1,68,-1
 681 772 l 1,69,-1
 653 781 l 1,70,71
 600 674 600 674 548.5 571.5 c 128,-1,72
 497 469 497 469 437 360 c 1,73,74
 459 287 459 287 480 206 c 128,-1,75
 501 125 501 125 509 24 c 1,76,77
 472 -2 472 -2 422.5 -12 c 128,-1,78
 373 -22 373 -22 321 -20 c 0,79,80
 285 -19 285 -19 248 -13 c 128,-1,81
 211 -7 211 -7 178 3.5 c 128,-1,82
 145 14 145 14 117.5 30 c 128,-1,83
 90 46 90 46 73 66 c 1,0,1
EndSplineSet
EndChar

StartChar: ldot
Encoding: 320 320 124
Width: 940
Flags: W
LayerCount: 2
Fore
SplineSet
105 138 m 0,0,1
 94 152 94 152 85 169.5 c 128,-1,2
 76 187 76 187 76 214 c 0,3,4
 76 232 76 232 80 249 c 2,5,-1
 149 606 l 1,6,7
 135 682 135 682 121 770 c 128,-1,8
 107 858 107 858 94.5 947.5 c 128,-1,9
 82 1037 82 1037 71.5 1122 c 128,-1,10
 61 1207 61 1207 53.5 1277 c 128,-1,11
 46 1347 46 1347 41.5 1395.5 c 128,-1,12
 37 1444 37 1444 37 1460 c 2,13,-1
 37 1466 l 1,14,15
 61 1496 61 1496 96 1522.5 c 128,-1,16
 131 1549 131 1549 172.5 1569.5 c 128,-1,17
 214 1590 214 1590 259.5 1601.5 c 128,-1,18
 305 1613 305 1613 350 1613 c 0,19,20
 393 1613 393 1613 432.5 1602.5 c 128,-1,21
 472 1592 472 1592 505 1566 c 1,22,23
 501 1447 501 1447 493.5 1322 c 128,-1,24
 486 1197 486 1197 475 1048.5 c 128,-1,25
 464 900 464 900 447.5 720.5 c 128,-1,26
 431 541 431 541 409 314 c 1,27,-1
 625 438 l 1,28,-1
 712 314 l 1,29,30
 702 285 702 285 680.5 249 c 128,-1,31
 659 213 659 213 630 176 c 128,-1,32
 601 139 601 139 565.5 103.5 c 128,-1,33
 530 68 530 68 493.5 40.5 c 128,-1,34
 457 13 457 13 420.5 -3.5 c 128,-1,35
 384 -20 384 -20 353 -20 c 0,36,37
 318 -20 318 -20 283.5 -5 c 128,-1,38
 249 10 249 10 216.5 33 c 128,-1,39
 184 56 184 56 155.5 84 c 128,-1,40
 127 112 127 112 105 138 c 0,0,1
745 576 m 1,41,42
 709 578 709 578 673 592.5 c 128,-1,43
 637 607 637 607 607 628 c 128,-1,44
 577 649 577 649 556 673.5 c 128,-1,45
 535 698 535 698 528 721 c 1,46,47
 549 774 549 774 564.5 811.5 c 128,-1,48
 580 849 580 849 592 880.5 c 128,-1,49
 604 912 604 912 614.5 942 c 128,-1,50
 625 972 625 972 637 1010 c 1,51,52
 683 1010 683 1010 736.5 1000 c 128,-1,53
 790 990 790 990 838 965 c 128,-1,54
 886 940 886 940 923 898 c 128,-1,55
 960 856 960 856 974 793 c 1,56,57
 959 758 959 758 933 725 c 128,-1,58
 907 692 907 692 875.5 663.5 c 128,-1,59
 844 635 844 635 810 612 c 128,-1,60
 776 589 776 589 745 576 c 1,41,42
EndSplineSet
EndChar

StartChar: hyphen
Encoding: 45 45 125
Width: 967
Flags: W
LayerCount: 2
Fore
SplineSet
111 437 m 1,0,1
 106 479 106 479 108 513 c 128,-1,2
 110 547 110 547 117.5 576 c 128,-1,3
 125 605 125 605 137.5 632.5 c 128,-1,4
 150 660 150 660 167 689 c 1,5,-1
 861 738 l 1,6,7
 870 702 870 702 868 663 c 128,-1,8
 866 624 866 624 856 584 c 128,-1,9
 846 544 846 544 829.5 503.5 c 128,-1,10
 813 463 813 463 793 423 c 1,11,12
 730 418 730 418 562 422 c 128,-1,13
 394 426 394 426 111 437 c 1,0,1
EndSplineSet
EndChar

StartChar: i
Encoding: 105 105 126
Width: 615
Flags: W
LayerCount: 2
Fore
SplineSet
291 1207 m 1,0,1
 272 1207 272 1207 245 1218.5 c 128,-1,2
 218 1230 218 1230 189.5 1247.5 c 128,-1,3
 161 1265 161 1265 134.5 1287 c 128,-1,4
 108 1309 108 1309 90 1330 c 1,5,6
 137 1436 137 1436 169.5 1520.5 c 128,-1,7
 202 1605 202 1605 228 1681 c 1,8,9
 279 1681 279 1681 333.5 1671 c 128,-1,10
 388 1661 388 1661 436.5 1636 c 128,-1,11
 485 1611 485 1611 521.5 1569 c 128,-1,12
 558 1527 558 1527 573 1464 c 1,13,14
 562 1441 562 1441 542 1414 c 128,-1,15
 522 1387 522 1387 497 1359.5 c 128,-1,16
 472 1332 472 1332 443.5 1305.5 c 128,-1,17
 415 1279 415 1279 387 1258.5 c 128,-1,18
 359 1238 359 1238 334 1224 c 128,-1,19
 309 1210 309 1210 291 1207 c 1,0,1
63 212 m 0,20,21
 63 221 63 221 63.5 227.5 c 128,-1,22
 64 234 64 234 66.5 244 c 128,-1,23
 69 254 69 254 75 270 c 128,-1,24
 81 286 81 286 91.5 314.5 c 128,-1,25
 102 343 102 343 118 387 c 128,-1,26
 134 431 134 431 157 497 c 1,27,-1
 26 1018 l 1,28,29
 48 1045 48 1045 83.5 1071.5 c 128,-1,30
 119 1098 119 1098 161.5 1118 c 128,-1,31
 204 1138 204 1138 251.5 1150.5 c 128,-1,32
 299 1163 299 1163 346 1163 c 0,33,34
 392 1163 392 1163 434 1149.5 c 128,-1,35
 476 1136 476 1136 511 1105 c 1,36,37
 509 1093 509 1093 504.5 1050.5 c 128,-1,38
 500 1008 500 1008 493 947.5 c 128,-1,39
 486 887 486 887 477.5 813 c 128,-1,40
 469 739 469 739 458.5 664 c 128,-1,41
 448 589 448 589 435.5 518 c 128,-1,42
 423 447 423 447 410 392 c 2,43,-1
 391 314 l 1,44,-1
 541 381 l 1,45,-1
 620 256 l 1,46,47
 604 219 604 219 577.5 171.5 c 128,-1,48
 551 124 551 124 516 81.5 c 128,-1,49
 481 39 481 39 437.5 9.5 c 128,-1,50
 394 -20 394 -20 345 -20 c 0,51,52
 322 -20 322 -20 291.5 -10.5 c 128,-1,53
 261 -1 261 -1 230 16 c 128,-1,54
 199 33 199 33 169 55.5 c 128,-1,55
 139 78 139 78 115.5 104 c 128,-1,56
 92 130 92 130 77.5 157.5 c 128,-1,57
 63 185 63 185 63 212 c 0,20,21
EndSplineSet
Substitution2: "'locl' Localized Forms lookup 2 subtable" i.cy
Substitution2: "'locl' Localized Forms lookup 1 subtable" i.cy
Substitution2: "'aalt' Access All Alternates in Latin lookup 0 subtable" i.cy
EndChar

StartChar: h
Encoding: 104 104 127
Width: 1198
Flags: W
LayerCount: 2
Fore
SplineSet
112 66 m 1,0,1
 122 126 122 126 130.5 169.5 c 128,-1,2
 139 213 139 213 147 247 c 128,-1,3
 155 281 155 281 163.5 309.5 c 128,-1,4
 172 338 172 338 182 368 c 0,5,6
 182 369 182 369 182.5 369 c 128,-1,7
 183 369 183 369 183 370 c 0,8,9
 172 392 172 392 159 446 c 128,-1,10
 146 500 146 500 132 575 c 128,-1,11
 118 650 118 650 103.5 739.5 c 128,-1,12
 89 829 89 829 75.5 921.5 c 128,-1,13
 62 1014 62 1014 50 1102.5 c 128,-1,14
 38 1191 38 1191 29 1264 c 128,-1,15
 20 1337 20 1337 15 1388.5 c 128,-1,16
 10 1440 10 1440 10 1458 c 0,17,18
 10 1461 10 1461 10.5 1462.5 c 128,-1,19
 11 1464 11 1464 11 1466 c 1,20,21
 34 1496 34 1496 68.5 1522.5 c 128,-1,22
 103 1549 103 1549 144.5 1569.5 c 128,-1,23
 186 1590 186 1590 232 1602 c 128,-1,24
 278 1614 278 1614 323 1614 c 256,25,26
 368 1614 368 1614 407 1603 c 128,-1,27
 446 1592 446 1592 481 1566 c 1,28,29
 479 1440 479 1440 470 1310.5 c 128,-1,30
 461 1181 461 1181 449 1049.5 c 128,-1,31
 437 918 437 918 423.5 785 c 128,-1,32
 410 652 410 652 398 518 c 1,33,-1
 411 515 l 1,34,-1
 415 514 l 1,35,36
 440 596 440 596 462.5 678 c 128,-1,37
 485 760 485 760 508.5 842 c 128,-1,38
 532 924 532 924 558 1004.5 c 128,-1,39
 584 1085 584 1085 617 1165 c 1,40,41
 633 1169 633 1169 668.5 1175.5 c 128,-1,42
 704 1182 704 1182 747 1182 c 0,43,44
 775 1182 775 1182 814.5 1174.5 c 128,-1,45
 854 1167 854 1167 900.5 1150.5 c 128,-1,46
 947 1134 947 1134 998 1106 c 128,-1,47
 1049 1078 1049 1078 1100 1038 c 1,48,49
 1100 974 1100 974 1087.5 883.5 c 128,-1,50
 1075 793 1075 793 1053 693.5 c 128,-1,51
 1031 594 1031 594 1001.5 494 c 128,-1,52
 972 394 972 394 938 311 c 1,53,-1
 1108 400 l 1,54,-1
 1197 279 l 1,55,56
 1181 231 1181 231 1152 178.5 c 128,-1,57
 1123 126 1123 126 1086.5 81.5 c 128,-1,58
 1050 37 1050 37 1007.5 8.5 c 128,-1,59
 965 -20 965 -20 922 -20 c 0,60,61
 898 -20 898 -20 872.5 -13 c 128,-1,62
 847 -6 847 -6 822 6.5 c 128,-1,63
 797 19 797 19 773.5 35.5 c 128,-1,64
 750 52 750 52 732 72 c 0,65,66
 697 109 697 109 683 143 c 128,-1,67
 669 177 669 177 671 221 c 2,68,-1
 696 772 l 1,69,-1
 669 781 l 1,70,71
 619 674 619 674 571 571.5 c 128,-1,72
 523 469 523 469 466 360 c 1,73,74
 491 287 491 287 515 206 c 128,-1,75
 539 125 539 125 550 24 c 1,76,77
 517 0 517 0 472 -10 c 128,-1,78
 427 -20 427 -20 378 -20 c 0,79,80
 341 -20 341 -20 302 -14.5 c 128,-1,81
 263 -9 263 -9 227 1.5 c 128,-1,82
 191 12 191 12 161 28.5 c 128,-1,83
 131 45 131 45 112 66 c 1,0,1
EndSplineSet
EndChar

StartChar: dieresis.cap
Encoding: 65537 -1 128
Width: 1010
Flags: W
LayerCount: 2
Fore
SplineSet
775 1586 m 1,0,1
 739 1588 739 1588 703 1602.5 c 128,-1,2
 667 1617 667 1617 637 1638 c 128,-1,3
 607 1659 607 1659 586 1683.5 c 128,-1,4
 565 1708 565 1708 558 1731 c 1,5,6
 579 1784 579 1784 594.5 1821.5 c 128,-1,7
 610 1859 610 1859 622 1890.5 c 128,-1,8
 634 1922 634 1922 644.5 1952 c 128,-1,9
 655 1982 655 1982 667 2020 c 1,10,11
 713 2020 713 2020 762 2010 c 128,-1,12
 811 2000 811 2000 854.5 1975 c 128,-1,13
 898 1950 898 1950 931 1908 c 128,-1,14
 964 1866 964 1866 978 1803 c 1,15,16
 963 1768 963 1768 941.5 1735 c 128,-1,17
 920 1702 920 1702 893 1673.5 c 128,-1,18
 866 1645 866 1645 836 1622 c 128,-1,19
 806 1599 806 1599 775 1586 c 1,0,1
307 1586 m 1,20,21
 271 1588 271 1588 235 1602.5 c 128,-1,22
 199 1617 199 1617 169 1638 c 128,-1,23
 139 1659 139 1659 118 1683.5 c 128,-1,24
 97 1708 97 1708 90 1731 c 1,25,26
 111 1784 111 1784 126.5 1821.5 c 128,-1,27
 142 1859 142 1859 154 1890.5 c 128,-1,28
 166 1922 166 1922 176.5 1952 c 128,-1,29
 187 1982 187 1982 199 2020 c 1,30,31
 245 2020 245 2020 294.5 2010 c 128,-1,32
 344 2000 344 2000 387.5 1975 c 128,-1,33
 431 1950 431 1950 463.5 1908 c 128,-1,34
 496 1866 496 1866 510 1803 c 1,35,36
 495 1768 495 1768 473.5 1735 c 128,-1,37
 452 1702 452 1702 425 1673.5 c 128,-1,38
 398 1645 398 1645 368 1622 c 128,-1,39
 338 1599 338 1599 307 1586 c 1,20,21
EndSplineSet
EndChar

StartChar: endash
Encoding: 8211 8211 129
Width: 1357
Flags: W
LayerCount: 2
Fore
SplineSet
111 437 m 1,0,1
 106 479 106 479 108 513 c 128,-1,2
 110 547 110 547 117.5 576 c 128,-1,3
 125 605 125 605 137.5 632.5 c 128,-1,4
 150 660 150 660 167 689 c 1,5,-1
 1226 754 l 1,6,7
 1235 718 1235 718 1233 679 c 128,-1,8
 1231 640 1231 640 1221 600 c 128,-1,9
 1211 560 1211 560 1194.5 519.5 c 128,-1,10
 1178 479 1178 479 1158 439 c 1,11,12
 1137 437 1137 437 1077.5 435.5 c 128,-1,13
 1018 434 1018 434 933 432.5 c 128,-1,14
 848 431 848 431 744.5 430 c 128,-1,15
 641 429 641 429 531.5 429.5 c 128,-1,16
 422 430 422 430 313.5 431.5 c 128,-1,17
 205 433 205 433 111 437 c 1,0,1
EndSplineSet
EndChar

StartChar: emdash
Encoding: 8212 8212 130
Width: 2021
Flags: W
LayerCount: 2
Fore
SplineSet
111 437 m 1,0,1
 106 479 106 479 108 513 c 128,-1,2
 110 547 110 547 117.5 576 c 128,-1,3
 125 605 125 605 137.5 632.5 c 128,-1,4
 150 660 150 660 167 689 c 1,5,-1
 1907 754 l 1,6,7
 1916 718 1916 718 1914 679 c 128,-1,8
 1912 640 1912 640 1902 600 c 128,-1,9
 1892 560 1892 560 1875.5 519.5 c 128,-1,10
 1859 479 1859 479 1839 439 c 1,11,12
 1823 438 1823 438 1756 436.5 c 128,-1,13
 1689 435 1689 435 1586.5 434 c 128,-1,14
 1484 433 1484 433 1354.5 432 c 128,-1,15
 1225 431 1225 431 1084.5 430.5 c 128,-1,16
 944 430 944 430 801 430 c 128,-1,17
 658 430 658 430 528 430.5 c 128,-1,18
 398 431 398 431 290 432.5 c 128,-1,19
 182 434 182 434 111 437 c 1,0,1
EndSplineSet
EndChar

StartChar: quoteright
Encoding: 8217 8217 131
Width: 489
Flags: W
LayerCount: 2
Fore
SplineSet
38 960 m 1,0,-1
 93 1581 l 1,1,2
 141 1595 141 1595 197 1595 c 0,3,4
 266 1595 266 1595 335.5 1571 c 128,-1,5
 405 1547 405 1547 454 1494 c 1,6,7
 435 1423 435 1423 409 1348 c 128,-1,8
 383 1273 383 1273 350.5 1197.5 c 128,-1,9
 318 1122 318 1122 279.5 1048.5 c 128,-1,10
 241 975 241 975 196 908 c 1,11,-1
 38 960 l 1,0,-1
EndSplineSet
EndChar

StartChar: parenright
Encoding: 41 41 138
Width: 694
Flags: W
LayerCount: 2
Fore
SplineSet
58 -241 m 1,0,1
 110 -76 110 -76 148.5 75.5 c 128,-1,2
 187 227 187 227 212.5 352 c 128,-1,3
 238 477 238 477 250.5 568.5 c 128,-1,4
 263 660 263 660 265 706 c 1,5,6
 258 841 258 841 233 975 c 128,-1,7
 208 1109 208 1109 171.5 1239.5 c 128,-1,8
 135 1370 135 1370 90.5 1495.5 c 128,-1,9
 46 1621 46 1621 1 1740 c 1,10,11
 60 1785 60 1785 130.5 1811.5 c 128,-1,12
 201 1838 201 1838 281 1852 c 1,13,14
 358 1689 358 1689 411 1541 c 128,-1,15
 464 1393 464 1393 497.5 1257.5 c 128,-1,16
 531 1122 531 1122 549.5 998.5 c 128,-1,17
 568 875 568 875 576 761 c 1,18,19
 576 671 576 671 559 567 c 128,-1,20
 542 463 542 463 513.5 356.5 c 128,-1,21
 485 250 485 250 448.5 147.5 c 128,-1,22
 412 45 412 45 371.5 -42 c 128,-1,23
 331 -129 331 -129 290.5 -194.5 c 128,-1,24
 250 -260 250 -260 214 -291 c 1,25,-1
 58 -241 l 1,26,-1
 58 -241 l 1,0,1
EndSplineSet
EndChar

StartChar: seven
Encoding: 55 55 140
Width: 1050
Flags: W
LayerCount: 2
Fore
SplineSet
458 365 m 1,0,-1
 611 823 l 1,1,-1
 372 858 l 1,2,-1
 345 531 l 1,3,-1
 170 511 l 1,4,5
 142 541 142 541 115.5 597.5 c 128,-1,6
 89 654 89 654 70 721.5 c 128,-1,7
 51 789 51 789 44 861 c 128,-1,8
 37 933 37 933 49 995 c 0,9,10
 55 1023 55 1023 75.5 1050 c 128,-1,11
 96 1077 96 1077 125 1100 c 128,-1,12
 154 1123 154 1123 187.5 1142.5 c 128,-1,13
 221 1162 221 1162 251 1175.5 c 128,-1,14
 281 1189 281 1189 305 1196 c 128,-1,15
 329 1203 329 1203 340 1203 c 1,16,17
 396 1192 396 1192 443 1177.5 c 128,-1,18
 490 1163 490 1163 531.5 1146.5 c 128,-1,19
 573 1130 573 1130 611.5 1112.5 c 128,-1,20
 650 1095 650 1095 689 1077 c 1,21,22
 744 1121 744 1121 797 1152 c 128,-1,23
 850 1183 850 1183 913 1203 c 1,24,25
 963 1175 963 1175 994.5 1126 c 128,-1,26
 1026 1077 1026 1077 1038 1018 c 128,-1,27
 1050 959 1050 959 1042.5 894 c 128,-1,28
 1035 829 1035 829 1007 770 c 1,29,-1
 885 790 l 1,30,-1
 715 284 l 1,31,-1
 552 -275 l 1,32,33
 525 -284 525 -284 501.5 -288 c 128,-1,34
 478 -292 478 -292 442 -290 c 1,35,36
 399 -289 399 -289 356 -280 c 128,-1,37
 313 -271 313 -271 276 -254.5 c 128,-1,38
 239 -238 239 -238 211 -215 c 128,-1,39
 183 -192 183 -192 171 -162 c 1,40,-1
 458 365 l 1,0,-1
EndSplineSet
EndChar

StartChar: nine
Encoding: 57 57 141
Width: 1153
Flags: W
LayerCount: 2
Fore
SplineSet
236 -107 m 1,0,1
 298 -40 298 -40 371 36.5 c 128,-1,2
 444 113 444 113 518 195 c 128,-1,3
 592 277 592 277 661 363 c 128,-1,4
 730 449 730 449 783 536 c 1,5,-1
 761 548 l 1,6,7
 727 510 727 510 681.5 464.5 c 128,-1,8
 636 419 636 419 584 379 c 128,-1,9
 532 339 532 339 475 312 c 128,-1,10
 418 285 418 285 362 284 c 0,11,12
 308 283 308 283 258 309.5 c 128,-1,13
 208 336 208 336 168 386 c 128,-1,14
 128 436 128 436 100.5 507.5 c 128,-1,15
 73 579 73 579 66 669 c 1,16,17
 55 792 55 792 85 895 c 128,-1,18
 115 998 115 998 182.5 1072.5 c 128,-1,19
 250 1147 250 1147 354 1188.5 c 128,-1,20
 458 1230 458 1230 596 1230 c 0,21,22
 736 1230 736 1230 832.5 1177 c 128,-1,23
 929 1124 929 1124 987 1030 c 128,-1,24
 1045 936 1045 936 1067 807.5 c 128,-1,25
 1089 679 1089 679 1080 528 c 1,26,27
 1057 431 1057 431 1014.5 345 c 128,-1,28
 972 259 972 259 916.5 182.5 c 128,-1,29
 861 106 861 106 795.5 39 c 128,-1,30
 730 -28 730 -28 662 -86.5 c 128,-1,31
 594 -145 594 -145 526 -196 c 128,-1,32
 458 -247 458 -247 397 -291 c 1,33,34
 367 -276 367 -276 344.5 -259.5 c 128,-1,35
 322 -243 322 -243 303.5 -221.5 c 128,-1,36
 285 -200 285 -200 269 -172 c 128,-1,37
 253 -144 253 -144 236 -107 c 1,0,1
733 680 m 1,38,39
 733 718 733 718 731.5 746 c 128,-1,40
 730 774 730 774 726.5 799 c 128,-1,41
 723 824 723 824 717 848 c 128,-1,42
 711 872 711 872 702 903 c 1,43,44
 687 916 687 916 664.5 929.5 c 128,-1,45
 642 943 642 943 617.5 953.5 c 128,-1,46
 593 964 593 964 569 971.5 c 128,-1,47
 545 979 545 979 526 981 c 1,48,-1
 463 938 l 1,49,50
 443 838 443 838 446 735.5 c 128,-1,51
 449 633 449 633 473 527 c 1,52,-1
 733 680 l 1,38,39
EndSplineSet
EndChar

StartChar: eight
Encoding: 56 56 142
Width: 1087
Flags: W
LayerCount: 2
Fore
SplineSet
87 138 m 1,0,1
 71 188 71 188 60.5 254.5 c 128,-1,2
 50 321 50 321 60 406 c 1,3,4
 69 458 69 458 95 505.5 c 128,-1,5
 121 553 121 553 157.5 596.5 c 128,-1,6
 194 640 194 640 237 679 c 128,-1,7
 280 718 280 718 323 751 c 1,8,-1
 124 920 l 1,9,-1
 124 921 l 1,10,11
 107 952 107 952 91.5 1006.5 c 128,-1,12
 76 1061 76 1061 68.5 1122.5 c 128,-1,13
 61 1184 61 1184 65 1244 c 128,-1,14
 69 1304 69 1304 91 1346 c 1,15,16
 118 1375 118 1375 168.5 1409.5 c 128,-1,17
 219 1444 219 1444 278.5 1473.5 c 128,-1,18
 338 1503 338 1503 397.5 1524 c 128,-1,19
 457 1545 457 1545 502 1547 c 1,20,21
 546 1547 546 1547 609.5 1536 c 128,-1,22
 673 1525 673 1525 741.5 1504 c 128,-1,23
 810 1483 810 1483 874.5 1450.5 c 128,-1,24
 939 1418 939 1418 985 1375 c 1,25,26
 1001 1325 1001 1325 1011.5 1258.5 c 128,-1,27
 1022 1192 1022 1192 1012 1107 c 1,28,29
 996 1073 996 1073 966.5 1030 c 128,-1,30
 937 987 937 987 899.5 942 c 128,-1,31
 862 897 862 897 818.5 853.5 c 128,-1,32
 775 810 775 810 731 776 c 1,33,-1
 1015 538 l 1,34,35
 1034 451 1034 451 1033 363.5 c 128,-1,36
 1032 276 1032 276 995 185 c 1,37,38
 958 143 958 143 904.5 108.5 c 128,-1,39
 851 74 851 74 792.5 47 c 128,-1,40
 734 20 734 20 675.5 0 c 128,-1,41
 617 -20 617 -20 570 -34 c 1,42,43
 526 -34 526 -34 462.5 -23 c 128,-1,44
 399 -12 399 -12 330.5 9 c 128,-1,45
 262 30 262 30 197.5 62 c 128,-1,46
 133 94 133 94 87 138 c 1,0,1
589 896 m 1,47,48
 602 929 602 929 611 958.5 c 128,-1,49
 620 988 620 988 627 1019.5 c 128,-1,50
 634 1051 634 1051 639 1087 c 128,-1,51
 644 1123 644 1123 649 1169 c 1,52,53
 599 1200 599 1200 544 1217.5 c 128,-1,54
 489 1235 489 1235 425 1236 c 1,55,-1
 386 1218 l 1,56,-1
 376 1115 l 1,57,58
 405 1086 405 1086 441 1049 c 128,-1,59
 477 1012 477 1012 507 980 c 0,60,61
 527 958 527 958 551 933.5 c 128,-1,62
 575 909 575 909 589 896 c 1,47,48
355 341 m 1,63,64
 425 306 425 306 498 288.5 c 128,-1,65
 571 271 571 271 647 278 c 1,66,-1
 687 296 l 1,67,-1
 696 418 l 1,68,-1
 481 631 l 1,69,70
 465 612 465 612 445 583 c 128,-1,71
 425 554 425 554 405.5 524.5 c 128,-1,72
 386 495 386 495 370 470 c 128,-1,73
 354 445 354 445 347 433 c 1,74,-1
 355 341 l 1,63,64
EndSplineSet
EndChar

StartChar: paragraph
Encoding: 182 182 143
Width: 1617
Flags: W
LayerCount: 2
Fore
SplineSet
529 404 m 1,0,1
 485 416 485 416 440 428 c 128,-1,2
 395 440 395 440 355 452.5 c 128,-1,3
 315 465 315 465 283 478.5 c 128,-1,4
 251 492 251 492 233 507 c 1,5,6
 214 559 214 559 200.5 624.5 c 128,-1,7
 187 690 187 690 177.5 763 c 128,-1,8
 168 836 168 836 163 912 c 128,-1,9
 158 988 158 988 156.5 1060.5 c 128,-1,10
 155 1133 155 1133 156.5 1198.5 c 128,-1,11
 158 1264 158 1264 162 1315 c 1,12,-1
 796 1479 l 1,13,-1
 1398 1608 l 1,14,15
 1432 1576 1432 1576 1448.5 1524 c 128,-1,16
 1465 1472 1465 1472 1470 1413.5 c 128,-1,17
 1475 1355 1475 1355 1470.5 1299 c 128,-1,18
 1466 1243 1466 1243 1457 1204 c 1,19,20
 1344 1168 1344 1168 1234 1156 c 128,-1,21
 1124 1144 1124 1144 1029.5 1144.5 c 128,-1,22
 935 1145 935 1145 863 1151.5 c 128,-1,23
 791 1158 791 1158 756 1160 c 1,24,-1
 764 633 l 2,25,26
 764 632 764 632 765 632 c 2,27,-1
 741 -105 l 1,28,29
 732 -129 732 -129 692 -150 c 128,-1,30
 652 -171 652 -171 599 -180.5 c 128,-1,31
 546 -190 546 -190 489 -183.5 c 128,-1,32
 432 -177 432 -177 388 -147 c 1,33,-1
 529 404 l 1,0,1
937 -147 m 1,34,35
 941 -97 941 -97 949.5 -38 c 128,-1,36
 958 21 958 21 970 78.5 c 128,-1,37
 982 136 982 136 996.5 186.5 c 128,-1,38
 1011 237 1011 237 1026 271 c 1,39,-1
 971 999 l 1,40,41
 1026 1022 1026 1022 1089 1021 c 128,-1,42
 1152 1020 1152 1020 1208 1005 c 128,-1,43
 1264 990 1264 990 1305 966 c 128,-1,44
 1346 942 1346 942 1356 919 c 0,45,46
 1358 912 1358 912 1356.5 883.5 c 128,-1,47
 1355 855 1355 855 1350.5 812 c 128,-1,48
 1346 769 1346 769 1339.5 716 c 128,-1,49
 1333 663 1333 663 1324.5 606 c 128,-1,50
 1316 549 1316 549 1306.5 492.5 c 128,-1,51
 1297 436 1297 436 1286.5 386 c 128,-1,52
 1276 336 1276 336 1265 297 c 128,-1,53
 1254 258 1254 258 1243 237 c 1,54,55
 1254 207 1254 207 1263 172.5 c 128,-1,56
 1272 138 1272 138 1281.5 96.5 c 128,-1,57
 1291 55 1291 55 1301 5 c 128,-1,58
 1311 -45 1311 -45 1323 -105 c 1,59,60
 1293 -140 1293 -140 1239.5 -159 c 128,-1,61
 1186 -178 1186 -178 1128 -183 c 128,-1,62
 1070 -188 1070 -188 1017.5 -178.5 c 128,-1,63
 965 -169 965 -169 937 -147 c 1,34,35
EndSplineSet
EndChar

